  0
SECTION
  2
HEADER
  9
$ACADVER
  1
AC1032
  9
$ACADMAINTVER
 90
4
  9
$DWGCODEPAGE
  3
ANSI_1252
  9
$LASTSAVEDBY
  1
mvpst
  9
$REQUIREDVERSIONS
160
0
  9
$INSBASE
 10
0.0
 20
0.0
 30
0.0
  9
$EXTMIN
 10
2304.386744227866
 20
1304.262202925484
 30
0.0
  9
$EXTMAX
 10
2509.437711561493
 20
1834.031477278738
 30
0.0
  9
$LIMMIN
 10
0.0
 20
0.0
  9
$LIMMAX
 10
12.0
 20
9.0
  9
$ORTHOMODE
 70
0
  9
$REGENMODE
 70
1
  9
$FILLMODE
 70
1
  9
$QTEXTMODE
 70
0
  9
$MIRRTEXT
 70
0
  9
$LTSCALE
 40
1.0
  9
$ATTMODE
 70
1
  9
$TEXTSIZE
 40
2.5
  9
$TRACEWID
 40
1.0
  9
$TEXTSTYLE
  7
Standard
  9
$CLAYER
  8
0
  9
$CELTYPE
  6
ByLayer
  9
$CECOLOR
 62
256
  9
$CELTSCALE
 40
1.0
  9
$DISPSILH
 70
0
  9
$DIMSCALE
 40
1.0
  9
$DIMASZ
 40
2.5
  9
$DIMEXO
 40
0.625
  9
$DIMDLI
 40
3.75
  9
$DIMRND
 40
0.0
  9
$DIMDLE
 40
0.0
  9
$DIMEXE
 40
1.25
  9
$DIMTP
 40
0.0
  9
$DIMTM
 40
0.0
  9
$DIMTXT
 40
2.5
  9
$DIMCEN
 40
2.5
  9
$DIMTSZ
 40
0.0
  9
$DIMTOL
 70
0
  9
$DIMLIM
 70
0
  9
$DIMTIH
 70
0
  9
$DIMTOH
 70
0
  9
$DIMSE1
 70
0
  9
$DIMSE2
 70
0
  9
$DIMTAD
 70
1
  9
$DIMZIN
 70
8
  9
$DIMBLK
  1

  9
$DIMASO
 70
1
  9
$DIMSHO
 70
1
  9
$DIMPOST
  1

  9
$DIMAPOST
  1

  9
$DIMALT
 70
0
  9
$DIMALTD
 70
3
  9
$DIMALTF
 40
0.03937007874016
  9
$DIMLFAC
 40
1.0
  9
$DIMTOFL
 70
1
  9
$DIMTVP
 40
0.0
  9
$DIMTIX
 70
0
  9
$DIMSOXD
 70
0
  9
$DIMSAH
 70
0
  9
$DIMBLK1
  1

  9
$DIMBLK2
  1

  9
$DIMSTYLE
  2
ISO-25
  9
$DIMCLRD
 70
0
  9
$DIMCLRE
 70
0
  9
$DIMCLRT
 70
0
  9
$DIMTFAC
 40
1.0
  9
$DIMGAP
 40
0.625
  9
$DIMJUST
 70
0
  9
$DIMSD1
 70
0
  9
$DIMSD2
 70
0
  9
$DIMTOLJ
 70
0
  9
$DIMTZIN
 70
8
  9
$DIMALTZ
 70
0
  9
$DIMALTTZ
 70
0
  9
$DIMUPT
 70
0
  9
$DIMDEC
 70
2
  9
$DIMTDEC
 70
2
  9
$DIMALTU
 70
2
  9
$DIMALTTD
 70
3
  9
$DIMTXSTY
  7
Standard
  9
$DIMAUNIT
 70
0
  9
$DIMADEC
 70
0
  9
$DIMALTRND
 40
0.0
  9
$DIMAZIN
 70
0
  9
$DIMDSEP
 70
44
  9
$DIMATFIT
 70
3
  9
$DIMFRAC
 70
0
  9
$DIMLDRBLK
  1

  9
$DIMLUNIT
 70
2
  9
$DIMLWD
 70
-2
  9
$DIMLWE
 70
-2
  9
$DIMTMOVE
 70
0
  9
$DIMFXL
 40
1.0
  9
$DIMFXLON
 70
0
  9
$DIMJOGANG
 40
0.7853981633974483
  9
$DIMTFILL
 70
0
  9
$DIMTFILLCLR
 70
0
  9
$DIMARCSYM
 70
0
  9
$DIMLTYPE
  6

  9
$DIMLTEX1
  6

  9
$DIMLTEX2
  6

  9
$DIMTXTDIRECTION
 70
0
  9
$LUNITS
 70
2
  9
$LUPREC
 70
4
  9
$SKETCHINC
 40
1.0
  9
$FILLETRAD
 40
0.0
  9
$AUNITS
 70
0
  9
$AUPREC
 70
0
  9
$MENU
  1
.
  9
$ELEVATION
 40
0.0
  9
$PELEVATION
 40
0.0
  9
$THICKNESS
 40
0.0
  9
$LIMCHECK
 70
0
  9
$CHAMFERA
 40
0.0
  9
$CHAMFERB
 40
0.0
  9
$CHAMFERC
 40
0.0
  9
$CHAMFERD
 40
0.0
  9
$SKPOLY
 70
0
  9
$TDCREATE
 40
2461304.9063541666
  9
$TDUCREATE
 40
2461304.472858797
  9
$TDUPDATE
 40
2461304.9063541666
  9
$TDUUPDATE
 40
2461304.475648148
  9
$TDINDWG
 40
0.0027893519
  9
$TDUSRTIMER
 40
0.0027893519
  9
$USRTIMER
 70
1
  9
$ANGBASE
 50
0.0
  9
$ANGDIR
 70
0
  9
$PDMODE
 70
0
  9
$PDSIZE
 40
0.0
  9
$PLINEWID
 40
0.0
  9
$SPLFRAME
 70
0
  9
$SPLINETYPE
 70
6
  9
$SPLINESEGS
 70
8
  9
$HANDSEED
  5
4D8
  9
$SURFTAB1
 70
6
  9
$SURFTAB2
 70
6
  9
$SURFTYPE
 70
6
  9
$SURFU
 70
6
  9
$SURFV
 70
6
  9
$UCSBASE
  2

  9
$UCSNAME
  2

  9
$UCSORG
 10
0.0
 20
0.0
 30
0.0
  9
$UCSXDIR
 10
1.0
 20
0.0
 30
0.0
  9
$UCSYDIR
 10
0.0
 20
1.0
 30
0.0
  9
$UCSORTHOREF
  2

  9
$UCSORTHOVIEW
 70
0
  9
$UCSORGTOP
 10
0.0
 20
0.0
 30
0.0
  9
$UCSORGBOTTOM
 10
0.0
 20
0.0
 30
0.0
  9
$UCSORGLEFT
 10
0.0
 20
0.0
 30
0.0
  9
$UCSORGRIGHT
 10
0.0
 20
0.0
 30
0.0
  9
$UCSORGFRONT
 10
0.0
 20
0.0
 30
0.0
  9
$UCSORGBACK
 10
0.0
 20
0.0
 30
0.0
  9
$PUCSBASE
  2

  9
$PUCSNAME
  2

  9
$PUCSORG
 10
0.0
 20
0.0
 30
0.0
  9
$PUCSXDIR
 10
1.0
 20
0.0
 30
0.0
  9
$PUCSYDIR
 10
0.0
 20
1.0
 30
0.0
  9
$PUCSORTHOREF
  2

  9
$PUCSORTHOVIEW
 70
0
  9
$PUCSORGTOP
 10
0.0
 20
0.0
 30
0.0
  9
$PUCSORGBOTTOM
 10
0.0
 20
0.0
 30
0.0
  9
$PUCSORGLEFT
 10
0.0
 20
0.0
 30
0.0
  9
$PUCSORGRIGHT
 10
0.0
 20
0.0
 30
0.0
  9
$PUCSORGFRONT
 10
0.0
 20
0.0
 30
0.0
  9
$PUCSORGBACK
 10
0.0
 20
0.0
 30
0.0
  9
$USERI1
 70
0
  9
$USERI2
 70
0
  9
$USERI3
 70
0
  9
$USERI4
 70
0
  9
$USERI5
 70
0
  9
$USERR1
 40
0.0
  9
$USERR2
 40
0.0
  9
$USERR3
 40
0.0
  9
$USERR4
 40
0.0
  9
$USERR5
 40
0.0
  9
$WORLDVIEW
 70
1
  9
$SHADEDGE
 70
3
  9
$SHADEDIF
 70
70
  9
$TILEMODE
 70
1
  9
$MAXACTVP
 70
64
  9
$PINSBASE
 10
0.0
 20
0.0
 30
0.0
  9
$PLIMCHECK
 70
0
  9
$PEXTMIN
 10
0.0
 20
0.0
 30
0.0
  9
$PEXTMAX
 10
0.0
 20
0.0
 30
0.0
  9
$PLIMMIN
 10
0.0
 20
0.0
  9
$PLIMMAX
 10
12.0
 20
9.0
  9
$UNITMODE
 70
0
  9
$VISRETAIN
 70
1
  9
$PLINEGEN
 70
0
  9
$PSLTSCALE
 70
1
  9
$TREEDEPTH
 70
3020
  9
$CMLSTYLE
  2
Standard
  9
$CMLJUST
 70
0
  9
$CMLSCALE
 40
20.0
  9
$PROXYGRAPHICS
 70
1
  9
$MEASUREMENT
 70
1
  9
$CELWEIGHT
370
-1
  9
$ENDCAPS
280
0
  9
$JOINSTYLE
280
0
  9
$LWDISPLAY
290
0
  9
$INSUNITS
 70
4
  9
$HYPERLINKBASE
  1

  9
$STYLESHEET
  1

  9
$XEDIT
290
1
  9
$CEPSNTYPE
380
0
  9
$PSTYLEMODE
290
1
  9
$FINGERPRINTGUID
  2
{A453F6A8-063A-6440-A01C-2162FCFED5FB}
  9
$VERSIONGUID
  2
{13FB0541-82F6-4CB7-B703-C1267232C414}
  9
$EXTNAMES
290
1
  9
$PSVPSCALE
 40
0.0
  9
$OLESTARTUP
290
0
  9
$SORTENTS
280
127
  9
$INDEXCTL
280
0
  9
$HIDETEXT
280
1
  9
$XCLIPFRAME
280
2
  9
$HALOGAP
280
0
  9
$OBSCOLOR
 70
257
  9
$OBSLTYPE
280
0
  9
$INTERSECTIONDISPLAY
280
0
  9
$INTERSECTIONCOLOR
 70
257
  9
$DIMASSOC
280
2
  9
$PROJECTNAME
  1

  9
$CAMERADISPLAY
290
0
  9
$LENSLENGTH
 40
50.0
  9
$CAMERAHEIGHT
 40
0.0
  9
$STEPSPERSEC
 40
2.0
  9
$STEPSIZE
 40
6.0
  9
$3DDWFPREC
 40
2.0
  9
$PSOLWIDTH
 40
5.0
  9
$PSOLHEIGHT
 40
80.0
  9
$LOFTANG1
 40
1.570796326794896
  9
$LOFTANG2
 40
1.570796326794896
  9
$LOFTMAG1
 40
0.0
  9
$LOFTMAG2
 40
0.0
  9
$LOFTPARAM
 70
7
  9
$LOFTNORMALS
280
1
  9
$LATITUDE
 40
37.795
  9
$LONGITUDE
 40
-122.394
  9
$NORTHDIRECTION
 40
0.0
  9
$TIMEZONE
 70
-8000
  9
$LIGHTGLYPHDISPLAY
280
1
  9
$TILEMODELIGHTSYNCH
280
1
  9
$CMATERIAL
347
EC
  9
$SOLIDHIST
280
0
  9
$SHOWHIST
280
1
  9
$DWFFRAME
280
2
  9
$DGNFRAME
280
0
  9
$REALWORLDSCALE
290
1
  9
$INTERFERECOLOR
 62
1
  9
$INTERFEREOBJVS
345
F9
  9
$INTERFEREVPVS
346
F6
  9
$CSHADOW
280
0
  9
$SHADOWPLANELOCATION
 40
0.0
  0
ENDSEC
  0
SECTION
  2
CLASSES
  0
CLASS
  1
ACDBDICTIONARYWDFLT
  2
AcDbDictionaryWithDefault
  3
ObjectDBX Classes
 90
0
 91
1
280
0
281
0
  0
CLASS
  1
DICTIONARYVAR
  2
AcDbDictionaryVar
  3
ObjectDBX Classes
 90
0
 91
37
280
0
281
0
  0
CLASS
  1
TABLESTYLE
  2
AcDbTableStyle
  3
ObjectDBX Classes
 90
4095
 91
1
280
0
281
0
  0
CLASS
  1
MATERIAL
  2
AcDbMaterial
  3
ObjectDBX Classes
 90
1153
 91
3
280
0
281
0
  0
CLASS
  1
VISUALSTYLE
  2
AcDbVisualStyle
  3
ObjectDBX Classes
 90
4095
 91
24
280
0
281
0
  0
CLASS
  1
SCALE
  2
AcDbScale
  3
ObjectDBX Classes
 90
1153
 91
17
280
0
281
0
  0
CLASS
  1
MLEADERSTYLE
  2
AcDbMLeaderStyle
  3
ACDB_MLEADERSTYLE_CLASS
 90
4095
 91
2
280
0
281
0
  0
CLASS
  1
CELLSTYLEMAP
  2
AcDbCellStyleMap
  3
ObjectDBX Classes
 90
1152
 91
1
280
0
281
0
  0
CLASS
  1
EXACXREFPANELOBJECT
  2
ExAcXREFPanelObject
  3
EXAC_ESW
 90
1025
 91
0
280
0
281
0
  0
CLASS
  1
NPOCOLLECTION
  2
AcDbImpNonPersistentObjectsCollection
  3
ObjectDBX Classes
 90
1153
 91
0
280
0
281
0
  0
CLASS
  1
LAYER_INDEX
  2
AcDbLayerIndex
  3
ObjectDBX Classes
 90
0
 91
0
280
0
281
0
  0
CLASS
  1
SPATIAL_INDEX
  2
AcDbSpatialIndex
  3
ObjectDBX Classes
 90
0
 91
0
280
0
281
0
  0
CLASS
  1
IDBUFFER
  2
AcDbIdBuffer
  3
ObjectDBX Classes
 90
0
 91
0
280
0
281
0
  0
CLASS
  1
ACDBSECTIONVIEWSTYLE
  2
AcDbSectionViewStyle
  3
ObjectDBX Classes
 90
1025
 91
1
280
0
281
0
  0
CLASS
  1
ACDBDETAILVIEWSTYLE
  2
AcDbDetailViewStyle
  3
ObjectDBX Classes
 90
1025
 91
1
280
0
281
0
  0
CLASS
  1
IMAGE
  2
AcDbRasterImage
  3
ISM
 90
2175
 91
2
280
0
281
1
  0
CLASS
  1
IMAGEDEF_REACTOR
  2
AcDbRasterImageDefReactor
  3
ISM
 90
1
 91
2
280
0
281
0
  0
CLASS
  1
SORTENTSTABLE
  2
AcDbSortentsTable
  3
ObjectDBX Classes
 90
0
 91
1
280
0
281
0
  0
CLASS
  1
IMAGEDEF
  2
AcDbRasterImageDef
  3
ISM
 90
0
 91
1
280
0
281
0
  0
CLASS
  1
RASTERVARIABLES
  2
AcDbRasterVariables
  3
ISM
 90
0
 91
1
280
0
281
0
  0
CLASS
  1
ACAD_EVALUATION_GRAPH
  2
AcDbEvalGraph
  3
ObjectDBX Classes
 90
1153
 91
4
280
0
281
0
  0
CLASS
  1
ACAECUSTOBJ
  2
AcAeEditorObj
  3
AcAeEditorObj
 90
1024
 91
4
280
0
281
0
  0
CLASS
  1
SUN
  2
AcDbSun
  3
SCENEOE
 90
1153
 91
0
280
0
281
0
  0
CLASS
  1
MENTALRAYRENDERSETTINGS
  2
AcDbMentalRayRenderSettings
  3
SCENEOE
 90
1024
 91
0
280
0
281
0
  0
CLASS
  1
ACDBPLACEHOLDER
  2
AcDbPlaceHolder
  3
ObjectDBX Classes
 90
0
 91
0
280
0
281
0
  0
CLASS
  1
LAYOUT
  2
AcDbLayout
  3
ObjectDBX Classes
 90
0
 91
0
280
0
281
0
  0
ENDSEC
  0
SECTION
  2
TABLES
  0
TABLE
  2
VPORT
  5
8
330
0
100
AcDbSymbolTable
 70
1
  0
VPORT
  5
EA
330
8
100
AcDbSymbolTableRecord
100
AcDbViewportTableRecord
  2
*Active
 70
0
 10
0.0
 20
0.0
 11
1.0
 21
1.0
 12
2336.097577755355
 22
1593.057291267458
 13
0.0
 23
0.0
 14
10.0
 24
10.0
 15
10.0
 25
10.0
 16
0.0
 26
0.0
 36
1.0
 17
0.0
 27
0.0
 37
0.0
 40
676.4467314659071
 41
2.351715686274509
 42
50.0
 43
0.0
 44
0.0
 50
0.0
 51
0.0
 71
0
 72
1000
 73
1
 74
3
 75
0
 76
0
 77
0
 78
0
281
0
 65
1
110
0.0
120
0.0
130
0.0
111
1.0
121
0.0
131
0.0
112
0.0
122
1.0
132
0.0
 79
0
146
0.0
 60
3
 61
5
348
F5
292
1
282
1
141
0.0
142
0.0
 63
250
421
3355443
1001
ACAD_NAV_VCDISPLAY
1070
3
  0
ENDTAB
  0
TABLE
  2
LTYPE
  5
5
330
0
100
AcDbSymbolTable
 70
3
  0
LTYPE
  5
14
330
5
100
AcDbSymbolTableRecord
100
AcDbLinetypeTableRecord
  2
ByBlock
 70
0
  3

 72
65
 73
0
 40
0.0
  0
LTYPE
  5
15
330
5
100
AcDbSymbolTableRecord
100
AcDbLinetypeTableRecord
  2
ByLayer
 70
0
  3

 72
65
 73
0
 40
0.0
  0
LTYPE
  5
16
330
5
100
AcDbSymbolTableRecord
100
AcDbLinetypeTableRecord
  2
Continuous
 70
0
  3
Solid line
 72
65
 73
0
 40
0.0
  0
ENDTAB
  0
TABLE
  2
LAYER
  5
2
102
{ACAD_XDICTIONARY
360
1FF
102
}
330
0
100
AcDbSymbolTable
 70
6
  0
LAYER
  5
10
102
{ACAD_XDICTIONARY
360
13C
102
}
330
2
100
AcDbSymbolTableRecord
100
AcDbLayerTableRecord
  2
0
 70
0
 62
7
  6
Continuous
370
-3
390
F
347
EE
348
0
  0
LAYER
  5
2F8
102
{ACAD_XDICTIONARY
360
2F9
102
}
330
2
100
AcDbSymbolTableRecord
100
AcDbLayerTableRecord
  2
E_Muster
 70
0
 62
18
420
526344
  6
Continuous
370
-3
390
F
347
EE
348
0
1001
AcCmTransparency
1071
0
  0
LAYER
  5
2FA
102
{ACAD_XDICTIONARY
360
2FB
102
}
330
2
100
AcDbSymbolTableRecord
100
AcDbLayerTableRecord
  2
ET_LEGENDE - Wohnung$0$800_AL_ALLG_L
 70
0
 62
18
420
328965
  6
Continuous
370
-3
390
F
347
EE
348
0
  0
LAYER
  5
2FC
330
2
100
AcDbSymbolTableRecord
100
AcDbLayerTableRecord
  2
PDF2_Bilder
 70
0
 62
7
  6
Continuous
370
-3
390
F
347
EE
348
0
  0
LAYER
  5
2FD
330
2
100
AcDbSymbolTableRecord
100
AcDbLayerTableRecord
  2
din_SIBEL_10_emergency_lighting
 70
0
 62
114
420
2012240
  6
Continuous
370
-3
390
F
347
EE
348
0
  0
LAYER
  5
4D3
330
2
100
AcDbSymbolTableRecord
100
AcDbLayerTableRecord
  2
Defpoints
 70
0
 62
7
  6
Continuous
290
0
370
-3
390
F
347
EE
  0
ENDTAB
  0
TABLE
  2
STYLE
  5
3
330
0
100
AcDbSymbolTable
 70
6
  0
STYLE
  5
11
330
3
100
AcDbSymbolTableRecord
100
AcDbTextStyleTableRecord
  2
Standard
 70
0
 40
0.0
 41
1.0
 50
0.0
 71
0
 42
2.5
  3
arial.ttf
  4

1001
ACAD
1000
Arial
1071
34
  0
STYLE
  5
132
330
3
100
AcDbSymbolTableRecord
100
AcDbTextStyleTableRecord
  2
Beschriftung
 70
0
 40
0.0
 41
1.0
 50
0.0
 71
0
 42
2.5
  3
arial.ttf
  4

1001
AcadAnnotative
1000
AnnotativeData
1002
{
1070
1
1070
1
1002
}
1001
ACAD
1000
Arial
1071
34
  0
STYLE
  5
2FE
330
3
100
AcDbSymbolTableRecord
100
AcDbTextStyleTableRecord
  2
ET_LEGENDE - Wohnung$0$ROMANS
 70
0
 40
0.0
 41
0.6
 50
0.0
 71
0
 42
2.5
  3
romans.shx
  4

  0
STYLE
  5
2FF
330
3
100
AcDbSymbolTableRecord
100
AcDbTextStyleTableRecord
  2
ARIAL
 70
0
 40
0.0
 41
0.85
 50
0.0
 71
0
 42
0.1
  3
arial.ttf
  4

1001
ACAD
1000
Arial
1071
34
  0
STYLE
  5
300
330
3
100
AcDbSymbolTableRecord
100
AcDbTextStyleTableRecord
  2
ERSTELLTER_STIL_1
 70
0
 40
0.0
 41
1.0
 50
0.0
 71
0
 42
0.2
  3
swiss.ttf
  4

1001
ACAD
1000
Swis721 BT
1071
34
  0
STYLE
  5
301
330
3
100
AcDbSymbolTableRecord
100
AcDbTextStyleTableRecord
  2
ERSTELLTER_STIL_5
 70
0
 40
0.0
 41
1.0
 50
0.0
 71
0
 42
0.2
  3
ariali.ttf
  4

1001
ACAD
1000
Arial
1071
16777254
  0
ENDTAB
  0
TABLE
  2
VIEW
  5
6
330
0
100
AcDbSymbolTable
 70
0
  0
ENDTAB
  0
TABLE
  2
UCS
  5
7
330
0
100
AcDbSymbolTable
 70
0
  0
ENDTAB
  0
TABLE
  2
APPID
  5
9
330
0
100
AcDbSymbolTable
 70
15
  0
APPID
  5
12
330
9
100
AcDbSymbolTableRecord
100
AcDbRegAppTableRecord
  2
ACAD
 70
0
  0
APPID
  5
9E
330
9
100
AcDbSymbolTableRecord
100
AcDbRegAppTableRecord
  2
ACAD_PSEXT
 70
0
  0
APPID
  5
133
330
9
100
AcDbSymbolTableRecord
100
AcDbRegAppTableRecord
  2
AcadAnnoPO
 70
0
  0
APPID
  5
134
330
9
100
AcDbSymbolTableRecord
100
AcDbRegAppTableRecord
  2
AcadAnnotative
 70
0
  0
APPID
  5
135
330
9
100
AcDbSymbolTableRecord
100
AcDbRegAppTableRecord
  2
ACAD_DSTYLE_DIMJAG
 70
0
  0
APPID
  5
136
330
9
100
AcDbSymbolTableRecord
100
AcDbRegAppTableRecord
  2
ACAD_DSTYLE_DIMTALN
 70
0
  0
APPID
  5
165
330
9
100
AcDbSymbolTableRecord
100
AcDbRegAppTableRecord
  2
ACAD_MLEADERVER
 70
0
  0
APPID
  5
217
330
9
100
AcDbSymbolTableRecord
100
AcDbRegAppTableRecord
  2
ACAD_NAV_VCDISPLAY
 70
0
  0
APPID
  5
302
330
9
100
AcDbSymbolTableRecord
100
AcDbRegAppTableRecord
  2
AcCmTransparency
 70
0
  0
APPID
  5
303
330
9
100
AcDbSymbolTableRecord
100
AcDbRegAppTableRecord
  2
GradientColor1ACI
 70
0
  0
APPID
  5
304
330
9
100
AcDbSymbolTableRecord
100
AcDbRegAppTableRecord
  2
GradientColor2ACI
 70
0
  0
APPID
  5
305
330
9
100
AcDbSymbolTableRecord
100
AcDbRegAppTableRecord
  2
NOTBELEUCHTUNG
 70
0
  0
APPID
  5
44F
330
9
100
AcDbSymbolTableRecord
100
AcDbRegAppTableRecord
  2
ACAUTHENVIRON
 70
0
  0
APPID
  5
4D4
330
9
100
AcDbSymbolTableRecord
100
AcDbRegAppTableRecord
  2
HATCHBACKGROUNDCOLOR
 70
0
  0
APPID
  5
4D5
330
9
100
AcDbSymbolTableRecord
100
AcDbRegAppTableRecord
  2
EZDXF
 70
0
  0
ENDTAB
  0
TABLE
  2
DIMSTYLE
  5
A
330
0
100
AcDbSymbolTable
 70
3
100
AcDbDimStyleTable
  0
DIMSTYLE
105
1B0
330
A
100
AcDbSymbolTableRecord
100
AcDbDimStyleTableRecord
  2
Standard
 70
0
 40
1.0
 41
2.5
 42
0.625
 43
3.75
 44
1.25
 45
0.0
 46
0.0
 47
0.0
 48
0.0
 49
2.5
140
2.5
141
2.5
142
0.0
143
0.03937007874
144
1.0
145
0.0
146
1.0
147
0.625
148
0.0
 69
0
 70
0
 71
0
 72
0
 73
0
 74
0
 75
0
 76
0
 77
1
 78
8
 79
3
170
0
171
3
172
1
173
0
174
0
175
0
176
0
177
0
178
0
179
2
271
2
272
2
273
2
274
3
275
0
276
0
277
2
278
44
279
0
280
0
281
0
282
0
283
0
284
8
285
0
286
0
288
0
289
3
290
0
340
11
371
-2
372
-2
  0
DIMSTYLE
105
137
330
A
100
AcDbSymbolTableRecord
100
AcDbDimStyleTableRecord
  2
Beschriftung
 70
0
 40
0.0
 41
2.5
 42
0.625
 43
3.75
 44
1.25
 45
0.0
 46
0.0
 47
0.0
 48
0.0
 49
2.5
140
2.5
141
2.5
142
0.0
143
0.03937007874016
144
1.0
145
0.0
146
1.0
147
0.625
148
0.0
 69
0
 70
0
 71
0
 72
0
 73
0
 74
0
 75
0
 76
0
 77
1
 78
8
 79
3
170
0
171
3
172
1
173
0
174
0
175
0
176
0
177
0
178
0
179
2
271
2
272
2
273
2
274
3
275
0
276
0
277
2
278
44
279
0
280
0
281
0
282
0
283
0
284
8
285
0
286
0
288
0
289
3
290
0
340
11
371
-2
372
-2
1001
AcadAnnotative
1000
AnnotativeData
1002
{
1070
1
1070
1
1002
}
1001
ACAD_DSTYLE_DIMJAG
1070
388
1040
1.5
1001
ACAD_DSTYLE_DIMTALN
1070
392
1070
0
  0
DIMSTYLE
105
27
330
A
100
AcDbSymbolTableRecord
100
AcDbDimStyleTableRecord
  2
ISO-25
 70
0
 40
1.0
 41
2.5
 42
0.625
 43
3.75
 44
1.25
 45
0.0
 46
0.0
 47
0.0
 48
0.0
 49
2.5
140
2.5
141
2.5
142
0.0
143
0.03937007874016
144
1.0
145
0.0
146
1.0
147
0.625
148
0.0
 69
0
 70
0
 71
0
 72
0
 73
0
 74
0
 75
0
 76
0
 77
1
 78
8
 79
3
170
0
171
3
172
1
173
0
174
0
175
0
176
0
177
0
178
0
179
2
271
2
272
2
273
2
274
3
275
0
276
0
277
2
278
44
279
0
280
0
281
0
282
0
283
0
284
8
285
0
286
0
288
0
289
3
290
0
340
11
371
-2
372
-2
  0
ENDTAB
  0
TABLE
  2
BLOCK_RECORD
  5
1
330
0
100
AcDbSymbolTable
 70
14
  0
BLOCK_RECORD
  5
1F
102
{ACAD_XDICTIONARY
360
1CE
102
}
330
1
100
AcDbSymbolTableRecord
100
AcDbBlockTableRecord
  2
*Model_Space
340
22
 70
0
280
1
281
0
  0
BLOCK_RECORD
  5
D2
330
1
100
AcDbSymbolTableRecord
100
AcDbBlockTableRecord
  2
*Paper_Space
340
D3
 70
0
280
1
281
0
  0
BLOCK_RECORD
  5
D6
330
1
100
AcDbSymbolTableRecord
100
AcDbBlockTableRecord
  2
*Paper_Space0
340
D7
 70
0
280
1
281
0
  0
BLOCK_RECORD
  5
2CE
330
1
100
AcDbSymbolTableRecord
100
AcDbBlockTableRecord
  2
Sicherheitsleuchte Aufheller
340
0
 70
4
280
1
281
0
  0
BLOCK_RECORD
  5
2D3
330
1
100
AcDbSymbolTableRecord
100
AcDbBlockTableRecord
  2
Aufheller Notbeleuchtung
340
0
 70
4
280
1
281
0
  0
BLOCK_RECORD
  5
2D7
330
1
100
AcDbSymbolTableRecord
100
AcDbBlockTableRecord
  2
Spot Notbeleuchtung
340
0
 70
0
280
1
281
0
  0
BLOCK_RECORD
  5
2DF
330
1
100
AcDbSymbolTableRecord
100
AcDbBlockTableRecord
  2
Gruppenbatterie-Verteiler
340
0
 70
4
280
1
281
0
  0
BLOCK_RECORD
  5
2E6
330
1
100
AcDbSymbolTableRecord
100
AcDbBlockTableRecord
  2
9809550
340
0
 70
4
280
1
281
0
  0
BLOCK_RECORD
  5
2EE
330
1
100
AcDbSymbolTableRecord
100
AcDbBlockTableRecord
  2
595995
340
0
 70
4
280
1
281
0
  0
BLOCK_RECORD
  5
2F3
330
1
100
AcDbSymbolTableRecord
100
AcDbBlockTableRecord
  2
Antipanikleuchte-RIVO
340
0
 70
4
280
1
281
1
  0
BLOCK_RECORD
  5
434
330
1
100
AcDbSymbolTableRecord
100
AcDbBlockTableRecord
  2
RIVO_NL_ARR_down
340
0
 70
4
280
1
281
1
  0
BLOCK_RECORD
  5
453
330
1
100
AcDbSymbolTableRecord
100
AcDbBlockTableRecord
  2
RIVO_NL_ARR_left
340
0
 70
4
280
1
281
1
  0
BLOCK_RECORD
  5
471
330
1
100
AcDbSymbolTableRecord
100
AcDbBlockTableRecord
  2
RIVO_NL_ARR_right
340
0
 70
4
280
1
281
1
  0
BLOCK_RECORD
  5
48F
330
1
100
AcDbSymbolTableRecord
100
AcDbBlockTableRecord
  2
RIVO_NL_ARR_bothsided
340
0
 70
4
280
1
281
1
  0
ENDTAB
  0
ENDSEC
  0
SECTION
  2
BLOCKS
  0
BLOCK
  5
20
330
1F
100
AcDbEntity
  8
0
100
AcDbBlockBegin
  2
*Model_Space
 70
0
 10
0.0
 20
0.0
 30
0.0
  3
*Model_Space
  1

  0
ENDBLK
  5
21
330
1F
100
AcDbEntity
  8
0
100
AcDbBlockEnd
  0
BLOCK
  5
D4
330
D2
100
AcDbEntity
 67
1
  8
0
100
AcDbBlockBegin
  2
*Paper_Space
 70
0
 10
0.0
 20
0.0
 30
0.0
  3
*Paper_Space
  1

  0
ENDBLK
  5
D5
330
D2
100
AcDbEntity
 67
1
  8
0
100
AcDbBlockEnd
  0
BLOCK
  5
D8
330
D6
100
AcDbEntity
 67
1
  8
0
100
AcDbBlockBegin
  2
*Paper_Space0
 70
0
 10
0.0
 20
0.0
 30
0.0
  3
*Paper_Space0
  1

  0
ENDBLK
  5
D9
330
D6
100
AcDbEntity
 67
1
  8
0
100
AcDbBlockEnd
  0
BLOCK
  5
2CF
330
2CE
100
AcDbEntity
  8
0
100
AcDbBlockBegin
  2
Sicherheitsleuchte Aufheller
 70
0
 10
0.0
 20
0.0
 30
0.0
  3
Sicherheitsleuchte Aufheller
  1

  0
HATCH
  5
2D0
330
2CE
100
AcDbEntity
  8
0
 62
150
100
AcDbHatch
 10
0.0
 20
0.0
 30
0.0
210
0.0
220
0.0
230
1.0
  2
SOLID
 70
1
 71
1
 91
1
 92
7
 72
1
 73
1
 93
2
 10
3205.290883213278
 20
2752.989191377652
 42
1.0
 10
3209.989605263637
 20
2752.989191377652
 42
1.0
 97
1
330
2D1
 75
0
 76
1
 47
0.0808169624910983
 98
1
 10
3208.928115465882
 20
2754.363104672258
450
1
451
0
460
0.0
461
0.0
452
0
462
1.0
453
2
463
0
 63
3
421
65280
463
1
 63
7
421
16777215
470
CYLINDER
1001
GradientColor1ACI
1070
3
1001
ACAD
1010
0.0
1020
0.0
1030
0.0
  0
CIRCLE
  5
2D1
102
{ACAD_REACTORS
330
2D0
102
}
330
2CE
100
AcDbEntity
  8
0
 62
3
100
AcDbCircle
 10
3207.640244238457
 20
2752.989191377652
 30
0.0
 40
2.349361025179208
  0
ENDBLK
  5
2D2
330
2CE
100
AcDbEntity
  8
0
100
AcDbBlockEnd
  0
BLOCK
  5
2D4
330
2D3
100
AcDbEntity
  8
0
100
AcDbBlockBegin
  2
Aufheller Notbeleuchtung
 70
0
 10
0.0
 20
0.0
 30
0.0
  3
Aufheller Notbeleuchtung
  1

  0
INSERT
  5
2D5
330
2D3
100
AcDbEntity
  8
0
 62
150
100
AcDbBlockReference
  2
Sicherheitsleuchte Aufheller
 10
578.778360592339
 20
401.8133286832465
 30
0.0
 41
0.3936036498448924
 42
0.3936036498448924
 43
0.3936036498448924
  0
ENDBLK
  5
2D6
330
2D3
100
AcDbEntity
  8
0
100
AcDbBlockEnd
  0
BLOCK
  5
2D8
330
2D7
100
AcDbEntity
  8
0
100
AcDbBlockBegin
  2
Spot Notbeleuchtung
 70
0
 10
0.0
 20
0.0
 30
0.0
  3
Spot Notbeleuchtung
  1

  0
CIRCLE
  5
2D9
330
2D7
100
AcDbEntity
  8
0
 62
3
100
AcDbCircle
 10
0.0
 20
0.0
 30
0.0
 40
0.89
  0
LINE
  5
2DA
330
2D7
100
AcDbEntity
  8
0
 62
3
100
AcDbLine
 10
-0.6293250352560272
 20
0.6293250352560272
 30
0.0
 11
0.6293250352560272
 21
-0.6293250352560272
 31
0.0
  0
LINE
  5
2DB
330
2D7
100
AcDbEntity
  8
0
 62
3
100
AcDbLine
 10
-0.6293250352560272
 20
-0.6293250352560272
 30
0.0
 11
0.6293250352560272
 21
0.6293250352560272
 31
0.0
  0
HATCH
  5
2DC
330
2D7
100
AcDbEntity
  8
0
 62
3
100
AcDbHatch
 10
0.0
 20
0.0
 30
0.0
210
0.0
220
0.0
230
1.0
  2
SOLID
 70
1
 71
0
 91
1
 92
1
 93
3
 72
1
 10
0.0
 20
0.0
 11
-0.6293250352560272
 21
0.6293250352560273
 72
2
 10
0.0
 20
0.0
 40
0.89
 50
135.0
 51
225.0
 73
1
 72
1
 10
-0.6293250352560275
 20
-0.6293250352560272
 11
0.0
 21
0.0
 97
0
 75
0
 76
1
 98
0
450
0
451
0
460
0.0
461
0.0
452
0
462
0.0
453
0
470

  0
HATCH
  5
2DD
330
2D7
100
AcDbEntity
  8
0
 62
3
100
AcDbHatch
 10
0.0
 20
0.0
 30
0.0
210
0.0
220
0.0
230
1.0
  2
SOLID
 70
1
 71
0
 91
1
 92
1
 93
3
 72
1
 10
0.0
 20
0.0
 11
0.6293250352560272
 21
-0.6293250352560275
 72
2
 10
0.0
 20
0.0
 40
0.89
 50
315.0
 51
405.0
 73
1
 72
1
 10
0.6293250352560273
 20
0.6293250352560273
 11
0.0
 21
0.0
 97
0
 75
0
 76
1
 98
0
450
0
451
0
460
0.0
461
0.0
452
0
462
0.0
453
0
470

  0
ENDBLK
  5
2DE
330
2D7
100
AcDbEntity
  8
0
100
AcDbBlockEnd
  0
BLOCK
  5
2E0
330
2DF
100
AcDbEntity
  8
0
100
AcDbBlockBegin
  2
Gruppenbatterie-Verteiler
 70
0
 10
0.0
 20
0.0
 30
0.0
  3
Gruppenbatterie-Verteiler
  1

  0
HATCH
  5
2E1
330
2DF
100
AcDbEntity
  8
0
100
AcDbHatch
 10
0.0
 20
0.0
 30
0.0
210
0.0
220
0.0
230
1.0
  2
SOLID
 70
1
 71
1
 91
1
 92
7
 72
0
 73
1
 93
3
 10
2108.281156583084
 20
646.1972045877128
 10
2091.243555703536
 20
646.1972045877128
 10
2091.243555703536
 20
636.9300981426662
 97
2
330
2E3
330
2E4
 75
0
 76
1
 47
0.1436537353859981
 98
1
 10
2098.133590011403
 20
642.6498180239977
450
1
451
0
460
0.0
461
0.0
452
0
462
1.0
453
2
463
0
 63
3
421
65280
463
1
 63
3
421
65280
470
LINEAR
1001
ACAD
1010
0.0
1020
0.0
1030
0.0
1001
GradientColor1ACI
1070
3
1001
GradientColor2ACI
1070
3
  0
HATCH
  5
2E2
330
2DF
100
AcDbEntity
  8
0
100
AcDbHatch
 10
0.0
 20
0.0
 30
0.0
210
0.0
220
0.0
230
1.0
  2
SOLID
 70
1
 71
1
 91
1
 92
7
 72
0
 73
1
 93
3
 10
2108.281156583084
 20
636.9300981426662
 10
2108.281156583084
 20
646.1972045877128
 10
2091.243555703536
 20
636.9300981426662
 97
2
330
2E4
330
2E3
 75
0
 76
1
 47
0.0920672418592888
 98
1
 10
2104.805640148446
 20
640.1726906069034
450
1
451
0
460
0.0
461
0.0
452
0
462
1.0
453
2
463
0
 63
7
421
16777215
463
1
 63
7
421
16777215
470
LINEAR
1001
ACAD
1010
0.0
1020
0.0
1030
0.0
1001
GradientColor1ACI
1070
7
1001
GradientColor2ACI
1070
7
  0
LWPOLYLINE
  5
2E3
102
{ACAD_REACTORS
330
2E1
330
2E2
102
}
330
2DF
100
AcDbEntity
  8
0
100
AcDbPolyline
 90
4
 70
1
 10
2091.243555703536
 20
646.1972045877128
 10
2108.281156583084
 20
646.1972045877128
 10
2108.281156583084
 20
636.9300981426662
 10
2091.243555703536
 20
636.9300981426662
  0
LWPOLYLINE
  5
2E4
102
{ACAD_REACTORS
330
2E1
330
2E2
102
}
330
2DF
100
AcDbEntity
  8
0
100
AcDbPolyline
 90
2
 70
0
 10
2091.243555703536
 20
636.9300981426662
 10
2108.281156583084
 20
646.1972045877128
  0
ENDBLK
  5
2E5
330
2DF
100
AcDbEntity
  8
0
100
AcDbBlockEnd
  0
BLOCK
  5
2E7
330
2E6
100
AcDbEntity
  8
0
100
AcDbBlockBegin
  2
9809550
 70
0
 10
0.0
 20
0.0
 30
0.0
  3
9809550
  1

  0
ARC
  5
2E8
330
2E6
100
AcDbEntity
  8
0
 62
18
370
30
420
0
100
AcDbCircle
 10
423921.7279072046
 20
99159.54818216644
 30
0.0
 40
9.273177569722824
100
AcDbArc
 50
89.98490324737708
 51
270.015096755958
  0
ARC
  5
2E9
330
2E6
100
AcDbEntity
  8
0
 62
18
370
30
420
0
100
AcDbCircle
 10
424047.8264640214
 20
99173.07281874938
 30
0.0
 40
7.955622081691178
100
AcDbArc
 50
195.7299088859814
 51
41.40046951771309
  0
CIRCLE
  5
2EA
330
2E6
100
AcDbEntity
  8
0
 62
18
370
30
420
0
100
AcDbCircle
 10
423963.5976282825
 20
99225.86057360836
 30
0.0
 40
18.07717008724546
  0
LWPOLYLINE
  5
2EB
330
2E6
100
AcDbEntity
  8
0
 62
18
370
30
420
0
100
AcDbPolyline
 90
6
 70
0
 10
423921.730350576
 20
99168.82135941429
 10
423956.8165810243
 20
99168.82135941436
 10
423956.8165810243
 20
99202.94546264577
 10
423984.5160052232
 20
99214.53093360383
 10
424033.6872253758
 20
99214.53093360383
 10
424053.7940210975
 20
99178.33401493014
  0
LWPOLYLINE
  5
2EC
330
2E6
100
AcDbEntity
  8
0
 62
18
370
30
420
0
100
AcDbPolyline
 90
17
 70
0
 10
424040.1687771266
 20
99170.91602619443
 10
424025.1952884025
 20
99196.66274414075
 10
423999.7408432471
 20
99196.78325309213
 10
424026.1768660309
 20
99150.32250264566
 10
424026.1768660313
 20
99110.89889438283
 10
424070.2204870363
 20
99110.89889438287
 10
424070.2204870365
 20
99092.32109907902
 10
424007.4800382449
 20
99092.32109907907
 10
424007.4800382454
 20
99131.68227519275
 10
423974.9558327221
 20
99113.10842677097
 10
423974.9558327222
 20
99066.98977539832
 10
423956.5226656634
 20
99066.98977539835
 10
423956.5226656637
 20
99122.44282998168
 10
423990.5370362563
 20
99141.86778904135
 10
423975.1190045932
 20
99168.78835207973
 10
423975.1190045935
 20
99150.21110900998
 10
423921.7303505764
 20
99150.27500491863
  0
ENDBLK
  5
2ED
330
2E6
100
AcDbEntity
  8
0
100
AcDbBlockEnd
  0
BLOCK
  5
2EF
330
2EE
100
AcDbEntity
  8
0
100
AcDbBlockBegin
  2
595995
 70
0
 10
0.0
 20
0.0
 30
0.0
  3
595995
  1

  0
HATCH
  5
2F0
330
2EE
100
AcDbEntity
  8
0
 62
7
100
AcDbHatch
 10
0.0
 20
0.0
 30
0.0
210
0.0
220
0.0
230
1.0
  2
SOLID
 70
1
 71
1
 91
1
 92
7
 72
0
 73
1
 93
7
 10
423732.4020750373
 20
99468.89014849553
 10
423791.4839671721
 20
99424.83250939533
 10
423791.4839671717
 20
99458.77679543752
 10
423902.759847506
 20
99458.77679543773
 10
423902.610907668
 20
99477.23087411793
 10
423791.8078523135
 20
99477.2308741178
 10
423791.8078523132
 20
99513.56119898683
 97
1
330
2F1
 75
0
 76
1
 47
0.3670868017068973
 98
1
 10
423767.7131882455
 20
99472.09674797636
450
0
451
0
460
0.0
461
0.0
452
1
462
0.0
453
2
463
0
 63
7
421
16777215
463
1
 63
18
421
4980736
470
CYLINDER
1001
GradientColor1ACI
1070
7
1001
ACAD
1010
0.0
1020
0.0
1030
0.0
  0
LWPOLYLINE
  5
2F1
102
{ACAD_REACTORS
330
2F0
102
}
330
2EE
100
AcDbEntity
  8
0
 62
18
370
30
420
0
100
AcDbPolyline
 90
8
 70
0
 10
423902.6109076681
 20
99477.23087411793
 10
423791.8078523135
 20
99477.2308741178
 10
423791.8078523132
 20
99513.56119898683
 10
423732.4020750373
 20
99468.89014849553
 10
423791.4839671721
 20
99424.83250939533
 10
423791.4839671717
 20
99458.77679543752
 10
423902.759847506
 20
99458.77679543773
 10
423902.610907668
 20
99477.23087411793
  0
ENDBLK
  5
2F2
330
2EE
100
AcDbEntity
  8
0
100
AcDbBlockEnd
  0
BLOCK
  5
2F4
330
2F3
100
AcDbEntity
  8
0
100
AcDbBlockBegin
  2
Antipanikleuchte-RIVO
 70
0
 10
0.0
 20
0.0
 30
0.0
  3
Antipanikleuchte-RIVO
  1

  0
HATCH
  5
2F5
330
2F3
100
AcDbEntity
  8
0
100
AcDbHatch
 10
0.0
 20
0.0
 30
0.0
210
0.0
220
0.0
230
1.0
  2
SOLID,_O
 70
1
 71
1
 91
1
 92
7
 72
0
 73
1
 93
4
 10
3719.928379828722
 20
1926.171465544874
 10
3719.928379828722
 20
1922.869184447682
 10
3731.65439549456
 20
1922.869184447682
 10
3731.65439549456
 20
1926.171465544874
 97
1
330
2F6
 75
1
 76
1
 47
0.0277057405817925
 98
1
 10
3722.624736845508
 20
1924.714920807433
450
1
451
0
460
0.0
461
0.0
452
0
462
0.0
453
2
463
0
 63
3
421
65280
463
1
 63
7
421
16777215
470
SPHERICAL
1001
ACAD
1010
0.0
1020
0.0
1030
0.0
1001
GradientColor1ACI
1070
3
  0
LWPOLYLINE
  5
2F6
102
{ACAD_REACTORS
330
2F5
102
}
330
2F3
100
AcDbEntity
  8
0
 62
3
100
AcDbPolyline
 90
4
 70
1
 10
3719.928379828722
 20
1926.171465544874
 10
3731.65439549456
 20
1926.171465544874
 10
3731.65439549456
 20
1922.869184447682
 10
3719.928379828722
 20
1922.869184447682
  0
ENDBLK
  5
2F7
330
2F3
100
AcDbEntity
  8
0
100
AcDbBlockEnd
  0
BLOCK
  5
435
330
434
100
AcDbEntity
  8
0
100
AcDbBlockBegin
  2
RIVO_NL_ARR_down
 70
0
 10
0.0
 20
0.0
 30
0.0
  3
RIVO_NL_ARR_down
  1

  0
HATCH
  5
437
330
434
100
AcDbEntity
  8
0
 62
7
100
AcDbHatch
 10
0.0
 20
0.0
 30
0.0
210
0.0
220
0.0
230
1.0
  2
SOLID
 70
1
 71
1
 91
2
 92
7
 72
0
 73
1
 93
4
 10
2312.427627619776
 20
1732.351217451392
 10
2309.18524631173
 20
1732.351217451385
 10
2309.185246311738
 20
1727.000916299175
 10
2312.427627619787
 20
1727.000916299181
 97
1
330
43C
 92
7
 72
0
 73
1
 93
4
 10
2325.28182629691
 20
1725.179904262881
 10
2325.281826296901
 20
1726.088253283335
 10
2309.185246311732
 20
1726.088253283303
 10
2309.185246311741
 20
1725.17990426285
 97
1
330
439
 75
0
 76
1
 47
0.9388849026749939
 98
2
 10
2311.258222422902
 20
1730.937470277379
 10
2314.675840268397
 20
1725.364100392648
450
0
451
0
460
0.0
461
0.0
452
1
462
0.0
453
2
463
0
 63
7
421
16777215
463
1
 63
18
421
4980736
470
CYLINDER
1001
GradientColor1ACI
1070
7
1001
ACAD
1010
0.0
1020
0.0
1030
0.0
  0
HATCH
  5
438
330
434
100
AcDbEntity
  8
0
 62
100
100
AcDbHatch
 10
0.0
 20
0.0
 30
0.0
210
0.0
220
0.0
230
1.0
  2
SOLID
 70
1
 71
1
 91
5
 92
7
 72
0
 73
1
 93
4
 10
2308.524211096427
 20
1733.569687851195
 10
2308.524211096447
 20
1724.736999863993
 10
2326.189587953692
 20
1724.736999864034
 10
2326.189587953672
 20
1733.569687851236
 97
1
330
43E
 92
22
 72
0
 73
1
 93
7
 10
2315.556287475083
 20
1732.860119486269
 10
2316.259437096334
 20
1732.865794491371
 10
2316.259437096345
 20
1728.625886638625
 10
2317.552804935932
 20
1728.625886638643
 10
2315.874091368958
 20
1726.37470895607
 10
2314.172005191794
 20
1728.638227526434
 10
2315.556287475091
 20
1728.638227526437
 97
1
330
43B
 92
22
 72
0
 73
1
 93
4
 10
2312.427627619776
 20
1732.351217451392
 10
2312.427627619787
 20
1727.000916299181
 10
2309.185246311738
 20
1727.000916299175
 10
2309.18524631173
 20
1732.351217451385
 97
1
330
43C
 92
22
 72
1
 73
1
 93
27
 10
2319.623769830694
 20
1730.161438936794
 42
0.0
 10
2320.9608349952
 20
1730.161438936797
 42
0.0
 10
2320.960834995201
 20
1731.46165829093
 42
0.0
 10
2321.484990293511
 20
1731.699339772962
 42
-0.5356193210535847
 10
2320.530422584669
 20
1732.334785141285
 42
-1.0
 10
2321.907999381691
 20
1732.334785141285
 42
-0.3024061188731364
 10
2321.484990293511
 20
1731.699339772962
 42
0.0
 10
2322.016256941308
 20
1731.903095636968
 42
0.0
 10
2323.889811586103
 20
1731.903095636968
 42
0.0
 10
2324.655934135026
 20
1730.523896485535
 42
-1.253469672270663
 10
2324.136775996381
 20
1730.241251328356
 42
0.0
 10
2323.566246136434
 20
1731.222269957663
 42
0.0
 10
2322.596363880029
 20
1731.22686167015
 42
0.0
 10
2323.603646862292
 20
1729.456583150936
 42
0.0
 10
2323.603646862302
 20
1727.954438519457
 42
0.0
 10
2325.281826302462
 20
1727.954438519458
 42
0.0
 10
2325.281826302469
 20
1727.246574964851
 42
0.0
 10
2322.891247852611
 20
1727.246574964853
 42
0.0
 10
2322.891247852627
 20
1728.74634076492
 42
0.0
 10
2321.651988868667
 20
1728.038627597046
 42
0.0
 10
2321.651988868671
 20
1726.281383965044
 42
0.0
 10
2320.949636035974
 20
1726.281383965045
 42
0.0
 10
2320.949636035983
 20
1728.39429325752
 42
0.0
 10
2322.245674283886
 20
1729.13443601091
 42
0.0
 10
2321.658206152191
 20
1730.160181269306
 42
0.0
 10
2321.658206152204
 20
1729.45233875629
 42
0.0
 10
2319.623956027941
 20
1729.454773360842
 42
-0.9999999999999998
 97
1
330
440
 92
22
 72
0
 73
1
 93
4
 10
2325.281826296901
 20
1726.088253283335
 10
2325.28182629691
 20
1725.179904262881
 10
2309.185246311741
 20
1725.17990426285
 10
2309.185246311732
 20
1726.088253283303
 97
1
330
439
 75
0
 76
1
 47
0.5133779795246447
 98
6
 10
2314.569450787545
 20
1732.520900250753
 10
2314.569450787545
 20
1732.520900250753
 10
2314.569450787545
 20
1732.520900250753
 10
2314.569450787545
 20
1732.520900250753
 10
2314.569450787545
 20
1732.520900250753
 10
2314.569450787545
 20
1732.520900250753
450
0
451
0
460
0.0
461
0.0
452
1
462
0.0
453
2
463
0
 63
7
421
16777215
463
1
 63
18
421
4980736
470
CYLINDER
1001
GradientColor1ACI
1070
7
1001
ACAD
1010
0.0
1020
0.0
1030
0.0
  0
LWPOLYLINE
  5
439
102
{ACAD_REACTORS
330
437
330
438
102
}
330
434
100
AcDbEntity
  8
0
 62
18
370
30
420
0
100
AcDbPolyline
 90
4
 70
1
 10
2325.281826296901
 20
1726.088253283335
 10
2309.185246311732
 20
1726.088253283303
 10
2309.185246311741
 20
1725.17990426285
 10
2325.28182629691
 20
1725.179904262881
  0
HATCH
  5
43A
330
434
100
AcDbEntity
  8
0
100
AcDbHatch
 10
0.0
 20
0.0
 30
0.0
210
0.0
220
0.0
230
1.0
  2
SOLID
 70
1
 71
1
 91
1
 92
7
 72
0
 73
1
 93
7
 10
2315.556287475091
 20
1728.638227526437
 10
2314.172005191794
 20
1728.638227526434
 10
2315.874091368958
 20
1726.37470895607
 10
2317.552804935932
 20
1728.625886638643
 10
2316.259437096345
 20
1728.625886638625
 10
2316.259437096334
 20
1732.865794491371
 10
2315.556287475083
 20
1732.860119486269
 97
1
330
43B
 75
0
 76
1
 47
0.3670868017068973
 98
1
 10
2315.751911375608
 20
1727.969349637971
450
0
451
0
460
0.0
461
0.0
452
1
462
0.0
453
2
463
0
 63
7
421
16777215
463
1
 63
18
421
4980736
470
CYLINDER
1001
GradientColor1ACI
1070
7
1001
ACAD
1010
0.0
1020
0.0
1030
0.0
  0
LWPOLYLINE
  5
43B
102
{ACAD_REACTORS
330
438
330
43A
102
}
330
434
100
AcDbEntity
  8
0
 62
18
370
30
420
0
100
AcDbPolyline
 90
8
 70
0
 10
2315.556287475083
 20
1732.860119486273
 10
2315.556287475091
 20
1728.638227526437
 10
2314.172005191794
 20
1728.638227526434
 10
2315.874091368958
 20
1726.37470895607
 10
2317.552804935932
 20
1728.625886638643
 10
2316.259437096345
 20
1728.625886638625
 10
2316.259437096334
 20
1732.865794491371
 10
2315.556287475081
 20
1732.860119486269
  0
LWPOLYLINE
  5
43C
102
{ACAD_REACTORS
330
437
330
438
102
}
330
434
100
AcDbEntity
  8
0
 62
18
370
30
420
0
100
AcDbPolyline
 90
4
 70
1
 10
2312.427627619776
 20
1732.351217451392
 10
2309.18524631173
 20
1732.351217451385
 10
2309.185246311738
 20
1727.000916299175
 10
2312.427627619787
 20
1727.000916299181
  0
CIRCLE
  5
43D
330
434
100
AcDbEntity
  8
0
 62
18
370
30
420
0
100
AcDbCircle
 10
2309.551028449927
 20
1729.683640601064
 30
0.0
 40
0.1904826859103959
  0
LWPOLYLINE
  5
43E
102
{ACAD_REACTORS
330
438
102
}
330
434
100
AcDbEntity
  8
0
100
AcDbPolyline
 90
4
 70
1
 10
2308.524211096427
 20
1733.569687851195
 10
2326.189587953672
 20
1733.569687851236
 10
2326.189587953692
 20
1724.736999864034
 10
2308.524211096447
 20
1724.736999863993
  0
HATCH
  5
43F
330
434
100
AcDbEntity
  8
0
100
AcDbHatch
 10
0.0
 20
0.0
 30
0.0
210
0.0
220
0.0
230
1.0
  2
SOLID
 70
1
 71
1
 91
2
 92
7
 72
1
 73
1
 93
23
 10
2322.596363880029
 20
1731.22686167015
 42
0.0
 10
2323.566246136434
 20
1731.222269957663
 42
0.0
 10
2324.136775996381
 20
1730.241251328356
 42
1.253469672270657
 10
2324.655934135026
 20
1730.523896485535
 42
0.0
 10
2323.889811586103
 20
1731.903095636968
 42
0.0
 10
2322.016256941308
 20
1731.903095636968
 42
0.0
 10
2320.960834995201
 20
1731.46165829093
 42
0.0
 10
2320.9608349952
 20
1730.161438936797
 42
0.0
 10
2319.623769830694
 20
1730.161438936794
 42
1.0
 10
2319.623956027941
 20
1729.454773360842
 42
0.0
 10
2321.658206152204
 20
1729.45233875629
 42
0.0
 10
2321.658206152191
 20
1730.160181269306
 42
0.0
 10
2322.245674283886
 20
1729.13443601091
 42
0.0
 10
2320.949636035983
 20
1728.39429325752
 42
0.0
 10
2320.949636035974
 20
1726.281383965045
 42
0.0
 10
2321.651988868671
 20
1726.281383965044
 42
0.0
 10
2321.651988868667
 20
1728.038627597046
 42
0.0
 10
2322.891247852627
 20
1728.74634076492
 42
0.0
 10
2322.891247852611
 20
1727.246574964853
 42
0.0
 10
2325.281826302469
 20
1727.246574964851
 42
0.0
 10
2325.281826302462
 20
1727.954438519458
 42
0.0
 10
2323.603646862302
 20
1727.954438519457
 42
0.0
 10
2323.603646862292
 20
1729.456583150936
 42
0.0
 97
1
330
440
 92
7
 72
1
 73
1
 93
2
 10
2320.530422584669
 20
1732.334785141285
 42
1.0
 10
2321.907999381691
 20
1732.334785141285
 42
1.0
 97
1
330
440
 75
0
 76
1
 47
0.7986346847377253
 98
2
 10
2322.289977584221
 20
1730.867341682608
 10
2321.619784118393
 20
1732.510459629426
450
0
451
0
460
0.0
461
0.0
452
1
462
0.0
453
2
463
0
 63
7
421
16777215
463
1
 63
18
421
4980736
470
CYLINDER
1001
GradientColor1ACI
1070
7
1001
ACAD
1010
0.0
1020
0.0
1030
0.0
  0
INSERT
  5
440
102
{ACAD_REACTORS
330
438
330
43F
102
}
330
434
100
AcDbEntity
  8
0
100
AcDbBlockReference
  2
9809550
 10
-13832.92471906548
 20
-2048.435173071939
 30
0.0
 41
0.0381026673526157
 42
0.0381026673526157
 43
0.0381026673526157
  0
ENDBLK
  5
436
330
434
100
AcDbEntity
  8
0
100
AcDbBlockEnd
  0
BLOCK
  5
454
330
453
100
AcDbEntity
  8
0
100
AcDbBlockBegin
  2
RIVO_NL_ARR_left
 70
0
 10
0.0
 20
0.0
 30
0.0
  3
RIVO_NL_ARR_left
  1

  0
HATCH
  5
456
330
453
100
AcDbEntity
  8
0
 62
7
100
AcDbHatch
 10
0.0
 20
0.0
 30
0.0
210
0.0
220
0.0
230
1.0
  2
SOLID
 70
1
 71
1
 91
2
 92
7
 72
0
 73
1
 93
4
 10
2312.427627619802
 20
1720.528258717494
 10
2309.185246311756
 20
1720.528258717488
 10
2309.185246311766
 20
1715.177957565277
 10
2312.427627619813
 20
1715.177957565284
 97
1
330
45B
 92
7
 72
0
 73
1
 93
4
 10
2325.281826296937
 20
1713.356945528984
 10
2325.281826296927
 20
1714.265294549438
 10
2309.185246311759
 20
1714.265294549406
 10
2309.185246311768
 20
1713.356945528952
 97
1
330
458
 75
0
 76
1
 47
0.9388849026749939
 98
2
 10
2311.258222422928
 20
1719.114511543482
 10
2314.675840268424
 20
1713.541141658751
450
0
451
0
460
0.0
461
0.0
452
1
462
0.0
453
2
463
0
 63
7
421
16777215
463
1
 63
18
421
4980736
470
CYLINDER
1001
GradientColor1ACI
1070
7
1001
ACAD
1010
0.0
1020
0.0
1030
0.0
  0
HATCH
  5
457
330
453
100
AcDbEntity
  8
0
 62
100
100
AcDbHatch
 10
0.0
 20
0.0
 30
0.0
210
0.0
220
0.0
230
1.0
  2
SOLID
 70
1
 71
1
 91
5
 92
7
 72
0
 73
1
 93
4
 10
2308.524211096454
 20
1721.746729117298
 10
2308.524211096474
 20
1712.914041130096
 10
2326.189587953719
 20
1712.914041130136
 10
2326.189587953699
 20
1721.746729117338
 97
1
330
45D
 92
22
 72
0
 73
1
 93
7
 10
2314.759652397446
 20
1719.728590799004
 10
2314.75965239745
 20
1718.344308515707
 10
2318.981544357281
 20
1718.344308515715
 10
2318.987219362382
 20
1717.641158894464
 10
2314.747311509638
 20
1717.641158894453
 10
2314.747311509656
 20
1716.347791054866
 10
2312.496133827082
 20
1718.026504621839
 97
1
330
45A
 92
22
 72
0
 73
1
 93
4
 10
2312.427627619802
 20
1720.528258717494
 10
2312.427627619813
 20
1715.177957565284
 10
2309.185246311766
 20
1715.177957565277
 10
2309.185246311756
 20
1720.528258717488
 97
1
330
45B
 92
22
 72
1
 73
1
 93
27
 10
2319.623769830727
 20
1718.338480202896
 42
0.0
 10
2320.960834995231
 20
1718.338480202899
 42
0.0
 10
2320.960834995232
 20
1719.638699557033
 42
0.0
 10
2321.484990293542
 20
1719.876381039065
 42
-0.5356193210535847
 10
2320.530422584699
 20
1720.511826407388
 42
-1.0
 10
2321.907999381721
 20
1720.511826407388
 42
-0.3024061188731364
 10
2321.484990293542
 20
1719.876381039065
 42
0.0
 10
2322.016256941338
 20
1720.080136903071
 42
0.0
 10
2323.889811586134
 20
1720.080136903071
 42
0.0
 10
2324.655934135057
 20
1718.700937751638
 42
-1.253469672270663
 10
2324.136775996411
 20
1718.418292594458
 42
0.0
 10
2323.566246136465
 20
1719.399311223765
 42
0.0
 10
2322.596363880061
 20
1719.403902936253
 42
0.0
 10
2323.603646862323
 20
1717.633624417038
 42
0.0
 10
2323.603646862333
 20
1716.13147978556
 42
0.0
 10
2325.281826302493
 20
1716.131479785561
 42
0.0
 10
2325.2818263025
 20
1715.423616230954
 42
0.0
 10
2322.891247852642
 20
1715.423616230956
 42
0.0
 10
2322.891247852658
 20
1716.923382031022
 42
0.0
 10
2321.651988868698
 20
1716.215668863149
 42
0.0
 10
2321.651988868702
 20
1714.458425231146
 42
0.0
 10
2320.949636036004
 20
1714.458425231148
 42
0.0
 10
2320.949636036013
 20
1716.571334523623
 42
0.0
 10
2322.245674283917
 20
1717.311477277012
 42
0.0
 10
2321.658206152222
 20
1718.337222535408
 42
0.0
 10
2321.658206152235
 20
1717.629380022392
 42
0.0
 10
2319.623956027971
 20
1717.631814626945
 42
-1.000000029820928
 97
1
330
45F
 92
22
 72
0
 73
1
 93
4
 10
2325.281826296927
 20
1714.265294549438
 10
2325.281826296937
 20
1713.356945528984
 10
2309.185246311768
 20
1713.356945528952
 10
2309.185246311759
 20
1714.265294549406
 97
1
330
458
 75
0
 76
1
 47
0.5133779795246447
 98
6
 10
2314.569450787572
 20
1720.697941516856
 10
2314.569450787572
 20
1720.697941516856
 10
2314.569450787572
 20
1720.697941516856
 10
2314.569450787572
 20
1720.697941516856
 10
2314.569450787572
 20
1720.697941516856
 10
2314.569450787572
 20
1720.697941516856
450
0
451
0
460
0.0
461
0.0
452
1
462
0.0
453
2
463
0
 63
7
421
16777215
463
1
 63
18
421
4980736
470
CYLINDER
1001
GradientColor1ACI
1070
7
1001
ACAD
1010
0.0
1020
0.0
1030
0.0
  0
LWPOLYLINE
  5
458
102
{ACAD_REACTORS
330
456
330
457
102
}
330
453
100
AcDbEntity
  8
0
 62
18
370
30
420
0
100
AcDbPolyline
 90
4
 70
1
 10
2325.281826296927
 20
1714.265294549438
 10
2309.185246311759
 20
1714.265294549406
 10
2309.185246311768
 20
1713.356945528952
 10
2325.281826296937
 20
1713.356945528984
  0
HATCH
  5
459
330
453
100
AcDbEntity
  8
0
100
AcDbHatch
 10
0.0
 20
0.0
 30
0.0
210
0.0
220
0.0
230
1.0
  2
SOLID
 70
1
 71
1
 91
1
 92
7
 72
0
 73
1
 93
7
 10
2314.75965239745
 20
1718.344308515707
 10
2314.759652397446
 20
1719.728590799004
 10
2312.496133827082
 20
1718.026504621839
 10
2314.747311509656
 20
1716.347791054866
 10
2314.747311509638
 20
1717.641158894453
 10
2318.987219362382
 20
1717.641158894464
 10
2318.981544357281
 20
1718.344308515715
 97
1
330
45A
 75
0
 76
1
 47
0.3670868017068973
 98
1
 10
2314.090774508984
 20
1718.148684615189
450
0
451
0
460
0.0
461
0.0
452
1
462
0.0
453
2
463
0
 63
7
421
16777215
463
1
 63
18
421
4980736
470
CYLINDER
1001
GradientColor1ACI
1070
7
1001
ACAD
1010
0.0
1020
0.0
1030
0.0
  0
LWPOLYLINE
  5
45A
102
{ACAD_REACTORS
330
457
330
459
102
}
330
453
100
AcDbEntity
  8
0
 62
18
370
30
420
0
100
AcDbPolyline
 90
8
 70
0
 10
2318.981544357285
 20
1718.344308515715
 10
2314.75965239745
 20
1718.344308515707
 10
2314.759652397446
 20
1719.728590799004
 10
2312.496133827082
 20
1718.026504621839
 10
2314.747311509656
 20
1716.347791054866
 10
2314.747311509638
 20
1717.641158894453
 10
2318.987219362382
 20
1717.641158894464
 10
2318.981544357281
 20
1718.344308515716
  0
LWPOLYLINE
  5
45B
102
{ACAD_REACTORS
330
456
330
457
102
}
330
453
100
AcDbEntity
  8
0
 62
18
370
30
420
0
100
AcDbPolyline
 90
4
 70
1
 10
2312.427627619802
 20
1720.528258717494
 10
2309.185246311756
 20
1720.528258717488
 10
2309.185246311766
 20
1715.177957565277
 10
2312.427627619813
 20
1715.177957565284
  0
CIRCLE
  5
45C
330
453
100
AcDbEntity
  8
0
 62
18
370
30
420
0
100
AcDbCircle
 10
2309.551028449954
 20
1717.860681867166
 30
0.0
 40
0.1904826859103959
  0
LWPOLYLINE
  5
45D
102
{ACAD_REACTORS
330
457
102
}
330
453
100
AcDbEntity
  8
0
100
AcDbPolyline
 90
4
 70
1
 10
2308.524211096454
 20
1721.746729117298
 10
2326.189587953699
 20
1721.746729117338
 10
2326.189587953719
 20
1712.914041130136
 10
2308.524211096474
 20
1712.914041130096
  0
HATCH
  5
45E
330
453
100
AcDbEntity
  8
0
100
AcDbHatch
 10
0.0
 20
0.0
 30
0.0
210
0.0
220
0.0
230
1.0
  2
SOLID
 70
1
 71
1
 91
2
 92
7
 72
1
 73
1
 93
23
 10
2322.596363880061
 20
1719.403902936253
 42
0.0
 10
2323.566246136465
 20
1719.399311223765
 42
0.0
 10
2324.136775996411
 20
1718.418292594458
 42
1.253469672270657
 10
2324.655934135057
 20
1718.700937751638
 42
0.0
 10
2323.889811586134
 20
1720.080136903071
 42
0.0
 10
2322.016256941338
 20
1720.080136903071
 42
0.0
 10
2320.960834995232
 20
1719.638699557033
 42
0.0
 10
2320.960834995231
 20
1718.338480202899
 42
0.0
 10
2319.623769830725
 20
1718.338480202896
 42
1.0
 10
2319.623956027972
 20
1717.631814626945
 42
0.0
 10
2321.658206152235
 20
1717.629380022392
 42
0.0
 10
2321.658206152222
 20
1718.337222535408
 42
0.0
 10
2322.245674283917
 20
1717.311477277012
 42
0.0
 10
2320.949636036013
 20
1716.571334523623
 42
0.0
 10
2320.949636036004
 20
1714.458425231148
 42
0.0
 10
2321.651988868702
 20
1714.458425231146
 42
0.0
 10
2321.651988868698
 20
1716.215668863149
 42
0.0
 10
2322.891247852658
 20
1716.923382031022
 42
0.0
 10
2322.891247852642
 20
1715.423616230956
 42
0.0
 10
2325.2818263025
 20
1715.423616230954
 42
0.0
 10
2325.281826302493
 20
1716.131479785561
 42
0.0
 10
2323.603646862333
 20
1716.13147978556
 42
0.0
 10
2323.603646862323
 20
1717.633624417038
 42
0.0
 97
1
330
45F
 92
7
 72
1
 73
1
 93
2
 10
2320.530422584699
 20
1720.511826407388
 42
1.0
 10
2321.907999381721
 20
1720.511826407388
 42
1.0
 97
1
330
45F
 75
0
 76
1
 47
0.7986346847377253
 98
2
 10
2322.289977584248
 20
1719.04438294871
 10
2321.61978411842
 20
1720.687500895529
450
0
451
0
460
0.0
461
0.0
452
1
462
0.0
453
2
463
0
 63
7
421
16777215
463
1
 63
18
421
4980736
470
CYLINDER
1001
GradientColor1ACI
1070
7
1001
ACAD
1010
0.0
1020
0.0
1030
0.0
  0
INSERT
  5
45F
102
{ACAD_REACTORS
330
457
330
45E
102
}
330
453
100
AcDbEntity
  8
0
100
AcDbBlockReference
  2
9809550
 10
-13832.92471906545
 20
-2060.258131805837
 30
0.0
 41
0.0381026673526157
 42
0.0381026673526157
 43
0.0381026673526157
  0
ENDBLK
  5
455
330
453
100
AcDbEntity
  8
0
100
AcDbBlockEnd
  0
BLOCK
  5
472
330
471
100
AcDbEntity
  8
0
100
AcDbBlockBegin
  2
RIVO_NL_ARR_right
 70
0
 10
0.0
 20
0.0
 30
0.0
  3
RIVO_NL_ARR_right
  1

  0
HATCH
  5
474
330
471
100
AcDbEntity
  8
0
 62
7
100
AcDbHatch
 10
0.0
 20
0.0
 30
0.0
210
0.0
220
0.0
230
1.0
  2
SOLID
 70
1
 71
1
 91
1
 92
7
 72
0
 73
1
 93
4
 10
2325.281826296953
 20
1702.895389753894
 10
2325.281826296943
 20
1703.803738774348
 10
2309.185246311774
 20
1703.80373877433
 10
2309.185246311783
 20
1702.895389753874
 97
1
330
476
 75
0
 76
1
 47
0.4596116920573728
 98
1
 10
2313.528531182503
 20
1703.302236609598
450
0
451
0
460
0.0
461
0.0
452
1
462
0.0
453
2
463
0
 63
7
421
16777215
463
1
 63
18
421
4980736
470
CYLINDER
1001
GradientColor1ACI
1070
7
1001
ACAD
1010
0.0
1020
0.0
1030
0.0
  0
HATCH
  5
475
330
471
100
AcDbEntity
  8
0
 62
100
100
AcDbHatch
 10
0.0
 20
0.0
 30
0.0
210
0.0
220
0.0
230
1.0
  2
SOLID
 70
1
 71
1
 91
6
 92
7
 72
0
 73
1
 93
4
 10
2308.524211096472
 20
1711.285173342222
 10
2308.524211096486
 20
1702.452485355021
 10
2326.189587953733
 20
1702.452485355046
 10
2326.189587953717
 20
1711.285173342247
 97
1
330
47A
 92
22
 72
0
 73
1
 93
7
 10
2319.594930589037
 20
1707.895537371455
 10
2319.594930589021
 20
1709.188905211043
 10
2321.846108271593
 20
1707.510191644067
 10
2319.582589701231
 20
1705.808105466904
 10
2319.58258970122
 20
1707.192387750202
 10
2315.360697741393
 20
1707.192387750194
 10
2315.355022736289
 20
1707.895537371444
 97
1
330
47D
 92
22
 72
1
 73
1
 93
27
 10
2313.019984007487
 20
1709.414825287854
 42
0.0
 10
2313.544139305793
 20
1709.177143805819
 42
0.0
 10
2313.54413930579
 20
1707.876924451685
 42
0.0
 10
2314.881018274097
 20
1707.876924451676
 42
-0.9988039078094884
 10
2314.88205021207
 20
1707.170260110757
 42
0.0
 10
2312.846768148784
 20
1707.167824271182
 42
0.0
 10
2312.846768148798
 20
1707.875666784198
 42
0.0
 10
2312.2593000171
 20
1706.849921525804
 42
0.0
 10
2313.555338265
 20
1706.109778772409
 42
0.0
 10
2313.555338265
 20
1703.996869479934
 42
0.0
 10
2312.852985432302
 20
1703.996869479936
 42
0.0
 10
2312.852985432313
 20
1705.754113111938
 42
0.0
 10
2311.613726448357
 20
1706.461826279817
 42
0.0
 10
2311.613726448366
 20
1704.962060479751
 42
0.0
 10
2309.223147998508
 20
1704.962060479759
 42
0.0
 10
2309.223147998519
 20
1705.669924034366
 42
0.0
 10
2310.901327438678
 20
1705.669924034358
 42
0.0
 10
2310.901327438696
 20
1707.172068665836
 42
0.0
 10
2311.908610420966
 20
1708.942347185046
 42
0.0
 10
2310.938728164561
 20
1708.937755472563
 42
0.0
 10
2310.368198304612
 20
1707.956736843264
 42
-1.253469672273652
 10
2309.849040165964
 20
1708.239382000438
 42
0.0
 10
2310.615162714896
 20
1709.61858115187
 42
0.0
 10
2312.488717359691
 20
1709.618581151861
 42
0.0
 10
2313.019984007487
 20
1709.414825287854
 42
-0.3024061188718011
 10
2312.59697491931
 20
1710.050270656175
 42
-1.0
 10
2313.974551716332
 20
1710.050270656175
 42
-0.5356193210551591
 97
1
330
47C
 92
22
 72
0
 73
1
 93
4
 10
2325.281826296943
 20
1703.803738774348
 10
2325.281826296953
 20
1702.895389753894
 10
2309.185246311783
 20
1702.895389753874
 10
2309.185246311774
 20
1703.80373877433
 97
1
330
476
 92
22
 72
0
 73
1
 93
4
 10
2321.969095945962
 20
1709.97011097843
 10
2325.211477254008
 20
1709.970110978433
 10
2325.211477254015
 20
1704.619809826224
 10
2321.96909594597
 20
1704.619809826218
 97
1
330
478
 92
6
 72
1
 73
1
 93
2
 10
2322.525360770068
 20
1707.302534128106
 42
-1.0
 10
2322.144395398247
 20
1707.302534128106
 42
-1.0
 97
1
330
479
 75
0
 76
1
 47
1.175532902381636
 98
6
 10
2315.944776061071
 20
1709.675760534505
 10
2315.944776061071
 20
1709.675760534505
 10
2315.944776061071
 20
1709.675760534505
 10
2315.944776061071
 20
1709.675760534505
 10
2315.944776061071
 20
1709.675760534505
 10
2315.944776061071
 20
1709.675760534505
450
0
451
0
460
0.0
461
0.0
452
1
462
0.0
453
2
463
0
 63
7
421
16777215
463
1
 63
18
421
4980736
470
CYLINDER
1001
GradientColor1ACI
1070
7
1001
ACAD
1010
0.0
1020
0.0
1030
0.0
  0
LWPOLYLINE
  5
476
102
{ACAD_REACTORS
330
474
330
475
102
}
330
471
100
AcDbEntity
  8
0
 62
18
370
30
420
0
100
AcDbPolyline
 90
4
 70
1
 10
2325.281826296943
 20
1703.803738774348
 10
2309.185246311774
 20
1703.80373877433
 10
2309.185246311783
 20
1702.895389753874
 10
2325.281826296953
 20
1702.895389753894
  0
HATCH
  5
477
330
471
100
AcDbEntity
  8
0
100
AcDbHatch
 10
0.0
 20
0.0
 30
0.0
210
0.0
220
0.0
230
1.0
  2
SOLID
 70
1
 71
1
 91
2
 92
7
 72
0
 73
1
 93
4
 10
2325.211477254008
 20
1709.970110978433
 10
2321.969095945962
 20
1709.97011097843
 10
2321.96909594597
 20
1704.619809826218
 10
2325.211477254015
 20
1704.619809826224
 97
1
330
478
 92
22
 72
1
 73
1
 93
2
 10
2322.525360770068
 20
1707.302534128106
 42
-1.0
 10
2322.144395398247
 20
1707.302534128106
 42
-1.0
 97
1
330
479
 75
0
 76
1
 47
0.4596116920573728
 98
2
 10
2323.937426889818
 20
1708.487545192806
 10
2323.937426889818
 20
1708.487545192806
450
0
451
0
460
0.0
461
0.0
452
1
462
0.0
453
2
463
0
 63
7
421
16777215
463
1
 63
18
421
4980736
470
CYLINDER
1001
GradientColor1ACI
1070
7
1001
ACAD
1010
0.0
1020
0.0
1030
0.0
  0
LWPOLYLINE
  5
478
102
{ACAD_REACTORS
330
475
330
477
102
}
330
471
100
AcDbEntity
  8
0
 62
18
370
30
420
0
100
AcDbPolyline
 90
4
 70
1
 10
2325.211477254008
 20
1709.970110978433
 10
2321.969095945962
 20
1709.97011097843
 10
2321.96909594597
 20
1704.619809826218
 10
2325.211477254015
 20
1704.619809826224
  0
CIRCLE
  5
479
102
{ACAD_REACTORS
330
475
330
477
102
}
330
471
100
AcDbEntity
  8
0
 62
18
370
30
420
0
100
AcDbCircle
 10
2322.334878084157
 20
1707.302534128106
 30
0.0
 40
0.1904826859103959
  0
LWPOLYLINE
  5
47A
102
{ACAD_REACTORS
330
475
102
}
330
471
100
AcDbEntity
  8
0
100
AcDbPolyline
 90
4
 70
1
 10
2308.524211096472
 20
1711.285173342222
 10
2326.189587953717
 20
1711.285173342247
 10
2326.189587953733
 20
1702.452485355046
 10
2308.524211096486
 20
1702.452485355021
  0
HATCH
  5
47B
330
471
100
AcDbEntity
  8
0
100
AcDbHatch
 10
0.0
 20
0.0
 30
0.0
210
0.0
220
0.0
230
1.0
  2
SOLID
 70
1
 71
1
 91
2
 92
7
 72
1
 73
1
 93
23
 10
2311.908610420966
 20
1708.942347185046
 42
0.0
 10
2310.901327438696
 20
1707.172068665836
 42
0.0
 10
2310.901327438678
 20
1705.669924034358
 42
0.0
 10
2309.223147998519
 20
1705.669924034366
 42
0.0
 10
2309.223147998508
 20
1704.962060479759
 42
0.0
 10
2311.613726448366
 20
1704.962060479751
 42
0.0
 10
2311.613726448357
 20
1706.461826279817
 42
0.0
 10
2312.852985432313
 20
1705.754113111938
 42
0.0
 10
2312.852985432302
 20
1703.996869479936
 42
0.0
 10
2313.555338265
 20
1703.996869479934
 42
0.0
 10
2313.555338265
 20
1706.109778772409
 42
0.0
 10
2312.2593000171
 20
1706.849921525804
 42
0.0
 10
2312.846768148798
 20
1707.875666784198
 42
0.0
 10
2312.846768148784
 20
1707.167824271182
 42
0.0
 10
2314.88205021207
 20
1707.170260110757
 42
0.998803907810787
 10
2314.881018274096
 20
1707.876924451676
 42
0.0
 10
2313.54413930579
 20
1707.876924451685
 42
0.0
 10
2313.544139305793
 20
1709.177143805819
 42
0.0
 10
2312.488717359691
 20
1709.618581151861
 42
0.0
 10
2310.615162714896
 20
1709.61858115187
 42
0.0
 10
2309.849040165964
 20
1708.239382000438
 42
1.25346967227365
 10
2310.368198304612
 20
1707.956736843264
 42
0.0
 10
2310.938728164561
 20
1708.937755472563
 42
0.0
 97
1
330
47C
 92
7
 72
1
 73
1
 93
2
 10
2313.974551716332
 20
1710.050270656175
 42
1.0
 10
2312.59697491931
 20
1710.050270656175
 42
1.0
 97
1
330
47C
 75
0
 76
1
 47
0.4596116920573728
 98
2
 10
2312.300906967146
 20
1708.993591619615
 10
2313.071874976886
 20
1709.781767990829
450
0
451
0
460
0.0
461
0.0
452
1
462
0.0
453
2
463
0
 63
7
421
16777215
463
1
 63
18
421
4980736
470
CYLINDER
1001
GradientColor1ACI
1070
7
1001
ACAD
1010
0.0
1020
0.0
1030
0.0
  0
INSERT
  5
47C
102
{ACAD_REACTORS
330
475
330
47B
102
}
330
471
100
AcDbEntity
  8
0
100
AcDbBlockReference
  2
9809550
 10
18467.42969334964
 20
-2070.719687629007
 30
0.0
 41
-0.0381026673526157
 42
0.0381026673526157
 43
0.0381026673526157
 50
359.9999999997448
  0
INSERT
  5
47D
102
{ACAD_REACTORS
330
475
102
}
330
471
100
AcDbEntity
  8
0
100
AcDbBlockReference
  2
595995
 10
18467.1808710594
 20
5497.540224915233
 30
0.0
 41
0.0381026673526157
 42
0.0381026673526157
 43
0.0381026673526157
 50
180.0000000000325
  0
ENDBLK
  5
473
330
471
100
AcDbEntity
  8
0
100
AcDbBlockEnd
  0
BLOCK
  5
490
330
48F
100
AcDbEntity
  8
0
100
AcDbBlockBegin
  2
RIVO_NL_ARR_bothsided
 70
0
 10
0.0
 20
0.0
 30
0.0
  3
RIVO_NL_ARR_bothsided
  1

  0
HATCH
  5
492
330
48F
100
AcDbEntity
  8
0
 62
7
100
AcDbHatch
 10
0.0
 20
0.0
 30
0.0
210
0.0
220
0.0
230
1.0
  2
SOLID
 70
1
 71
1
 91
2
 92
7
 72
0
 73
1
 93
4
 10
2312.077427159707
 20
1662.742831367413
 10
2308.83504585166
 20
1662.742831367406
 10
2308.835045851671
 20
1657.392530215195
 10
2312.077427159717
 20
1657.392530215203
 97
1
330
497
 92
7
 72
0
 73
1
 93
4
 10
2324.931625836841
 20
1655.571518178902
 10
2324.931625836831
 20
1656.479867199356
 10
2308.835045851663
 20
1656.479867199325
 10
2308.835045851672
 20
1655.57151817887
 97
1
330
494
 75
0
 76
1
 47
0.9388849026749939
 98
2
 10
2310.908021962833
 20
1661.3290841934
 10
2314.325639808328
 20
1655.75571430867
450
0
451
0
460
0.0
461
0.0
452
1
462
0.0
453
2
463
0
 63
7
421
16777215
463
1
 63
18
421
4980736
470
CYLINDER
1001
GradientColor1ACI
1070
7
1001
ACAD
1010
0.0
1020
0.0
1030
0.0
  0
HATCH
  5
493
330
48F
100
AcDbEntity
  8
0
 62
100
100
AcDbHatch
 10
0.0
 20
0.0
 30
0.0
210
0.0
220
0.0
230
1.0
  2
SOLID
 70
1
 71
1
 91
5
 92
7
 72
0
 73
1
 93
4
 10
2308.174010636358
 20
1663.961301767217
 10
2308.174010636378
 20
1655.128613780014
 10
2325.839387493623
 20
1655.128613780054
 10
2325.839387493603
 20
1663.961301767257
 97
1
330
499
 92
22
 72
0
 73
1
 93
7
 10
2314.409451937351
 20
1661.943163448922
 10
2314.409451937354
 20
1660.558881165625
 10
2318.631343897185
 20
1660.558881165634
 10
2318.637018902286
 20
1659.855731544383
 10
2314.397111049542
 20
1659.855731544372
 10
2314.39711104956
 20
1658.562363704785
 10
2312.145933366986
 20
1660.241077271758
 97
1
330
496
 92
22
 72
0
 73
1
 93
4
 10
2312.077427159707
 20
1662.742831367413
 10
2312.077427159717
 20
1657.392530215203
 10
2308.835045851671
 20
1657.392530215195
 10
2308.83504585166
 20
1662.742831367406
 97
1
330
497
 92
22
 72
1
 73
1
 93
27
 10
2319.273569370631
 20
1660.553052852815
 42
0.0
 10
2320.610634535134
 20
1660.553052852818
 42
0.0
 10
2320.610634535137
 20
1661.853272206951
 42
0.0
 10
2321.134789833446
 20
1662.090953688984
 42
-0.5356193210535847
 10
2320.180222124603
 20
1662.726399057306
 42
-1.0
 10
2321.557798921626
 20
1662.726399057306
 42
-0.3024061188731364
 10
2321.134789833446
 20
1662.090953688984
 42
0.0
 10
2321.666056481243
 20
1662.294709552989
 42
0.0
 10
2323.539611126038
 20
1662.294709552989
 42
0.0
 10
2324.305733674961
 20
1660.915510401556
 42
-1.253469672270663
 10
2323.786575536316
 20
1660.632865244377
 42
0.0
 10
2323.216045676369
 20
1661.613883873684
 42
0.0
 10
2322.246163419964
 20
1661.618475586171
 42
0.0
 10
2323.253446402226
 20
1659.848197066956
 42
0.0
 10
2323.253446402238
 20
1658.346052435478
 42
0.0
 10
2324.931625842397
 20
1658.346052435479
 42
0.0
 10
2324.931625842404
 20
1657.638188880872
 42
0.0
 10
2322.541047392546
 20
1657.638188880875
 42
0.0
 10
2322.541047392562
 20
1659.137954680941
 42
0.0
 10
2321.301788408602
 20
1658.430241513067
 42
0.0
 10
2321.301788408606
 20
1656.672997881065
 42
0.0
 10
2320.599435575909
 20
1656.672997881066
 42
0.0
 10
2320.599435575918
 20
1658.785907173541
 42
0.0
 10
2321.895473823821
 20
1659.526049926931
 42
0.0
 10
2321.308005692126
 20
1660.551795185327
 42
0.0
 10
2321.308005692139
 20
1659.843952672311
 42
0.0
 10
2319.273755567875
 20
1659.846387276863
 42
-1.000000029820928
 97
1
330
49B
 92
22
 72
0
 73
1
 93
4
 10
2324.931625836831
 20
1656.479867199356
 10
2324.931625836841
 20
1655.571518178902
 10
2308.835045851672
 20
1655.57151817887
 10
2308.835045851663
 20
1656.479867199325
 97
1
330
494
 75
0
 76
1
 47
0.5133779795246447
 98
6
 10
2314.219250327476
 20
1662.912514166774
 10
2314.219250327476
 20
1662.912514166774
 10
2314.219250327476
 20
1662.912514166774
 10
2314.219250327476
 20
1662.912514166774
 10
2314.219250327476
 20
1662.912514166774
 10
2314.219250327476
 20
1662.912514166774
450
0
451
0
460
0.0
461
0.0
452
1
462
0.0
453
2
463
0
 63
7
421
16777215
463
1
 63
18
421
4980736
470
CYLINDER
1001
GradientColor1ACI
1070
7
1001
ACAD
1010
0.0
1020
0.0
1030
0.0
  0
LWPOLYLINE
  5
494
102
{ACAD_REACTORS
330
492
330
493
102
}
330
48F
100
AcDbEntity
  8
0
 62
18
370
30
420
0
100
AcDbPolyline
 90
4
 70
1
 10
2324.931625836831
 20
1656.479867199356
 10
2308.835045851663
 20
1656.479867199325
 10
2308.835045851672
 20
1655.57151817887
 10
2324.931625836841
 20
1655.571518178902
  0
HATCH
  5
495
330
48F
100
AcDbEntity
  8
0
100
AcDbHatch
 10
0.0
 20
0.0
 30
0.0
210
0.0
220
0.0
230
1.0
  2
SOLID
 70
1
 71
1
 91
1
 92
7
 72
0
 73
1
 93
7
 10
2314.409451937354
 20
1660.558881165625
 10
2314.409451937351
 20
1661.943163448922
 10
2312.145933366986
 20
1660.241077271758
 10
2314.39711104956
 20
1658.562363704785
 10
2314.397111049542
 20
1659.855731544372
 10
2318.637018902286
 20
1659.855731544383
 10
2318.631343897185
 20
1660.558881165634
 97
1
330
496
 75
0
 76
1
 47
0.3670868017068973
 98
1
 10
2313.740574048888
 20
1660.363257265107
450
0
451
0
460
0.0
461
0.0
452
1
462
0.0
453
2
463
0
 63
7
421
16777215
463
1
 63
18
421
4980736
470
CYLINDER
1001
GradientColor1ACI
1070
7
1001
ACAD
1010
0.0
1020
0.0
1030
0.0
  0
LWPOLYLINE
  5
496
102
{ACAD_REACTORS
330
493
330
495
102
}
330
48F
100
AcDbEntity
  8
0
 62
18
370
30
420
0
100
AcDbPolyline
 90
8
 70
0
 10
2318.631343897189
 20
1660.558881165634
 10
2314.409451937354
 20
1660.558881165625
 10
2314.409451937351
 20
1661.943163448922
 10
2312.145933366986
 20
1660.241077271758
 10
2314.39711104956
 20
1658.562363704785
 10
2314.397111049542
 20
1659.855731544372
 10
2318.637018902286
 20
1659.855731544383
 10
2318.631343897185
 20
1660.558881165635
  0
LWPOLYLINE
  5
497
102
{ACAD_REACTORS
330
492
330
493
102
}
330
48F
100
AcDbEntity
  8
0
 62
18
370
30
420
0
100
AcDbPolyline
 90
4
 70
1
 10
2312.077427159707
 20
1662.742831367413
 10
2308.83504585166
 20
1662.742831367406
 10
2308.835045851671
 20
1657.392530215195
 10
2312.077427159717
 20
1657.392530215203
  0
CIRCLE
  5
498
330
48F
100
AcDbEntity
  8
0
 62
18
370
30
420
0
100
AcDbCircle
 10
2309.200827989858
 20
1660.075254517084
 30
0.0
 40
0.1904826859103959
  0
LWPOLYLINE
  5
499
102
{ACAD_REACTORS
330
493
102
}
330
48F
100
AcDbEntity
  8
0
100
AcDbPolyline
 90
4
 70
1
 10
2308.174010636358
 20
1663.961301767217
 10
2325.839387493603
 20
1663.961301767257
 10
2325.839387493623
 20
1655.128613780054
 10
2308.174010636378
 20
1655.128613780014
  0
HATCH
  5
49A
330
48F
100
AcDbEntity
  8
0
100
AcDbHatch
 10
0.0
 20
0.0
 30
0.0
210
0.0
220
0.0
230
1.0
  2
SOLID
 70
1
 71
1
 91
2
 92
7
 72
1
 73
1
 93
23
 10
2322.246163419964
 20
1661.618475586171
 42
0.0
 10
2323.216045676369
 20
1661.613883873684
 42
0.0
 10
2323.786575536316
 20
1660.632865244377
 42
1.253469672270657
 10
2324.305733674961
 20
1660.915510401556
 42
0.0
 10
2323.539611126038
 20
1662.294709552989
 42
0.0
 10
2321.666056481243
 20
1662.294709552989
 42
0.0
 10
2320.610634535137
 20
1661.853272206951
 42
0.0
 10
2320.610634535134
 20
1660.553052852818
 42
0.0
 10
2319.273569370629
 20
1660.553052852815
 42
1.0
 10
2319.273755567876
 20
1659.846387276863
 42
0.0
 10
2321.308005692139
 20
1659.843952672311
 42
0.0
 10
2321.308005692126
 20
1660.551795185327
 42
0.0
 10
2321.895473823821
 20
1659.526049926931
 42
0.0
 10
2320.599435575918
 20
1658.785907173541
 42
0.0
 10
2320.599435575909
 20
1656.672997881066
 42
0.0
 10
2321.301788408606
 20
1656.672997881065
 42
0.0
 10
2321.301788408602
 20
1658.430241513067
 42
0.0
 10
2322.541047392562
 20
1659.137954680941
 42
0.0
 10
2322.541047392546
 20
1657.638188880875
 42
0.0
 10
2324.931625842404
 20
1657.638188880872
 42
0.0
 10
2324.931625842397
 20
1658.346052435479
 42
0.0
 10
2323.253446402238
 20
1658.346052435478
 42
0.0
 10
2323.253446402226
 20
1659.848197066956
 42
0.0
 97
1
330
49B
 92
7
 72
1
 73
1
 93
2
 10
2320.180222124603
 20
1662.726399057306
 42
1.0
 10
2321.557798921626
 20
1662.726399057306
 42
1.0
 97
1
330
49B
 75
0
 76
1
 47
0.7986346847377253
 98
2
 10
2321.939777124152
 20
1661.258955598628
 10
2321.269583658324
 20
1662.902073545447
450
0
451
0
460
0.0
461
0.0
452
1
462
0.0
453
2
463
0
 63
7
421
16777215
463
1
 63
18
421
4980736
470
CYLINDER
1001
GradientColor1ACI
1070
7
1001
ACAD
1010
0.0
1020
0.0
1030
0.0
  0
INSERT
  5
49B
102
{ACAD_REACTORS
330
493
330
49A
102
}
330
48F
100
AcDbEntity
  8
0
100
AcDbBlockReference
  2
9809550
 10
-13833.27491952554
 20
-2118.043559155918
 30
0.0
 41
0.0381026673526157
 42
0.0381026673526157
 43
0.0381026673526157
  0
HATCH
  5
49C
330
48F
100
AcDbEntity
  8
0
 62
7
100
AcDbHatch
 10
0.0
 20
0.0
 30
0.0
210
0.0
220
0.0
230
1.0
  2
SOLID
 70
1
 71
1
 91
2
 92
7
 72
0
 73
1
 93
4
 10
2312.077427159717
 20
1670.53007331927
 10
2308.83504585167
 20
1670.530073319277
 10
2308.835045851659
 20
1665.179772167066
 10
2312.077427159706
 20
1665.17977216706
 97
1
330
4A1
 92
7
 72
0
 73
1
 93
4
 10
2308.835045851671
 20
1672.351085355602
 10
2308.835045851663
 20
1671.442736335148
 10
2324.93162583683
 20
1671.442736335116
 10
2324.93162583684
 20
1672.35108535557
 97
1
330
49E
 75
0
 76
1
 47
0.9388849026749939
 98
2
 10
2310.908021962832
 20
1666.593519341072
 10
2314.325639808327
 20
1672.166889225803
450
0
451
0
460
0.0
461
0.0
452
1
462
0.0
453
2
463
0
 63
7
421
16777215
463
1
 63
18
421
4980736
470
CYLINDER
1001
GradientColor1ACI
1070
7
1001
ACAD
1010
0.0
1020
0.0
1030
0.0
  0
HATCH
  5
49D
330
48F
100
AcDbEntity
  8
0
 62
100
100
AcDbHatch
 10
0.0
 20
0.0
 30
0.0
210
0.0
220
0.0
230
1.0
  2
SOLID
 70
1
 71
1
 91
5
 92
7
 72
0
 73
1
 93
4
 10
2325.839387493603
 20
1663.961301767216
 10
2325.839387493623
 20
1672.793989754418
 10
2308.174010636378
 20
1672.793989754458
 10
2308.174010636357
 20
1663.961301767256
 97
1
330
4A3
 92
22
 72
0
 73
1
 93
7
 10
2314.40945193735
 20
1665.97944008555
 10
2312.145933366985
 20
1667.681526262715
 10
2314.39711104956
 20
1669.360239829688
 10
2314.397111049542
 20
1668.066871990101
 10
2318.637018902286
 20
1668.066871990089
 10
2318.631343897184
 20
1667.363722368839
 10
2314.409451937354
 20
1667.363722368847
 97
1
330
4A0
 92
22
 72
0
 73
1
 93
4
 10
2312.077427159706
 20
1665.17977216706
 10
2308.835045851659
 20
1665.179772167066
 10
2308.83504585167
 20
1670.530073319277
 10
2312.077427159717
 20
1670.53007331927
 97
1
330
4A1
 92
22
 72
1
 73
1
 93
27
 10
2319.27272362885
 20
1668.076215022578
 42
0.0
 10
2321.308005692139
 20
1668.078650862162
 42
0.0
 10
2321.308005692126
 20
1667.370808349145
 42
0.0
 10
2321.895473823821
 20
1668.396553607542
 42
0.0
 10
2320.599435575918
 20
1669.136696360931
 42
0.0
 10
2320.599435575909
 20
1671.249605653406
 42
0.0
 10
2321.301788408606
 20
1671.249605653408
 42
0.0
 10
2321.301788408602
 20
1669.492362021405
 42
0.0
 10
2322.541047392562
 20
1668.784648853532
 42
0.0
 10
2322.541047392546
 20
1670.284414653598
 42
0.0
 10
2324.931625842404
 20
1670.2844146536
 42
0.0
 10
2324.931625842397
 20
1669.576551098993
 42
0.0
 10
2323.253446402238
 20
1669.576551098995
 42
0.0
 10
2323.253446402226
 20
1668.074406467516
 42
0.0
 10
2322.246163419964
 20
1666.304127948301
 42
0.0
 10
2323.216045676369
 20
1666.308719660789
 42
0.0
 10
2323.786575536316
 20
1667.289738290095
 42
-1.253469672270662
 10
2324.305733674961
 20
1667.007093132916
 42
0.0
 10
2323.539611126038
 20
1665.627893981483
 42
0.0
 10
2321.666056481243
 20
1665.627893981483
 42
0.0
 10
2321.134789833446
 20
1665.831649845489
 42
-0.3024061188731364
 10
2321.557798921626
 20
1665.196204477166
 42
-1.0
 10
2320.180222124603
 20
1665.196204477166
 42
-0.5356193210535847
 10
2321.134789833446
 20
1665.831649845489
 42
0.0
 10
2320.610634535137
 20
1666.069331327521
 42
0.0
 10
2320.610634535134
 20
1667.369550681655
 42
0.0
 10
2319.273755566842
 20
1667.369550681658
 42
-0.9988039078284136
 97
1
330
4A5
 92
22
 72
0
 73
1
 93
4
 10
2308.835045851663
 20
1671.442736335148
 10
2308.835045851671
 20
1672.351085355602
 10
2324.93162583684
 20
1672.35108535557
 10
2324.93162583683
 20
1671.442736335116
 97
1
330
49E
 75
0
 76
1
 47
0.5133779795246447
 98
6
 10
2314.219250327476
 20
1665.010089367698
 10
2314.219250327476
 20
1665.010089367698
 10
2314.219250327476
 20
1665.010089367698
 10
2314.219250327476
 20
1665.010089367698
 10
2314.219250327476
 20
1665.010089367698
 10
2314.219250327476
 20
1665.010089367698
450
0
451
0
460
0.0
461
0.0
452
1
462
0.0
453
2
463
0
 63
7
421
16777215
463
1
 63
18
421
4980736
470
CYLINDER
1001
GradientColor1ACI
1070
7
1001
ACAD
1010
0.0
1020
0.0
1030
0.0
  0
LWPOLYLINE
  5
49E
102
{ACAD_REACTORS
330
49C
330
49D
102
}
330
48F
100
AcDbEntity
  8
0
 62
18
370
30
420
0
100
AcDbPolyline
 90
4
 70
1
 10
2324.93162583683
 20
1671.442736335116
 10
2308.835045851663
 20
1671.442736335148
 10
2308.835045851671
 20
1672.351085355602
 10
2324.93162583684
 20
1672.35108535557
  0
HATCH
  5
49F
330
48F
100
AcDbEntity
  8
0
100
AcDbHatch
 10
0.0
 20
0.0
 30
0.0
210
0.0
220
0.0
230
1.0
  2
SOLID
 70
1
 71
1
 91
1
 92
7
 72
0
 73
1
 93
7
 10
2314.409451937354
 20
1667.363722368847
 10
2318.631343897184
 20
1667.363722368839
 10
2318.637018902286
 20
1668.066871990089
 10
2314.397111049542
 20
1668.066871990101
 10
2314.39711104956
 20
1669.360239829688
 10
2312.145933366985
 20
1667.681526262715
 10
2314.40945193735
 20
1665.97944008555
 97
1
330
4A0
 75
0
 76
1
 47
0.3670868017068973
 98
1
 10
2313.740574048888
 20
1667.559346269365
450
0
451
0
460
0.0
461
0.0
452
1
462
0.0
453
2
463
0
 63
7
421
16777215
463
1
 63
18
421
4980736
470
CYLINDER
1001
GradientColor1ACI
1070
7
1001
ACAD
1010
0.0
1020
0.0
1030
0.0
  0
LWPOLYLINE
  5
4A0
102
{ACAD_REACTORS
330
49D
330
49F
102
}
330
48F
100
AcDbEntity
  8
0
 62
18
370
30
420
0
100
AcDbPolyline
 90
8
 70
0
 10
2318.631343897188
 20
1667.363722368839
 10
2314.409451937354
 20
1667.363722368847
 10
2314.40945193735
 20
1665.97944008555
 10
2312.145933366985
 20
1667.681526262715
 10
2314.39711104956
 20
1669.360239829688
 10
2314.397111049542
 20
1668.066871990101
 10
2318.637018902286
 20
1668.066871990089
 10
2318.631343897184
 20
1667.363722368838
  0
LWPOLYLINE
  5
4A1
102
{ACAD_REACTORS
330
49C
330
49D
102
}
330
48F
100
AcDbEntity
  8
0
 62
18
370
30
420
0
100
AcDbPolyline
 90
4
 70
1
 10
2312.077427159706
 20
1665.17977216706
 10
2308.835045851659
 20
1665.179772167066
 10
2308.83504585167
 20
1670.530073319277
 10
2312.077427159717
 20
1670.53007331927
  0
CIRCLE
  5
4A2
330
48F
100
AcDbEntity
  8
0
 62
18
370
30
420
0
100
AcDbCircle
 10
2309.200827989858
 20
1667.847349017388
 30
0.0
 40
0.1904826859103959
  0
LWPOLYLINE
  5
4A3
102
{ACAD_REACTORS
330
49D
102
}
330
48F
100
AcDbEntity
  8
0
100
AcDbPolyline
 90
4
 70
1
 10
2308.174010636357
 20
1663.961301767256
 10
2325.839387493603
 20
1663.961301767216
 10
2325.839387493623
 20
1672.793989754418
 10
2308.174010636378
 20
1672.793989754458
  0
HATCH
  5
4A4
330
48F
100
AcDbEntity
  8
0
100
AcDbHatch
 10
0.0
 20
0.0
 30
0.0
210
0.0
220
0.0
230
1.0
  2
SOLID
 70
1
 71
1
 91
2
 92
7
 72
1
 73
1
 93
23
 10
2323.253446402226
 20
1668.074406467516
 42
0.0
 10
2323.253446402238
 20
1669.576551098995
 42
0.0
 10
2324.931625842397
 20
1669.576551098993
 42
0.0
 10
2324.931625842404
 20
1670.2844146536
 42
0.0
 10
2322.541047392546
 20
1670.284414653598
 42
0.0
 10
2322.541047392562
 20
1668.784648853532
 42
0.0
 10
2321.301788408602
 20
1669.492362021405
 42
0.0
 10
2321.301788408606
 20
1671.249605653408
 42
0.0
 10
2320.599435575909
 20
1671.249605653406
 42
0.0
 10
2320.599435575918
 20
1669.136696360931
 42
0.0
 10
2321.895473823821
 20
1668.396553607542
 42
0.0
 10
2321.308005692126
 20
1667.370808349145
 42
0.0
 10
2321.308005692139
 20
1668.078650862162
 42
0.0
 10
2319.27272362885
 20
1668.076215022578
 42
0.9988039078285524
 10
2319.273755566842
 20
1667.369550681658
 42
0.0
 10
2320.610634535134
 20
1667.369550681655
 42
0.0
 10
2320.610634535137
 20
1666.069331327521
 42
0.0
 10
2321.666056481243
 20
1665.627893981483
 42
0.0
 10
2323.539611126038
 20
1665.627893981483
 42
0.0
 10
2324.305733674961
 20
1667.007093132916
 42
1.253469672270656
 10
2323.786575536316
 20
1667.289738290095
 42
0.0
 10
2323.216045676369
 20
1666.308719660789
 42
0.0
 10
2322.246163419964
 20
1666.304127948301
 42
0.0
 97
1
330
4A5
 92
7
 72
1
 73
1
 93
2
 10
2321.557798921626
 20
1665.196204477166
 42
1.0
 10
2320.180222124603
 20
1665.196204477166
 42
1.0
 97
1
330
4A5
 75
0
 76
1
 47
0.7986346847377253
 98
2
 10
2321.939777124152
 20
1666.663647935844
 10
2321.269583658324
 20
1665.020529989025
450
0
451
0
460
0.0
461
0.0
452
1
462
0.0
453
2
463
0
 63
7
421
16777215
463
1
 63
18
421
4980736
470
CYLINDER
1001
GradientColor1ACI
1070
7
1001
ACAD
1010
0.0
1020
0.0
1030
0.0
  0
INSERT
  5
4A5
102
{ACAD_REACTORS
330
49D
330
4A4
102
}
330
48F
100
AcDbEntity
  8
0
100
AcDbBlockReference
  2
9809550
 10
-13833.27491952554
 20
5445.966162690393
 30
0.0
 41
-0.0381026673526157
 42
0.0381026673526157
 43
0.0381026673526157
 50
180.0
  0
ENDBLK
  5
491
330
48F
100
AcDbEntity
  8
0
100
AcDbBlockEnd
  0
ENDSEC
  0
SECTION
  2
ENTITIES
  0
LINE
  5
3B1
330
1F
100
AcDbEntity
  8
ET_LEGENDE - Wohnung$0$800_AL_ALLG_L
100
AcDbLine
 10
2304.391033283091
 20
1491.172595299542
 30
0.0
 11
2509.077438675826
 21
1491.172595299542
 31
0.0
  0
LINE
  5
3B2
330
1F
100
AcDbEntity
  8
ET_LEGENDE - Wohnung$0$800_AL_ALLG_L
100
AcDbLine
 10
2509.437711561493
 20
1593.082306082527
 30
0.0
 11
2304.387511312837
 21
1593.08575736098
 31
0.0
  0
LINE
  5
3B3
330
1F
100
AcDbEntity
  8
ET_LEGENDE - Wohnung$0$800_AL_ALLG_L
100
AcDbLine
 10
2509.077438675826
 20
1384.218420498197
 30
0.0
 11
2304.387511312837
 21
1384.218420498197
 31
0.0
  0
LINE
  5
3B4
330
1F
100
AcDbEntity
  8
ET_LEGENDE - Wohnung$0$800_AL_ALLG_L
100
AcDbLine
 10
2304.387511312837
 20
1432.00469256653
 30
0.0
 11
2509.077438675826
 21
1432.00469256653
 31
0.0
  0
LINE
  5
3B5
330
1F
100
AcDbEntity
  8
ET_LEGENDE - Wohnung$0$800_AL_ALLG_L
100
AcDbLine
 10
2304.387511312837
 20
1532.710123851335
 30
0.0
 11
2509.437711561493
 21
1532.706358330902
 31
0.0
  0
LINE
  5
3B6
330
1F
100
AcDbEntity
  8
ET_LEGENDE - Wohnung$0$800_AL_ALLG_L
100
AcDbLine
 10
2304.387511312837
 20
1537.560436477231
 30
0.0
 11
2482.570742510564
 21
1537.560436477231
 31
0.0
  0
LINE
  5
3B7
330
1F
100
AcDbEntity
  8
ET_LEGENDE - Wohnung$0$800_AL_ALLG_L
100
AcDbLine
 10
2304.387511312837
 20
1545.618725081531
 30
0.0
 11
2482.570742510564
 21
1545.618725081531
 31
0.0
  0
LINE
  5
3B8
330
1F
100
AcDbEntity
  8
ET_LEGENDE - Wohnung$0$800_AL_ALLG_L
100
AcDbLine
 10
2304.387511312837
 20
1554.421479484387
 30
0.0
 11
2482.570742510564
 21
1554.421479484387
 31
0.0
  0
LINE
  5
3B9
330
1F
100
AcDbEntity
  8
ET_LEGENDE - Wohnung$0$800_AL_ALLG_L
100
AcDbLine
 10
2304.387511312837
 20
1558.040038973966
 30
0.0
 11
2482.570742510564
 21
1558.040038973966
 31
0.0
  0
LINE
  5
3BA
330
1F
100
AcDbEntity
  8
ET_LEGENDE - Wohnung$0$800_AL_ALLG_L
100
AcDbLine
 10
2304.387511312837
 20
1565.277157952484
 30
0.0
 11
2482.570742510564
 21
1565.277157952484
 31
0.0
  0
LINE
  5
3BB
330
1F
100
AcDbEntity
  8
ET_LEGENDE - Wohnung$0$800_AL_ALLG_L
100
AcDbLine
 10
2304.387511312837
 20
1569.782244386433
 30
0.0
 11
2482.570742510564
 21
1569.782244386433
 31
0.0
  0
LINE
  5
3BC
330
1F
100
AcDbEntity
  8
ET_LEGENDE - Wohnung$0$800_AL_ALLG_L
100
AcDbLine
 10
2304.387511312837
 20
1575.096211918117
 30
0.0
 11
2482.570742510564
 21
1574.989477684624
 31
0.0
  0
LINE
  5
3BD
330
1F
100
AcDbEntity
  8
ET_LEGENDE - Wohnung$0$800_AL_ALLG_L
100
AcDbLine
 10
2304.387511312837
 20
1578.608037174205
 30
0.0
 11
2509.437711561493
 21
1578.60343591221
 31
0.0
  0
LINE
  5
3BE
330
1F
100
AcDbEntity
  8
ET_LEGENDE - Wohnung$0$800_AL_ALLG_L
100
AcDbLine
 10
2304.387511312837
 20
1549.971512617697
 30
0.0
 11
2482.570742510564
 21
1549.971512617697
 31
0.0
  0
LINE
  5
3BF
330
1F
100
AcDbEntity
  8
ET_LEGENDE - Wohnung$0$800_AL_ALLG_L
100
AcDbLine
 10
2304.387511312837
 20
1541.589580779565
 30
0.0
 11
2482.570742510564
 21
1541.589580779565
 31
0.0
  0
LINE
  5
3C0
330
1F
100
AcDbEntity
  8
ET_LEGENDE - Wohnung$0$800_AL_ALLG_L
100
AcDbLine
 10
2304.387511312837
 20
1340.530863702986
 30
0.0
 11
2509.077438675826
 21
1340.530863702986
 31
0.0
  0
LINE
  5
3C1
330
1F
100
AcDbEntity
  8
ET_LEGENDE - Wohnung$0$800_AL_ALLG_L
100
AcDbLine
 10
2482.570742510564
 20
1578.608037174205
 30
0.0
 11
2482.570742510564
 21
1532.833229848682
 31
0.0
  0
LINE
  5
3C2
330
1F
100
AcDbEntity
  8
ET_LEGENDE - Wohnung$0$800_AL_ALLG_L
100
AcDbLine
 10
2341.792970621289
 20
1578.608037174205
 30
0.0
 11
2341.792970621289
 21
1532.710123851335
 31
0.0
  0
LINE
  5
3C3
330
1F
100
AcDbEntity
  8
ET_LEGENDE - Wohnung$0$800_AL_ALLG_L
100
AcDbLine
 10
2317.183675747721
 20
1578.608037174205
 30
0.0
 11
2317.183675747721
 21
1532.710123851335
 31
0.0
  0
LINE
  5
3C4
330
1F
100
AcDbEntity
  8
ET_LEGENDE - Wohnung$0$800_AL_ALLG_L
100
AcDbLine
 10
2482.570742510564
 20
1578.608037174205
 30
0.0
 11
2482.570742510564
 21
1532.710123851335
 31
0.0
  0
TEXT
  5
3C5
330
1F
100
AcDbEntity
  8
ET_LEGENDE - Wohnung$0$800_AL_ALLG_L
100
AcDbText
 10
2346.960950346552
 20
1575.946929418331
 30
0.0
 40
1.447423795731553
  1
ÄNDERUNG
  7
ERSTELLTER_STIL_5
100
AcDbText
  0
TEXT
  5
3C6
330
1F
100
AcDbEntity
  8
ET_LEGENDE - Wohnung$0$800_AL_ALLG_L
100
AcDbText
 10
2325.180265199163
 20
1576.116215212193
 30
0.0
 40
1.447423795731553
  1
DATUM
  7
ERSTELLTER_STIL_5
100
AcDbText
  0
TEXT
  5
3C7
330
1F
100
AcDbEntity
  8
ET_LEGENDE - Wohnung$0$800_AL_ALLG_L
100
AcDbText
 10
2473.35905690215
 20
1576.250712946897
 30
0.0
 40
1.447423795731553
  1
GEZ.
  7
ERSTELLTER_STIL_5
100
AcDbText
  0
TEXT
  5
3C8
330
1F
100
AcDbEntity
  8
ET_LEGENDE - Wohnung$0$800_AL_ALLG_L
100
AcDbText
 10
2305.005024293009
 20
1588.581966826337
 30
0.0
 40
2.894847591463108
  1
PLANINHALT
  7
ERSTELLTER_STIL_5
100
AcDbText
  0
TEXT
  5
3C9
330
1F
100
AcDbEntity
  8
ET_LEGENDE - Wohnung$0$800_AL_ALLG_L
100
AcDbText
 10
2487.14316518914
 20
1591.193195482688
 30
0.0
 40
1.447423795731553
  1
PLANNUMMER
  7
ERSTELLTER_STIL_5
100
AcDbText
  0
TEXT
  5
3CA
330
1F
100
AcDbEntity
  8
ET_LEGENDE - Wohnung$0$800_AL_ALLG_L
100
AcDbText
 10
2375.854624386099
 20
1508.524389580921
 30
0.0
 40
7.666653578724941
  1
MVP-Projekt
  7
ERSTELLTER_STIL_5
100
AcDbText
  0
TEXT
  5
3CB
330
1F
100
AcDbEntity
  8
ET_LEGENDE - Wohnung$0$800_AL_ALLG_L
100
AcDbText
 10
2305.32971823966
 20
1422.419449725017
 30
0.0
 40
6.084645697400747
  1
Bauherr:
  7
ERSTELLTER_STIL_5
100
AcDbText
  0
TEXT
  5
3CC
330
1F
100
AcDbEntity
  8
ET_LEGENDE - Wohnung$0$800_AL_ALLG_L
100
AcDbText
 10
2379.84734231774
 20
1584.147674384952
 30
0.0
 40
4.586524152724336
  1
2.Kellergeschoss
  7
ERSTELLTER_STIL_5
100
AcDbText
  0
TEXT
  5
3CD
330
1F
100
AcDbEntity
  8
ET_LEGENDE - Wohnung$0$800_AL_ALLG_L
100
AcDbText
 10
2316.856501086979
 20
1495.742863342216
 30
0.0
 40
4.733240894480913
  1
PROJEKT
 50
90.0
100
AcDbText
  0
TEXT
  5
3CE
330
1F
100
AcDbEntity
  8
ET_LEGENDE - Wohnung$0$800_AL_ALLG_L
100
AcDbText
 10
2305.884447743199
 20
1375.879339042336
 30
0.0
 40
6.084645697400747
  1
Planverfasser
  7
ERSTELLTER_STIL_5
100
AcDbText
  0
TEXT
  5
3CF
330
1F
100
AcDbEntity
  8
ET_LEGENDE - Wohnung$0$800_AL_ALLG_L
100
AcDbText
 10
2359.398724291004
 20
1375.879339042336
 30
0.0
 40
6.084645697400747
  1
:
  7
ERSTELLTER_STIL_5
100
AcDbText
  0
LINE
  5
3D0
330
1F
100
AcDbEntity
  8
ET_LEGENDE - Wohnung$0$800_AL_ALLG_L
100
AcDbLine
 10
2406.12813813675
 20
1432.00469256653
 30
0.0
 11
2406.12813813675
 21
1340.530863702986
 31
0.0
  0
TEXT
  5
3D1
330
1F
100
AcDbEntity
  8
ET_LEGENDE - Wohnung$0$800_AL_ALLG_L
100
AcDbText
 10
2409.761527765275
 20
1422.669380731697
 30
0.0
 40
6.084645697400747
  1
Architekt:
  7
ERSTELLTER_STIL_5
100
AcDbText
  0
TEXT
  5
3D2
330
1F
100
AcDbEntity
  8
ET_LEGENDE - Wohnung$0$800_AL_ALLG_L
100
AcDbText
 10
2408.557401856566
 20
1375.879339042336
 30
0.0
 40
6.084645697400747
  1
Generelunternehmer
  7
ERSTELLTER_STIL_5
100
AcDbText
  0
TEXT
  5
3D3
330
1F
100
AcDbEntity
  8
ET_LEGENDE - Wohnung$0$800_AL_ALLG_L
100
AcDbText
 10
2506.56094102662
 20
1375.879339042336
 30
0.0
 40
6.084645697400747
  1
:
  7
ERSTELLTER_STIL_5
100
AcDbText
  0
TEXT
  5
3D4
330
1F
100
AcDbEntity
  8
ET_LEGENDE - Wohnung$0$800_AL_ALLG_L
100
AcDbText
 10
2483.46616626399
 20
1527.275572578305
 30
0.0
 40
3.157422281876876
  1
MAßSTAB
  7
ERSTELLTER_STIL_5
100
AcDbText
  0
TEXT
  5
3D5
330
1F
100
AcDbEntity
  8
ET_LEGENDE - Wohnung$0$800_AL_ALLG_L
100
AcDbText
 10
2482.179280291691
 20
1518.956028497584
 30
0.0
 40
5.525488993284516
  1
1:50
  7
ERSTELLTER_STIL_1
100
AcDbText
  0
TEXT
  5
3D6
330
1F
100
AcDbEntity
  8
ET_LEGENDE - Wohnung$0$800_AL_ALLG_L
100
AcDbText
 10
2329.189409715507
 20
1361.803049261062
 30
0.0
 40
4.082493729869836
  1
Rivoplan
  7
ERSTELLTER_STIL_5
100
AcDbText
  0
TEXT
  5
3D7
330
1F
100
AcDbEntity
  8
ET_LEGENDE - Wohnung$0$800_AL_ALLG_L
100
AcDbText
 10
2305.427150562893
 20
1575.946929418331
 30
0.0
 40
1.447423795731553
  1
Index
  7
ERSTELLTER_STIL_5
100
AcDbText
  0
TEXT
  5
3D8
330
1F
100
AcDbEntity
  8
ET_LEGENDE - Wohnung$0$800_AL_ALLG_L
100
AcDbText
 10
2494.588861532098
 20
1571.886989126977
 30
0.0
 40
1.447423795731553
  1
Index
  7
ERSTELLTER_STIL_5
100
AcDbText
  0
TEXT
  5
3D9
330
1F
100
AcDbEntity
  8
ET_LEGENDE - Wohnung$0$800_AL_ALLG_L
100
AcDbText
 10
2305.005024293009
 20
1595.68391601078
 30
0.0
 40
2.894847591463108
  1
HKS Plan vom: 
  7
ERSTELLTER_STIL_5
100
AcDbText
  0
LINE
  5
3DA
330
1F
100
AcDbEntity
  8
ET_LEGENDE - Wohnung$0$800_AL_ALLG_L
100
AcDbLine
 10
2304.488652132926
 20
1561.476389330771
 30
0.0
 11
2482.570742510564
 21
1561.476389330771
 31
0.0
  0
TEXT
  5
3DB
330
1F
100
AcDbEntity
  8
ET_LEGENDE - Wohnung$0$800_AL_ALLG_L
100
AcDbText
 10
2392.666618862009
 20
1451.212553743132
 30
0.0
 40
4.158671542972014
  1
Homepage: www.rivoplan.com
  7
ARIAL
 72
4
 11
2432.059110254561
 21
1452.680570471295
 31
0.0
100
AcDbText
  0
TEXT
  5
3DC
330
1F
100
AcDbEntity
  8
ET_LEGENDE - Wohnung$0$800_AL_ALLG_L
100
AcDbText
 10
2411.407878315495
 20
1472.259191218726
 30
0.0
 40
5.988487021879695
  1
Rivoplan
  7
ARIAL
100
AcDbText
  0
TEXT
  5
3DD
330
1F
100
AcDbEntity
  8
ET_LEGENDE - Wohnung$0$800_AL_ALLG_L
100
AcDbText
 10
2398.5577144669
 20
1459.997743340074
 30
0.0
 40
4.158671542972014
  1
E-Mail: office@rivoplan.at
  7
ARIAL
 72
4
 11
2431.696596434839
 21
1461.504056156798
 31
0.0
100
AcDbText
  0
LINE
  5
3DE
330
1F
100
AcDbEntity
  8
ET_LEGENDE - Wohnung$0$800_AL_ALLG_L
100
AcDbLine
 10
2482.681109240789
 20
1593.082756433149
 30
0.0
 11
2482.570742510564
 21
1578.608037174205
 31
0.0
  0
TEXT
  5
3DF
330
1F
100
AcDbEntity
  8
ET_LEGENDE - Wohnung$0$800_AL_ALLG_L
100
AcDbText
 10
2342.730855190714
 20
1317.47794648574
 30
0.0
 40
8.42489404255489
  1
Notbeleuchtungsplan
  7
ERSTELLTER_STIL_1
100
AcDbText
  0
TEXT
  5
3E0
330
1F
100
AcDbEntity
  8
ET_LEGENDE - Wohnung$0$800_AL_ALLG_L
100
AcDbText
 10
2344.267175636145
 20
1571.121129685401
 30
-2.593e-13
 40
1.806955433499871
  1
Elektromontageplan
  7
ERSTELLTER_STIL_5
100
AcDbText
  0
TEXT
  5
3E1
330
1F
100
AcDbEntity
  8
ET_LEGENDE - Wohnung$0$800_AL_ALLG_L
100
AcDbText
 10
2473.928067170334
 20
1571.288096371034
 30
-2.593e-13
 40
1.806955433499871
  1
MO
  7
ERSTELLTER_STIL_5
100
AcDbText
  0
TEXT
  5
3E2
330
1F
100
AcDbEntity
  8
ET_LEGENDE - Wohnung$0$800_AL_ALLG_L
100
AcDbText
 10
2308.897068770861
 20
1570.72784530207
 30
-2.593e-13
 40
2.562427361549509
  1
A
  7
ERSTELLTER_STIL_5
100
AcDbText
  0
TEXT
  5
3E3
330
1F
100
AcDbEntity
  8
ET_LEGENDE - Wohnung$0$800_AL_ALLG_L
100
AcDbText
 10
2491.191485040628
 20
1553.555641497618
 30
-8.17e-13
 40
8.073861698008697
  1
A
  7
ERSTELLTER_STIL_5
100
AcDbText
  0
LWPOLYLINE
  5
3E4
330
1F
100
AcDbEntity
  8
0
 62
18
420
0
100
AcDbPolyline
 90
2
 70
0
 10
2304.386744227866
 20
1625.501129752522
 10
2304.386744227866
 20
1304.262202925484
  0
IMAGE
  5
3E5
330
1F
100
AcDbEntity
  8
PDF2_Bilder
160
140
310
8C000000010000008400000006000000050000000241F9437301A24022CF20CE0460964000000000000000000241F9437301A240A1DECED2904B97400000000000000000C24850463977A240A1DECED2904B97400000000000000000C24850463977A24022CF20CE0460964000000000000000000241F9437301A24022CF20
310
CE046096400000000000000000
100
AcDbRasterImage
 90
0
 10
2304.72512797278
 20
1432.00469256653
 30
0.0
 11
0.0469591200976819
 21
0.0
 31
0.0
 12
0.0
 22
0.0469591200976819
 32
0.0
 13
1254.0
 23
1254.0
340
3AA
 70
15
280
0
281
50
282
50
283
0
360
3E6
 71
1
 91
2
 14
-0.5
 24
-0.5
 14
1253.5
 24
1253.5
290
0
  0
LWPOLYLINE
  5
3E7
330
1F
100
AcDbEntity
  8
0
 62
18
420
0
100
AcDbPolyline
 90
4
 70
1
 10
2485.192184093374
 20
1566.96871633987
 10
2506.957319162112
 20
1566.96871633987
 10
2506.957319162112
 20
1545.435310443824
 10
2485.192184093374
 20
1545.435310443824
  0
TEXT
  5
3E8
330
1F
100
AcDbEntity
  8
E_Muster
 62
102
420
2219575
100
AcDbText
 10
2336.286042108729
 20
1725.870656618017
 30
-5.4e-15
 40
5.813444891181037
  1
Notbeleuchtung-RZ- Pfeil nach unten
  7
ET_LEGENDE - Wohnung$0$ROMANS
 41
0.6
 11
2336.286042108729
 21
1728.777379063608
 31
-5.4e-15
100
AcDbText
 73
2
1001
ACAD
1000
ACAD_MTEXT_DEFINED_HEIGHT_BEGIN
1070
46
1040
0.0
1000
ACAD_MTEXT_DEFINED_HEIGHT_END
  0
TEXT
  5
3E9
330
1F
100
AcDbEntity
  8
E_Muster
 62
102
420
2219575
100
AcDbText
 10
2336.286042108729
 20
1714.83308184429
 30
-5.4e-15
 40
5.813444891181037
  1
Notbeleuchtung-RZ-Pfeil nach links
  7
ET_LEGENDE - Wohnung$0$ROMANS
 41
0.6
 11
2336.286042108729
 21
1717.73980428988
 31
-5.4e-15
100
AcDbText
 73
2
1001
ACAD
1000
ACAD_MTEXT_DEFINED_HEIGHT_BEGIN
1070
46
1040
0.0
1000
ACAD_MTEXT_DEFINED_HEIGHT_END
  0
TEXT
  5
3EA
330
1F
100
AcDbEntity
  8
E_Muster
 62
102
420
2219575
100
AcDbText
 10
2336.286042108729
 20
1704.710593738124
 30
-5.4e-15
 40
5.813444891181037
  1
Notbeleuchtung-RZ-Pfeil nach rechts
  7
ET_LEGENDE - Wohnung$0$ROMANS
 41
0.6
 11
2336.286042108729
 21
1707.617316183714
 31
-5.4e-15
100
AcDbText
 73
2
1001
ACAD
1000
ACAD_MTEXT_DEFINED_HEIGHT_BEGIN
1070
46
1040
0.0
1000
ACAD_MTEXT_DEFINED_HEIGHT_END
  0
TEXT
  5
3EB
330
1F
100
AcDbEntity
  8
E_Muster
 62
102
420
2219575
100
AcDbText
 10
2336.222514407016
 20
1692.841400567854
 30
-5.4e-15
 40
5.813444891181037
  1
Notbeleuchtung-Aufheller
  7
ET_LEGENDE - Wohnung$0$ROMANS
 41
0.6
 11
2336.222514407016
 21
1695.748123013444
 31
-5.4e-15
100
AcDbText
 73
2
1001
ACAD
1000
ACAD_MTEXT_DEFINED_HEIGHT_BEGIN
1070
46
1040
0.0
1000
ACAD_MTEXT_DEFINED_HEIGHT_END
  0
TEXT
  5
3EC
330
1F
100
AcDbEntity
  8
E_Muster
 62
102
420
2219575
100
AcDbText
 10
2336.286042108729
 20
1680.38865978063
 30
-5.4e-15
 40
5.813444891181037
  1
Notbeleuchtung-Antipanikleuchte
  7
ET_LEGENDE - Wohnung$0$ROMANS
 41
0.6
 11
2336.286042108729
 21
1683.295382226221
 31
-5.4e-15
100
AcDbText
 73
2
1001
ACAD
1000
ACAD_MTEXT_DEFINED_HEIGHT_BEGIN
1070
46
1040
0.0
1000
ACAD_MTEXT_DEFINED_HEIGHT_END
  0
TEXT
  5
3ED
330
1F
100
AcDbEntity
  8
E_Muster
 62
18
420
0
100
AcDbText
 10
2306.377446289112
 20
1743.890370637635
 30
-5.4e-15
 40
5.813444891181037
  1
Symbole
  7
ET_LEGENDE - Wohnung$0$ROMANS
 41
0.6
 11
2306.377446289112
 21
1746.797093083225
 31
-5.4e-15
100
AcDbText
 73
2
1001
ACAD
1000
ACAD_MTEXT_DEFINED_HEIGHT_BEGIN
1070
46
1040
0.0
1000
ACAD_MTEXT_DEFINED_HEIGHT_END
  0
TEXT
  5
3EE
330
1F
100
AcDbEntity
  8
E_Muster
 62
18
420
0
100
AcDbText
 10
2333.898798166668
 20
1743.961518348867
 30
-5.4e-15
 40
5.813444891181037
  1
Beschriftung
  7
ET_LEGENDE - Wohnung$0$ROMANS
 41
0.6
 11
2333.898798166668
 21
1746.868240794458
 31
-5.4e-15
100
AcDbText
 73
2
1001
ACAD
1000
ACAD_MTEXT_DEFINED_HEIGHT_BEGIN
1070
46
1040
0.0
1000
ACAD_MTEXT_DEFINED_HEIGHT_END
  0
LWPOLYLINE
  5
3EF
330
1F
100
AcDbEntity
  8
0
 62
18
420
0
100
AcDbPolyline
 90
4
 70
1
 10
2304.555138565372
 20
1741.41570197233
 10
2508.541265279847
 20
1741.41570197233
 10
2508.541265279847
 20
1611.669875880894
 10
2304.555138565372
 20
1611.669875880894
  0
LWPOLYLINE
  5
3F0
330
1F
100
AcDbEntity
  8
0
 62
18
420
0
100
AcDbPolyline
 90
2
 70
0
 10
2330.798180276374
 20
1741.320832901584
 10
2330.798180276374
 20
1611.669875880894
  0
LWPOLYLINE
  5
3F1
330
1F
100
AcDbEntity
  8
0
 62
18
420
0
100
AcDbPolyline
 90
4
 70
1
 10
2304.555138565372
 20
1741.41570197233
 10
2508.541265279847
 20
1741.41570197233
 10
2508.541265279847
 20
1750.858903515389
 10
2304.555138565372
 20
1750.858903515389
  0
LWPOLYLINE
  5
3F2
330
1F
100
AcDbEntity
  8
0
 62
18
420
0
100
AcDbPolyline
 90
2
 70
0
 10
2330.798180276374
 20
1741.320832901584
 10
2330.798180276374
 20
1750.858903515389
  0
LWPOLYLINE
  5
3F3
330
1F
100
AcDbEntity
  8
0
 62
18
420
0
100
AcDbPolyline
 90
4
 70
0
 10
2330.831867060002
 20
1722.496070351885
 10
2304.555138565372
 20
1722.496070351885
 10
2330.831867060002
 20
1722.496070351885
 10
2508.541265279847
 20
1722.496070351885
  0
LWPOLYLINE
  5
3F4
330
1F
100
AcDbEntity
  8
0
 62
18
420
0
100
AcDbPolyline
 90
4
 70
0
 10
2330.831867060002
 20
1712.073543877196
 10
2304.555138565372
 20
1712.073543877196
 10
2330.831867060002
 20
1712.073543877196
 10
2508.541265279847
 20
1712.073543877196
  0
LWPOLYLINE
  5
3F5
330
1F
100
AcDbEntity
  8
0
 62
18
420
0
100
AcDbPolyline
 90
4
 70
0
 10
2330.831867060002
 20
1701.493246495757
 10
2304.555138565372
 20
1701.493246495757
 10
2330.831867060002
 20
1701.493246495757
 10
2508.541265279847
 20
1701.493246495757
  0
LWPOLYLINE
  5
3F6
330
1F
100
AcDbEntity
  8
0
 62
18
420
0
100
AcDbPolyline
 90
4
 70
0
 10
2330.831867060002
 20
1689.495893526222
 10
2304.555138565372
 20
1689.495893526222
 10
2330.831867060002
 20
1689.495893526222
 10
2508.541265279847
 20
1689.495893526222
  0
INSERT
  5
3F7
330
1F
100
AcDbEntity
  8
0
100
AcDbBlockReference
  2
Aufheller Notbeleuchtung
 10
-1513.243052263021
 20
-1392.940738738172
 30
0.0
 41
2.079042355985015
 42
2.079042355985015
 43
2.079042355985015
  0
LWPOLYLINE
  5
3F8
330
1F
100
AcDbEntity
  8
0
 62
18
420
0
100
AcDbPolyline
 90
4
 70
0
 10
2330.831867060002
 20
1676.534968003543
 10
2304.555138565372
 20
1676.534968003543
 10
2330.831867060002
 20
1676.534968003543
 10
2508.541265279847
 20
1676.534968003543
  0
TEXT
  5
3F9
330
1F
100
AcDbEntity
  8
E_Muster
 62
102
420
2219575
100
AcDbText
 10
2336.286042108729
 20
1664.901452127743
 30
-5.4e-15
 40
5.813444891181037
  1
Notbeleuchtung-RZ-beidseitig
  7
ET_LEGENDE - Wohnung$0$ROMANS
 41
0.6
 11
2336.286042108729
 21
1667.808174573333
 31
-5.4e-15
100
AcDbText
 73
2
1001
ACAD
1000
ACAD_MTEXT_DEFINED_HEIGHT_BEGIN
1070
46
1040
0.0
1000
ACAD_MTEXT_DEFINED_HEIGHT_END
  0
LWPOLYLINE
  5
3FA
330
1F
100
AcDbEntity
  8
0
 62
18
420
0
100
AcDbPolyline
 90
4
 70
0
 10
2330.831867060002
 20
1650.183347969177
 10
2304.555138565372
 20
1650.183347969177
 10
2330.831867060002
 20
1650.183347969177
 10
2508.541265279847
 20
1650.183347969177
  0
TEXT
  5
3FB
330
1F
100
AcDbEntity
  8
E_Muster
 62
102
420
2219575
100
AcDbText
 10
2335.693146976522
 20
1635.59971580532
 30
-5.4e-15
 40
5.813444891181037
  1
Notbeleuchtung-Gruppenbatterie-Verteiler
  7
ET_LEGENDE - Wohnung$0$ROMANS
 41
0.6
 11
2335.693146976522
 21
1638.50643825091
 31
-5.4e-15
100
AcDbText
 73
2
1001
ACAD
1000
ACAD_MTEXT_DEFINED_HEIGHT_BEGIN
1070
46
1040
0.0
1000
ACAD_MTEXT_DEFINED_HEIGHT_END
  0
LWPOLYLINE
  5
3FC
330
1F
100
AcDbEntity
  8
0
100
AcDbPolyline
 90
4
 70
1
 10
2304.386744227866
 20
1304.262202925484
 10
2509.077438675826
 20
1304.262202925484
 10
2509.077438675826
 20
1834.031477278738
 10
2304.386744227866
 20
1834.031477278738
  0
INSERT
  5
3FD
330
1F
100
AcDbEntity
  8
din_SIBEL_10_emergency_lighting
100
AcDbBlockReference
  2
Spot Notbeleuchtung
 10
2314.933538952516
 20
1620.650040855017
 30
0.0
 41
2.155340094809341
 42
2.155340094809341
 43
0.0116504869989694
1001
NOTBELEUCHTUNG
1000
stromkreis=AGV-A-F13
  0
LWPOLYLINE
  5
3FE
330
1F
100
AcDbEntity
  8
0
 62
18
420
0
100
AcDbPolyline
 90
4
 70
0
 10
2330.798180276374
 20
1629.16186415807
 10
2304.521451781745
 20
1629.16186415807
 10
2330.798180276374
 20
1629.16186415807
 10
2508.507578496219
 20
1629.16186415807
  0
TEXT
  5
3FF
330
1F
100
AcDbEntity
  8
E_Muster
 62
102
420
2219575
100
AcDbText
 10
2336.527159322635
 20
1617.878723489342
 30
-5.4e-15
 40
5.813444891181037
  1
Notbeleuchtung-Spot-Aufheller
  7
ET_LEGENDE - Wohnung$0$ROMANS
 41
0.6
 11
2336.527159322635
 21
1620.785445934933
 31
-5.4e-15
100
AcDbText
 73
2
1001
ACAD
1000
ACAD_MTEXT_DEFINED_HEIGHT_BEGIN
1070
46
1040
0.0
1000
ACAD_MTEXT_DEFINED_HEIGHT_END
  0
INSERT
  5
400
330
1F
100
AcDbEntity
  8
0
100
AcDbBlockReference
  2
Gruppenbatterie-Verteiler
 10
216.9259111959582
 20
997.5840812146074
 30
0.0
  0
INSERT
  5
433
330
1F
100
AcDbEntity
  8
0
100
AcDbBlockReference
  2
Antipanikleuchte-RIVO
 10
-1410.144447720193
 20
-241.2086617032235
 30
0.0
  0
INSERT
  5
441
330
1F
100
AcDbEntity
  8
0
100
AcDbBlockReference
  2
RIVO_NL_ARR_down
 10
0.0
 20
0.0
 30
0.0
  0
INSERT
  5
460
330
1F
100
AcDbEntity
  8
0
100
AcDbBlockReference
  2
RIVO_NL_ARR_left
 10
0.0
 20
0.0
 30
0.0
  0
INSERT
  5
47E
330
1F
100
AcDbEntity
  8
0
100
AcDbBlockReference
  2
RIVO_NL_ARR_right
 10
0.0
 20
0.0
 30
0.0
  0
INSERT
  5
4A6
330
1F
100
AcDbEntity
  8
0
100
AcDbBlockReference
  2
RIVO_NL_ARR_bothsided
 10
0.0
 20
0.0
 30
0.0
  0
ENDSEC
  0
SECTION
  2
OBJECTS
  0
DICTIONARY
  5
C
330
0
100
AcDbDictionary
281
1
  3
ACAD_CIP_PREVIOUS_PRODUCT_INFO
350
216
  3
ACAD_COLOR
350
6B
  3
ACAD_DETAILVIEWSTYLE
350
21B
  3
ACAD_GROUP
350
D
  3
ACAD_IMAGE_DICT
350
3A9
  3
ACAD_IMAGE_VARS
350
3B0
  3
ACAD_LAST_SAVED_VERSION_INFO
350
4C1
  3
ACAD_LAYOUT
350
1A
  3
ACAD_MATERIAL
350
6A
  3
ACAD_MLEADERSTYLE
350
12D
  3
ACAD_MLINESTYLE
350
17
  3
ACAD_PLOTSETTINGS
350
19
  3
ACAD_PLOTSTYLENAME
350
E
  3
ACAD_SCALELIST
350
10C
  3
ACAD_SECTIONVIEWSTYLE
350
219
  3
ACAD_TABLESTYLE
350
7E
  3
ACAD_VISUALSTYLE
350
EF
  3
ACDB_RECOMPOSE_DATA
350
4C3
  3
ACDBVARIABLEDICTIONARY
350
306
  3
EZDXF_META
350
4D6
  0
DICTIONARY
  5
1FF
330
2
100
AcDbDictionary
280
1
281
1
  3
ACAD_LAYERSTATES
360
200
  0
DICTIONARY
  5
13C
330
10
100
AcDbDictionary
280
1
281
1
  0
DICTIONARY
  5
2F9
330
2F8
100
AcDbDictionary
280
1
281
1
  0
DICTIONARY
  5
2FB
330
2FA
100
AcDbDictionary
280
1
281
1
  0
DICTIONARY
  5
1CE
330
1F
100
AcDbDictionary
280
1
281
1
  0
IMAGEDEF_REACTOR
  5
3E6
330
3E5
100
AcDbRasterImageDefReactor
 90
2
330
3E5
  0
XRECORD
  5
216
102
{ACAD_REACTORS
330
C
102
}
330
C
100
AcDbXrecord
280
1
300
ACDLT
300
2026
300

  0
DICTIONARY
  5
6B
102
{ACAD_REACTORS
330
C
102
}
330
C
100
AcDbDictionary
281
1
  0
DICTIONARY
  5
21B
102
{ACAD_REACTORS
330
C
102
}
330
C
100
AcDbDictionary
281
1
  3
Metric50
350
21C
  0
DICTIONARY
  5
D
102
{ACAD_REACTORS
330
C
102
}
330
C
100
AcDbDictionary
281
1
  0
DICTIONARY
  5
3A9
102
{ACAD_REACTORS
330
C
102
}
330
C
100
AcDbDictionary
281
1
  3
rivoplan_logo_schwarz_transparent_exakta24392bd
350
3AA
  0
RASTERVARIABLES
  5
3B0
102
{ACAD_REACTORS
330
C
102
}
330
C
100
AcDbRasterVariables
 90
0
 70
1
 71
1
 72
1
  0
XRECORD
  5
4C1
102
{ACAD_REACTORS
330
C
102
}
330
C
100
AcDbXrecord
280
1
300
{5A14EB17-2E9D-B349-AB5F-676095A4B19F}
301
{6C752F05-1998-F14B-9108-12E64B4AD82C}
302
{5A14EB17-2E9D-B349-AB5F-676095A4B19F}
303
C:\Users\mvpst\Documents\KI-Projekt\Notbeleuchtung\CAD_Symbole\Rivoplan_Notbeleuchtungs_Symbole.dxf
  0
DICTIONARY
  5
1A
102
{ACAD_REACTORS
330
C
102
}
330
C
100
AcDbDictionary
281
1
  3
Layout1
350
D3
  3
Layout2
350
D7
  3
Model
350
22
  0
DICTIONARY
  5
6A
102
{ACAD_REACTORS
330
C
102
}
330
C
100
AcDbDictionary
281
1
  3
ByBlock
350
ED
  3
ByLayer
350
EC
  3
Global
350
EE
  0
DICTIONARY
  5
12D
102
{ACAD_REACTORS
330
C
102
}
330
C
100
AcDbDictionary
281
1
  3
Beschriftung
350
13B
  3
Standard
350
12E
  0
DICTIONARY
  5
17
102
{ACAD_REACTORS
330
C
102
}
330
C
100
AcDbDictionary
281
1
  3
Standard
350
18
  0
DICTIONARY
  5
19
102
{ACAD_REACTORS
330
C
102
}
330
C
100
AcDbDictionary
281
1
  0
ACDBDICTIONARYWDFLT
  5
E
102
{ACAD_REACTORS
330
C
102
}
330
C
100
AcDbDictionary
281
1
  3
Normal
350
F
100
AcDbDictionaryWithDefault
340
F
  0
DICTIONARY
  5
10C
102
{ACAD_REACTORS
330
C
102
}
330
C
100
AcDbDictionary
281
1
  3
A0
350
10D
  3
A1
350
1BE
  3
A2
350
1BF
  3
A3
350
1C0
  3
A4
350
1C1
  3
A5
350
1C2
  3
A6
350
1C3
  3
A7
350
1C4
  3
A8
350
1C5
  3
A9
350
1C6
  3
B0
350
1C7
  3
B1
350
1C8
  3
B2
350
1C9
  3
B3
350
1CA
  3
B4
350
1CB
  3
B5
350
1CC
  3
B6
350
1CD
  0
DICTIONARY
  5
219
102
{ACAD_REACTORS
330
C
102
}
330
C
100
AcDbDictionary
281
1
  3
Metric50
350
21A
  0
DICTIONARY
  5
7E
102
{ACAD_REACTORS
330
C
102
}
330
C
100
AcDbDictionary
281
1
  3
Standard
350
7F
  0
DICTIONARY
  5
EF
102
{ACAD_REACTORS
330
C
102
}
330
C
100
AcDbDictionary
281
1
  3
2dWireframe
350
F5
  3
Basic
350
F4
  3
Brighten
350
FB
  3
ColorChange
350
FF
  3
Conceptual
350
F8
  3
Dim
350
FA
  3
EdgeColorOff
350
1E6
  3
Facepattern
350
FE
  3
Flat
350
F0
  3
FlatWithEdges
350
F1
  3
Gouraud
350
F2
  3
GouraudWithEdges
350
F3
  3
Hidden
350
F7
  3
JitterOff
350
1E4
  3
Linepattern
350
FD
  3
OverhangOff
350
1E5
  3
Realistic
350
F9
  3
Shaded
350
1F3
  3
Shaded with edges
350
1F2
  3
Shades of Gray
350
1EF
  3
Sketchy
350
1F0
  3
Thicken
350
FC
  3
Wireframe
350
F6
  3
X-Ray
350
1F1
  0
XRECORD
  5
4C3
102
{ACAD_REACTORS
330
C
102
}
330
C
100
AcDbXrecord
280
1
 90
1
330
7F
  0
DICTIONARY
  5
306
102
{ACAD_REACTORS
330
C
102
}
330
C
100
AcDbDictionary
281
2
  3
#COMPAREDIFFTOTAL
350
307
  3
#REVCLOUDAPPROXARCLEN
350
308
  3
ANNOALLVISIBLE
350
309
  3
CANNOSCALE
350
30A
  3
CMLEADERSTYLE
350
30B
  3
CTABLESTYLE
350
30C
  3
CVIEWDETAILSTYLE
350
30D
  3
CVIEWSECTIONSTYLE
350
30E
  3
DIMADEC
350
30F
  3
DIMASSOC
350
310
  3
GEOMARKERVISIBILITY
350
311
  3
HPCOLOR
350
312
  3
HPINHERIT
350
313
  3
HPORIGIN
350
314
  3
HPTRANSPARENCY
350
315
  3
INDEXCTL
350
316
  3
LAYEREVAL
350
317
  3
LAYERNOTIFY
350
318
  3
LIGHTINGUNITS
350
319
  3
MLEADERSCALE
350
31A
  3
MSLTSCALE
350
31B
  3
OLEFRAME
350
31C
  3
PDFFRAME
350
31D
  3
SOLIDHIST
350
31E
  3
SORTENTS
350
31F
  3
UPDATETHUMBNAIL
350
320
  0
DICTIONARY
  5
200
102
{ACAD_REACTORS
330
1FF
102
}
330
1FF
100
AcDbDictionary
281
1
  0
ACDBDETAILVIEWSTYLE
  5
21C
102
{ACAD_REACTORS
330
21B
102
}
330
21B
100
AcDbModelDocViewStyle
 70
0
  3
Metric50
290
0
300
Metric50
 90
0
100
AcDbDetailViewStyle
 70
0
 71
0
 90
3
 71
1
340
11
 62
256
 40
5.0
340
0
 62
256
 40
5.0
300

 40
0.0
280
1
 71
2
340
16
 90
25
 62
256
 71
3
340
11
 62
256
 40
5.0
 90
0
 40
15.0
 90
1
300
%<\AcVar ViewDetailId>% (%<\AcVar ViewScale \f "%sn">%)
 71
4
340
16
 90
25
 62
256
340
16
 90
25
 62
256
280
0
  0
IMAGEDEF
  5
3AA
102
{ACAD_REACTORS
330
357
330
3A9
330
3E6
102
}
330
3A9
100
AcDbRasterImageDef
 90
0
  1
C:\Users\mvpst\Downloads\PDF Images\rivoplan_logo_schwarz_transparent_exakta24392bd.png
 10
1254.0
 20
1254.0
 11
0.0007974481658692
 21
0.0007974481658692
280
1
281
0
  0
LAYOUT
  5
D3
102
{ACAD_REACTORS
330
1A
102
}
330
1A
100
AcDbPlotSettings
  1

  2
C:\Documents and Settings\basas\Application Data\Autodesk\AutoCAD 2005\R16.1\enu\plotters\Default Windows System Printer.pc3
  4

  6

 40
0.0
 41
0.0
 42
0.0
 43
0.0
 44
0.0
 45
0.0
 46
0.0
 47
0.0
 48
0.0
 49
0.0
140
0.0
141
0.0
142
1.0
143
1.0
 70
688
 72
0
 73
0
 74
5
  7

 75
16
 76
0
 77
2
 78
300
147
1.0
148
0.0
149
0.0
100
AcDbLayout
  1
Layout1
 70
1
 71
1
 10
0.0
 20
0.0
 11
12.0
 21
9.0
 12
0.0
 22
0.0
 32
0.0
 14
0.0
 24
0.0
 34
0.0
 15
0.0
 25
0.0
 35
0.0
146
0.0
 13
0.0
 23
0.0
 33
0.0
 16
1.0
 26
0.0
 36
0.0
 17
0.0
 27
1.0
 37
0.0
 76
0
330
D2
  0
LAYOUT
  5
D7
102
{ACAD_REACTORS
330
1A
102
}
330
1A
100
AcDbPlotSettings
  1

  2
C:\Documents and Settings\basas\Application Data\Autodesk\AutoCAD 2005\R16.1\enu\plotters\Default Windows System Printer.pc3
  4

  6

 40
0.0
 41
0.0
 42
0.0
 43
0.0
 44
0.0
 45
0.0
 46
0.0
 47
0.0
 48
0.0
 49
0.0
140
0.0
141
0.0
142
1.0
143
1.0
 70
688
 72
0
 73
0
 74
5
  7

 75
16
 76
0
 77
2
 78
300
147
1.0
148
0.0
149
0.0
100
AcDbLayout
  1
Layout2
 70
1
 71
2
 10
0.0
 20
0.0
 11
12.0
 21
9.0
 12
0.0
 22
0.0
 32
0.0
 14
0.0
 24
0.0
 34
0.0
 15
0.0
 25
0.0
 35
0.0
146
0.0
 13
0.0
 23
0.0
 33
0.0
 16
1.0
 26
0.0
 36
0.0
 17
0.0
 27
1.0
 37
0.0
 76
0
330
D6
  0
LAYOUT
  5
22
102
{ACAD_XDICTIONARY
360
205
102
}
102
{ACAD_REACTORS
330
1A
102
}
330
1A
100
AcDbPlotSettings
  1

  2
none_device
  4
ISO_A4_(210.00_x_297.00_MM)
  6

 40
7.5
 41
20.0
 42
7.5
 43
20.0
 44
210.0
 45
297.0
 46
11.54999923706054
 47
-13.65000009536743
 48
0.0
 49
0.0
140
0.0
141
0.0
142
1.0
143
8.704084754739808
 70
11952
 72
1
 73
0
 74
0
  7

 75
0
 76
0
 77
2
 78
300
147
0.1148885871608098
148
0.0
149
0.0
100
AcDbLayout
  1
Model
 70
1
 71
0
 10
0.0
 20
0.0
 11
12.0
 21
9.0
 12
0.0
 22
0.0
 32
0.0
 14
0.0
 24
0.0
 34
0.0
 15
0.0
 25
0.0
 35
0.0
146
0.0
 13
0.0
 23
0.0
 33
0.0
 16
1.0
 26
0.0
 36
0.0
 17
0.0
 27
1.0
 37
0.0
 76
0
330
1F
331
EA
1001
ACAD_PSEXT
1000
None
1000
None
1000
Not applicable
1000
The layout will not be plotted unless a new plotter configuration name is selected.
1070
0
  0
MATERIAL
  5
ED
102
{ACAD_XDICTIONARY
360
1F9
102
}
102
{ACAD_REACTORS
330
6A
102
}
330
6A
100
AcDbMaterial
  1
ByBlock
  2

 70
0
 40
1.0
 71
0
 41
1.0
 91
-1023410177
 42
1.0
 72
1
  3

 73
1
 74
1
 75
1
 44
0.5
 73
0
 45
1.0
 46
1.0
 77
1
  4

 78
1
 79
1
170
1
 48
1.0
171
1
  6

172
1
173
1
174
1
140
1.0
141
1.0
175
1
  7

176
1
177
1
178
1
143
1.0
179
1
  8

270
1
271
1
272
1
145
1.0
146
1.0
273
1
  9

274
1
275
1
276
1
 42
1.0
 72
1
  3

 73
1
 74
1
 75
1
 94
63
  0
MATERIAL
  5
EC
102
{ACAD_XDICTIONARY
360
1F7
102
}
102
{ACAD_REACTORS
330
6A
102
}
330
6A
100
AcDbMaterial
  1
ByLayer
  2

 70
0
 40
1.0
 71
0
 41
1.0
 91
-1023410177
 42
1.0
 72
1
  3

 73
1
 74
1
 75
1
 44
0.5
 73
0
 45
1.0
 46
1.0
 77
1
  4

 78
1
 79
1
170
1
 48
1.0
171
1
  6

172
1
173
1
174
1
140
1.0
141
1.0
175
1
  7

176
1
177
1
178
1
143
1.0
179
1
  8

270
1
271
1
272
1
145
1.0
146
1.0
273
1
  9

274
1
275
1
276
1
 42
1.0
 72
1
  3

 73
1
 74
1
 75
1
 94
63
  0
MATERIAL
  5
EE
102
{ACAD_XDICTIONARY
360
173
102
}
102
{ACAD_REACTORS
330
6A
102
}
330
6A
100
AcDbMaterial
  1
Global
  2

 70
0
 40
1.0
 71
0
 41
1.0
 91
-1023410177
 42
1.0
 72
1
  3

 73
1
 74
1
 75
1
 43
0.0007999999797903
 43
0.0
 43
0.0
 43
0.0
 43
0.0
 43
0.0007999999797903
 43
0.0
 43
0.0
 43
0.0
 43
0.0
 43
1.0
 43
0.0
 43
0.0
 43
0.0
 43
0.0
 43
1.0
 44
0.5
 73
0
 45
1.0
 46
1.0
 77
1
  4

 78
1
 79
1
170
1
 48
1.0
171
1
  6

172
1
173
1
174
1
 49
0.0007999999797903
 49
0.0
 49
0.0
 49
0.0
 49
0.0
 49
0.0007999999797903
 49
0.0
 49
0.0
 49
0.0
 49
0.0
 49
1.0
 49
0.0
 49
0.0
 49
0.0
 49
0.0
 49
1.0
140
1.0
141
1.0
175
1
  7

176
1
177
1
178
1
142
0.0007999999797903
142
0.0
142
0.0
142
0.0
142
0.0
142
0.0007999999797903
142
0.0
142
0.0
142
0.0
142
0.0
142
1.0
142
0.0
142
0.0
142
0.0
142
0.0
142
1.0
143
1.0
179
1
  8

270
1
271
1
272
1
144
0.0007999999797903
144
0.0
144
0.0
144
0.0
144
0.0
144
0.0007999999797903
144
0.0
144
0.0
144
0.0
144
0.0
144
1.0
144
0.0
144
0.0
144
0.0
144
0.0
144
1.0
145
1.0
146
1.0
273
1
  9

274
1
275
1
276
1
 42
1.0
 72
1
  3

 73
1
 74
1
 75
1
 94
63
1001
ACAD
1070
-1
1070
3
1070
0
1000

1071
0
1070
0
  0
MLEADERSTYLE
  5
13B
102
{ACAD_REACTORS
330
12D
102
}
330
12D
100
AcDbMLeaderStyle
179
2
170
2
171
1
172
0
 90
2
 40
0.0
 41
0.0
173
1
 91
-1056964608
340
14
 92
-2
290
1
 42
2.0
291
1
 43
8.0
  3
Standard
 44
4.0
300

342
11
174
1
175
1
176
0
178
1
 93
-1056964608
 45
4.0
292
0
297
0
 46
4.0
293
1
 94
-1056964608
 47
1.0
 49
1.0
140
1.0
294
1
141
0.0
177
0
142
1.0
295
0
296
1
143
3.75
271
0
272
9
273
9
298
0
  0
MLEADERSTYLE
  5
12E
102
{ACAD_REACTORS
330
12D
102
}
330
12D
100
AcDbMLeaderStyle
179
2
170
2
171
1
172
0
 90
2
 40
0.0
 41
0.0
173
1
 91
-1056964608
340
14
 92
-2
290
1
 42
2.0
291
1
 43
8.0
  3
Standard
 44
4.0
300

342
11
174
1
175
1
176
0
178
1
 93
-1056964608
 45
4.0
292
0
297
0
 46
4.0
293
1
 94
-1056964608
 47
1.0
 49
1.0
140
1.0
294
1
141
0.0
177
0
142
1.0
295
0
296
0
143
3.75
271
0
272
9
273
9
298
0
  0
MLINESTYLE
  5
18
102
{ACAD_REACTORS
330
17
102
}
330
17
100
AcDbMlineStyle
  2
STANDARD
 70
0
  3

 62
256
 51
90.0
 52
90.0
 71
2
 49
0.5
 62
256
  6
BYLAYER
 49
-0.5
 62
256
  6
BYLAYER
  0
ACDBPLACEHOLDER
  5
F
102
{ACAD_REACTORS
330
E
102
}
330
E
  0
SCALE
  5
10D
102
{ACAD_REACTORS
330
10C
102
}
330
10C
100
AcDbScale
 70
0
300
1:1
140
1.0
141
1.0
290
1
  0
SCALE
  5
1BE
102
{ACAD_REACTORS
330
10C
102
}
330
10C
100
AcDbScale
 70
0
300
1:2
140
1.0
141
2.0
290
0
  0
SCALE
  5
1BF
102
{ACAD_REACTORS
330
10C
102
}
330
10C
100
AcDbScale
 70
0
300
1:4
140
1.0
141
4.0
290
0
  0
SCALE
  5
1C0
102
{ACAD_REACTORS
330
10C
102
}
330
10C
100
AcDbScale
 70
0
300
1:5
140
1.0
141
5.0
290
0
  0
SCALE
  5
1C1
102
{ACAD_REACTORS
330
10C
102
}
330
10C
100
AcDbScale
 70
0
300
1:8
140
1.0
141
8.0
290
0
  0
SCALE
  5
1C2
102
{ACAD_REACTORS
330
10C
102
}
330
10C
100
AcDbScale
 70
0
300
1:10
140
1.0
141
10.0
290
0
  0
SCALE
  5
1C3
102
{ACAD_REACTORS
330
10C
102
}
330
10C
100
AcDbScale
 70
0
300
1:16
140
1.0
141
16.0
290
0
  0
SCALE
  5
1C4
102
{ACAD_REACTORS
330
10C
102
}
330
10C
100
AcDbScale
 70
0
300
1:20
140
1.0
141
20.0
290
0
  0
SCALE
  5
1C5
102
{ACAD_REACTORS
330
10C
102
}
330
10C
100
AcDbScale
 70
0
300
1:30
140
1.0
141
30.0
290
0
  0
SCALE
  5
1C6
102
{ACAD_REACTORS
330
10C
102
}
330
10C
100
AcDbScale
 70
0
300
1:40
140
1.0
141
40.0
290
0
  0
SCALE
  5
1C7
102
{ACAD_REACTORS
330
10C
102
}
330
10C
100
AcDbScale
 70
0
300
1:50
140
1.0
141
50.0
290
0
  0
SCALE
  5
1C8
102
{ACAD_REACTORS
330
10C
102
}
330
10C
100
AcDbScale
 70
0
300
1:100
140
1.0
141
100.0
290
0
  0
SCALE
  5
1C9
102
{ACAD_REACTORS
330
10C
102
}
330
10C
100
AcDbScale
 70
0
300
2:1
140
2.0
141
1.0
290
0
  0
SCALE
  5
1CA
102
{ACAD_REACTORS
330
10C
102
}
330
10C
100
AcDbScale
 70
0
300
4:1
140
4.0
141
1.0
290
0
  0
SCALE
  5
1CB
102
{ACAD_REACTORS
330
10C
102
}
330
10C
100
AcDbScale
 70
0
300
8:1
140
8.0
141
1.0
290
0
  0
SCALE
  5
1CC
102
{ACAD_REACTORS
330
10C
102
}
330
10C
100
AcDbScale
 70
0
300
10:1
140
10.0
141
1.0
290
0
  0
SCALE
  5
1CD
102
{ACAD_REACTORS
330
10C
102
}
330
10C
100
AcDbScale
 70
0
300
100:1
140
100.0
141
1.0
290
0
  0
ACDBSECTIONVIEWSTYLE
  5
21A
102
{ACAD_REACTORS
330
219
102
}
330
219
100
AcDbModelDocViewStyle
 70
0
  3
Metric50
290
0
300
Metric50
 90
0
100
AcDbSectionViewStyle
 70
0
 71
0
 90
102
 71
1
340
11
 62
256
 40
5.0
340
0
340
0
 62
256
 40
5.0
300
I, O, Q, S, X, Z
 40
10.0
 90
0
 40
2.5
 90
0
 71
2
340
16
 90
25
 62
256
340
16
 90
50
 62
256
 40
5.0
 40
2.5
 40
5.0
 71
3
340
11
 62
256
 40
5.0
 90
0
 40
15.0
 90
1
300
%<\AcVar ViewSectionStartId>%-%<\AcVar ViewSectionEndId>% (%<\AcVar ViewScale \f "%sn">%)
 71
4
 62
256
 62
257
300
ANSI31
 40
1.0
 90
0
290
0
290
0
 90
6
 40
0.0
 40
1.570796326794896
 40
0.2617993877991494
 40
1.308996938995747
 40
-0.2617993877991494
 40
1.832595714594046
  0
TABLESTYLE
  5
7F
102
{ACAD_XDICTIONARY
360
162
102
}
102
{ACAD_REACTORS
330
7E
102
}
330
7E
100
AcDbTableStyle
280
0
  3
Standard
 70
0
 71
0
 40
1.5
 41
1.5
280
0
281
0
  7
Standard
140
4.5
170
2
 62
0
 63
7
283
0
 90
512
 91
0
  1

274
-2
284
1
 64
0
275
-2
285
1
 65
0
276
-2
286
1
 66
0
277
-2
287
1
 67
0
278
-2
288
1
 68
0
279
-2
289
1
 69
0
  7
Standard
140
6.0
170
5
 62
0
 63
7
283
0
 90
512
 91
0
  1

274
-2
284
1
 64
0
275
-2
285
1
 65
0
276
-2
286
1
 66
0
277
-2
287
1
 67
0
278
-2
288
1
 68
0
279
-2
289
1
 69
0
  7
Standard
140
4.5
170
5
 62
0
 63
7
283
0
 90
512
 91
0
  1

274
-2
284
1
 64
0
275
-2
285
1
 65
0
276
-2
286
1
 66
0
277
-2
287
1
 67
0
278
-2
288
1
 68
0
279
-2
289
1
 69
0
  0
VISUALSTYLE
  5
F5
102
{ACAD_REACTORS
330
EF
102
}
330
EF
100
AcDbVisualStyle
  2
2dWireframe
 70
4
177
3
291
0
 70
58
 90
0
176
1
 90
2
176
1
 90
1
176
1
 90
0
176
1
 40
0.6
176
1
 40
30.0
176
1
 62
7
420
16777215
176
1
 90
1
176
1
 90
4
176
1
 62
7
176
1
 62
257
176
1
 90
1
176
1
 90
1
176
1
 40
1.0
176
1
 90
0
176
1
 62
257
176
1
 40
1.0
176
1
 90
1
176
1
 90
6
176
1
 90
2
176
1
 62
7
176
1
 90
5
176
1
 90
0
176
1
 90
0
176
1
290
0
176
1
 90
1
176
1
 40
0.0
176
1
 90
0
176
1
290
1
176
1
290
1
176
1
290
0
176
1
290
0
176
1
290
0
176
1
290
0
176
1
290
0
176
1
290
0
176
1
290
0
176
1
 90
50
176
1
 40
0.0
176
1
 40
1.0
176
1
 90
0
176
1
 62
18
420
0
176
1
 90
50
176
1
 90
3
176
1
 62
5
420
255
176
1
290
0
176
1
 90
50
176
1
 90
50
176
1
 90
50
176
1
290
0
176
1
 90
50
176
1
 62
256
176
0
 40
1.0
176
0
 90
2
176
1
  1
strokes_ogs.tif
176
1
290
0
176
1
 40
1.0
176
1
 40
1.0
176
1
  0
VISUALSTYLE
  5
F4
102
{ACAD_REACTORS
330
EF
102
}
330
EF
100
AcDbVisualStyle
  2
Basic
 70
7
177
3
291
1
 70
58
 90
1
176
1
 90
0
176
1
 90
1
176
1
 90
0
176
1
 40
0.6
176
1
 40
30.0
176
1
 62
7
420
16777215
176
1
 90
0
176
1
 90
4
176
1
 62
7
176
1
 62
257
176
1
 90
1
176
1
 90
1
176
1
 40
1.0
176
1
 90
8
176
1
 62
7
176
1
 40
1.0
176
1
 90
1
176
1
 90
6
176
1
 90
2
176
1
 62
7
176
1
 90
5
176
1
 90
0
176
1
 90
0
176
1
290
0
176
1
 90
1
176
1
 40
0.0
176
1
 90
0
176
1
290
0
176
1
290
1
176
1
290
1
176
1
290
0
176
1
290
0
176
1
290
0
176
1
290
0
176
1
290
0
176
1
290
0
176
1
 90
50
176
1
 40
0.0
176
1
 40
1.0
176
1
 90
0
176
1
 62
18
420
0
176
1
 90
50
176
1
 90
3
176
1
 62
5
420
255
176
1
290
0
176
1
 90
50
176
1
 90
50
176
1
 90
50
176
1
290
0
176
1
 90
50
176
1
 62
256
176
0
 40
1.0
176
0
 90
2
176
1
  1
strokes_ogs.tif
176
1
290
0
176
1
 40
1.0
176
1
 40
1.0
176
1
  0
VISUALSTYLE
  5
FB
102
{ACAD_REACTORS
330
EF
102
}
330
EF
100
AcDbVisualStyle
  2
Brighten
 70
12
177
3
291
1
 70
58
 90
2
176
1
 90
2
176
1
 90
1
176
1
 90
0
176
1
 40
0.6
176
1
 40
30.0
176
1
 62
7
420
16777215
176
1
 90
1
176
1
 90
4
176
1
 62
7
176
1
 62
257
176
1
 90
1
176
1
 90
1
176
1
 40
1.0
176
1
 90
8
176
1
 62
7
176
1
 40
1.0
176
1
 90
1
176
1
 90
6
176
1
 90
2
176
1
 62
7
176
1
 90
5
176
1
 90
0
176
1
 90
0
176
1
290
0
176
1
 90
1
176
1
 40
50.0
176
1
 90
0
176
1
290
0
176
1
290
1
176
1
290
1
176
1
290
0
176
1
290
0
176
1
290
0
176
1
290
0
176
1
290
0
176
1
290
0
176
1
 90
50
176
1
 40
0.0
176
1
 40
1.0
176
1
 90
0
176
1
 62
18
420
0
176
1
 90
50
176
1
 90
3
176
1
 62
5
420
255
176
1
290
0
176
1
 90
50
176
1
 90
50
176
1
 90
50
176
1
290
0
176
1
 90
50
176
1
 62
256
176
0
 40
1.0
176
0
 90
2
176
1
  1
strokes_ogs.tif
176
1
290
0
176
1
 40
1.0
176
1
 40
1.0
176
1
  0
VISUALSTYLE
  5
FF
102
{ACAD_REACTORS
330
EF
102
}
330
EF
100
AcDbVisualStyle
  2
ColorChange
 70
16
177
3
291
1
 70
58
 90
2
176
1
 90
2
176
1
 90
3
176
1
 90
0
176
1
 40
0.6
176
1
 40
30.0
176
1
 62
8
420
8421504
176
1
 90
1
176
1
 90
4
176
1
 62
7
176
1
 62
257
176
1
 90
1
176
1
 90
1
176
1
 40
1.0
176
1
 90
8
176
1
 62
8
420
8421504
176
1
 40
1.0
176
1
 90
1
176
1
 90
6
176
1
 90
2
176
1
 62
7
176
1
 90
5
176
1
 90
0
176
1
 90
0
176
1
290
0
176
1
 90
1
176
1
 40
0.0
176
1
 90
0
176
1
290
0
176
1
290
1
176
1
290
1
176
1
290
0
176
1
290
0
176
1
290
0
176
1
290
0
176
1
290
0
176
1
290
0
176
1
 90
50
176
1
 40
0.0
176
1
 40
1.0
176
1
 90
0
176
1
 62
18
420
0
176
1
 90
50
176
1
 90
3
176
1
 62
5
420
255
176
1
290
0
176
1
 90
50
176
1
 90
50
176
1
 90
50
176
1
290
0
176
1
 90
50
176
1
 62
256
176
0
 40
1.0
176
0
 90
2
176
1
  1
strokes_ogs.tif
176
1
290
0
176
1
 40
1.0
176
1
 40
1.0
176
1
  0
VISUALSTYLE
  5
F8
102
{ACAD_REACTORS
330
EF
102
}
330
EF
100
AcDbVisualStyle
  2
Conceptual
 70
9
177
3
291
0
 70
58
 90
3
176
1
 90
2
176
1
 90
1
176
1
 90
0
176
1
 40
0.6
176
1
 40
30.0
176
1
 62
7
420
16777215
176
1
 90
2
176
1
 90
2
176
1
 62
7
176
1
 62
257
176
1
 90
1
176
1
 90
1
176
1
 40
40.0
176
1
 90
8
176
1
 62
7
176
1
 40
1.0
176
1
 90
1
176
1
 90
6
176
1
 90
2
176
1
 62
7
176
1
 90
3
176
1
 90
0
176
1
 90
0
176
1
290
0
176
1
 90
1
176
1
 40
0.0
176
1
 90
0
176
1
290
0
176
1
290
1
176
1
290
1
176
1
290
0
176
1
290
0
176
1
290
0
176
1
290
0
176
1
290
0
176
1
290
0
176
1
 90
50
176
1
 40
0.0
176
1
 40
1.0
176
1
 90
0
176
1
 62
18
420
0
176
1
 90
50
176
1
 90
3
176
1
 62
5
420
255
176
1
290
0
176
1
 90
50
176
1
 90
50
176
1
 90
50
176
1
290
0
176
1
 90
50
176
1
 62
256
176
0
 40
1.0
176
0
 90
2
176
1
  1
strokes_ogs.tif
176
1
290
0
176
1
 40
1.0
176
1
 40
1.0
176
1
  0
VISUALSTYLE
  5
FA
102
{ACAD_REACTORS
330
EF
102
}
330
EF
100
AcDbVisualStyle
  2
Dim
 70
11
177
3
291
1
 70
58
 90
2
176
1
 90
2
176
1
 90
1
176
1
 90
0
176
1
 40
0.6
176
1
 40
30.0
176
1
 62
7
420
16777215
176
1
 90
1
176
1
 90
4
176
1
 62
7
176
1
 62
257
176
1
 90
1
176
1
 90
1
176
1
 40
1.0
176
1
 90
8
176
1
 62
7
176
1
 40
1.0
176
1
 90
1
176
1
 90
6
176
1
 90
2
176
1
 62
7
176
1
 90
5
176
1
 90
0
176
1
 90
0
176
1
290
0
176
1
 90
1
176
1
 40
-50.0
176
1
 90
0
176
1
290
0
176
1
290
1
176
1
290
1
176
1
290
0
176
1
290
0
176
1
290
0
176
1
290
0
176
1
290
0
176
1
290
0
176
1
 90
50
176
1
 40
0.0
176
1
 40
1.0
176
1
 90
0
176
1
 62
18
420
0
176
1
 90
50
176
1
 90
3
176
1
 62
5
420
255
176
1
290
0
176
1
 90
50
176
1
 90
50
176
1
 90
50
176
1
290
0
176
1
 90
50
176
1
 62
256
176
0
 40
1.0
176
0
 90
2
176
1
  1
strokes_ogs.tif
176
1
290
0
176
1
 40
1.0
176
1
 40
1.0
176
1
  0
VISUALSTYLE
  5
1E6
102
{ACAD_REACTORS
330
EF
102
}
330
EF
100
AcDbVisualStyle
  2
EdgeColorOff
 70
22
177
3
291
1
 70
58
 90
2
176
0
 90
2
176
0
 90
0
176
0
 90
0
176
0
 40
0.6
176
0
 40
30.0
176
0
 62
7
420
16777215
176
0
 90
1
176
0
 90
4
176
0
 62
7
176
0
 62
257
176
0
 90
1
176
0
 90
1
176
0
 40
1.0
176
0
 90
8
176
2
 62
7
176
0
 40
1.0
176
0
 90
1
176
0
 90
6
176
0
 90
2
176
0
 62
7
176
0
 90
5
176
0
 90
0
176
0
 90
0
176
0
290
0
176
0
 90
1
176
0
 40
0.0
176
0
 90
0
176
0
290
0
176
1
290
1
176
1
290
1
176
1
290
0
176
1
290
0
176
1
290
0
176
1
290
0
176
1
290
0
176
1
290
0
176
1
 90
50
176
1
 40
0.0
176
1
 40
1.0
176
1
 90
0
176
1
 62
18
420
0
176
1
 90
50
176
1
 90
3
176
1
 62
5
420
255
176
1
290
0
176
1
 90
50
176
1
 90
50
176
1
 90
50
176
1
290
0
176
1
 90
50
176
1
 62
256
176
0
 40
1.0
176
0
 90
2
176
1
  1
strokes_ogs.tif
176
1
290
0
176
1
 40
1.0
176
1
 40
1.0
176
1
  0
VISUALSTYLE
  5
FE
102
{ACAD_REACTORS
330
EF
102
}
330
EF
100
AcDbVisualStyle
  2
Facepattern
 70
15
177
3
291
1
 70
58
 90
2
176
1
 90
2
176
1
 90
1
176
1
 90
0
176
1
 40
0.6
176
1
 40
30.0
176
1
 62
7
420
16777215
176
1
 90
1
176
1
 90
4
176
1
 62
7
176
1
 62
257
176
1
 90
1
176
1
 90
1
176
1
 40
1.0
176
1
 90
8
176
1
 62
7
176
1
 40
1.0
176
1
 90
1
176
1
 90
6
176
1
 90
2
176
1
 62
7
176
1
 90
5
176
1
 90
0
176
1
 90
0
176
1
290
0
176
1
 90
1
176
1
 40
0.0
176
1
 90
0
176
1
290
0
176
1
290
1
176
1
290
1
176
1
290
0
176
1
290
0
176
1
290
0
176
1
290
0
176
1
290
0
176
1
290
0
176
1
 90
50
176
1
 40
0.0
176
1
 40
1.0
176
1
 90
0
176
1
 62
18
420
0
176
1
 90
50
176
1
 90
3
176
1
 62
5
420
255
176
1
290
0
176
1
 90
50
176
1
 90
50
176
1
 90
50
176
1
290
0
176
1
 90
50
176
1
 62
256
176
0
 40
1.0
176
0
 90
2
176
1
  1
strokes_ogs.tif
176
1
290
0
176
1
 40
1.0
176
1
 40
1.0
176
1
  0
VISUALSTYLE
  5
F0
102
{ACAD_REACTORS
330
EF
102
}
330
EF
100
AcDbVisualStyle
  2
Flat
 70
0
177
3
291
1
 70
58
 90
2
176
1
 90
1
176
1
 90
1
176
1
 90
2
176
1
 40
0.6
176
1
 40
30.0
176
1
 62
7
420
16777215
176
1
 90
0
176
1
 90
0
176
1
 62
7
176
1
 62
257
176
1
 90
1
176
1
 90
1
176
1
 40
1.0
176
1
 90
8
176
1
 62
7
176
1
 40
1.0
176
1
 90
1
176
1
 90
6
176
1
 90
2
176
1
 62
7
176
1
 90
5
176
1
 90
0
176
1
 90
0
176
1
290
0
176
1
 90
13
176
1
 40
0.0
176
1
 90
0
176
1
290
0
176
1
290
1
176
1
290
1
176
1
290
0
176
1
290
0
176
1
290
0
176
1
290
0
176
1
290
0
176
1
290
0
176
1
 90
50
176
1
 40
0.0
176
1
 40
1.0
176
1
 90
0
176
1
 62
18
420
0
176
1
 90
50
176
1
 90
3
176
1
 62
5
420
255
176
1
290
0
176
1
 90
50
176
1
 90
50
176
1
 90
50
176
1
290
0
176
1
 90
50
176
1
 62
256
176
0
 40
1.0
176
0
 90
2
176
1
  1
strokes_ogs.tif
176
1
290
0
176
1
 40
1.0
176
1
 40
1.0
176
1
  0
VISUALSTYLE
  5
F1
102
{ACAD_REACTORS
330
EF
102
}
330
EF
100
AcDbVisualStyle
  2
FlatWithEdges
 70
1
177
3
291
1
 70
58
 90
2
176
1
 90
1
176
1
 90
1
176
1
 90
2
176
1
 40
0.6
176
1
 40
30.0
176
1
 62
7
420
16777215
176
1
 90
1
176
1
 90
0
176
1
 62
7
176
1
 62
257
176
1
 90
1
176
1
 90
1
176
1
 40
1.0
176
1
 90
0
176
1
 62
257
176
1
 40
1.0
176
1
 90
1
176
1
 90
6
176
1
 90
2
176
1
 62
7
176
1
 90
5
176
1
 90
0
176
1
 90
0
176
1
290
0
176
1
 90
13
176
1
 40
0.0
176
1
 90
0
176
1
290
0
176
1
290
1
176
1
290
1
176
1
290
0
176
1
290
0
176
1
290
0
176
1
290
0
176
1
290
0
176
1
290
0
176
1
 90
50
176
1
 40
0.0
176
1
 40
1.0
176
1
 90
0
176
1
 62
18
420
0
176
1
 90
50
176
1
 90
3
176
1
 62
5
420
255
176
1
290
0
176
1
 90
50
176
1
 90
50
176
1
 90
50
176
1
290
0
176
1
 90
50
176
1
 62
256
176
0
 40
1.0
176
0
 90
2
176
1
  1
strokes_ogs.tif
176
1
290
0
176
1
 40
1.0
176
1
 40
1.0
176
1
  0
VISUALSTYLE
  5
F2
102
{ACAD_REACTORS
330
EF
102
}
330
EF
100
AcDbVisualStyle
  2
Gouraud
 70
2
177
3
291
1
 70
58
 90
2
176
1
 90
2
176
1
 90
1
176
1
 90
2
176
1
 40
0.6
176
1
 40
30.0
176
1
 62
7
420
16777215
176
1
 90
0
176
1
 90
0
176
1
 62
7
176
1
 62
257
176
1
 90
1
176
1
 90
1
176
1
 40
1.0
176
1
 90
0
176
1
 62
7
176
1
 40
1.0
176
1
 90
1
176
1
 90
6
176
1
 90
2
176
1
 62
7
176
1
 90
5
176
1
 90
0
176
1
 90
0
176
1
290
0
176
1
 90
13
176
1
 40
0.0
176
1
 90
0
176
1
290
0
176
1
290
1
176
1
290
1
176
1
290
0
176
1
290
0
176
1
290
0
176
1
290
0
176
1
290
0
176
1
290
0
176
1
 90
50
176
1
 40
0.0
176
1
 40
1.0
176
1
 90
0
176
1
 62
18
420
0
176
1
 90
50
176
1
 90
3
176
1
 62
5
420
255
176
1
290
0
176
1
 90
50
176
1
 90
50
176
1
 90
50
176
1
290
0
176
1
 90
50
176
1
 62
256
176
0
 40
1.0
176
0
 90
2
176
1
  1
strokes_ogs.tif
176
1
290
0
176
1
 40
1.0
176
1
 40
1.0
176
1
  0
VISUALSTYLE
  5
F3
102
{ACAD_REACTORS
330
EF
102
}
330
EF
100
AcDbVisualStyle
  2
GouraudWithEdges
 70
3
177
3
291
1
 70
58
 90
2
176
1
 90
2
176
1
 90
1
176
1
 90
2
176
1
 40
0.6
176
1
 40
30.0
176
1
 62
7
420
16777215
176
1
 90
1
176
1
 90
0
176
1
 62
7
176
1
 62
257
176
1
 90
1
176
1
 90
1
176
1
 40
1.0
176
1
 90
0
176
1
 62
257
176
1
 40
1.0
176
1
 90
1
176
1
 90
6
176
1
 90
2
176
1
 62
7
176
1
 90
5
176
1
 90
0
176
1
 90
0
176
1
290
0
176
1
 90
13
176
1
 40
0.0
176
1
 90
0
176
1
290
0
176
1
290
1
176
1
290
1
176
1
290
0
176
1
290
0
176
1
290
0
176
1
290
0
176
1
290
0
176
1
290
0
176
1
 90
50
176
1
 40
0.0
176
1
 40
1.0
176
1
 90
0
176
1
 62
18
420
0
176
1
 90
50
176
1
 90
3
176
1
 62
5
420
255
176
1
290
0
176
1
 90
50
176
1
 90
50
176
1
 90
50
176
1
290
0
176
1
 90
50
176
1
 62
256
176
0
 40
1.0
176
0
 90
2
176
1
  1
strokes_ogs.tif
176
1
290
0
176
1
 40
1.0
176
1
 40
1.0
176
1
  0
VISUALSTYLE
  5
F7
102
{ACAD_REACTORS
330
EF
102
}
330
EF
100
AcDbVisualStyle
  2
Hidden
 70
6
177
3
291
0
 70
58
 90
1
176
1
 90
2
176
1
 90
2
176
1
 90
0
176
1
 40
0.6
176
1
 40
30.0
176
1
 62
7
420
16777215
176
1
 90
2
176
1
 90
2
176
1
 62
7
176
1
 62
257
176
1
 90
2
176
1
 90
1
176
1
 40
40.0
176
1
 90
0
176
1
 62
257
176
1
 40
1.0
176
1
 90
1
176
1
 90
6
176
1
 90
2
176
1
 62
7
176
1
 90
3
176
1
 90
0
176
1
 90
0
176
1
290
0
176
1
 90
1
176
1
 40
0.0
176
1
 90
0
176
1
290
0
176
1
290
1
176
1
290
1
176
1
290
0
176
1
290
0
176
1
290
0
176
1
290
0
176
1
290
0
176
1
290
0
176
1
 90
50
176
1
 40
0.0
176
1
 40
1.0
176
1
 90
0
176
1
 62
18
420
0
176
1
 90
50
176
1
 90
3
176
1
 62
5
420
255
176
1
290
0
176
1
 90
50
176
1
 90
50
176
1
 90
50
176
1
290
0
176
1
 90
50
176
1
 62
256
176
0
 40
1.0
176
0
 90
2
176
1
  1
strokes_ogs.tif
176
1
290
0
176
1
 40
1.0
176
1
 40
1.0
176
1
  0
VISUALSTYLE
  5
1E4
102
{ACAD_REACTORS
330
EF
102
}
330
EF
100
AcDbVisualStyle
  2
JitterOff
 70
20
177
3
291
1
 70
58
 90
2
176
0
 90
2
176
0
 90
0
176
0
 90
0
176
0
 40
0.6
176
0
 40
30.0
176
0
 62
7
420
16777215
176
0
 90
1
176
0
 90
4
176
0
 62
7
176
0
 62
257
176
0
 90
1
176
0
 90
1
176
0
 40
1.0
176
0
 90
10
176
2
 62
7
176
0
 40
1.0
176
0
 90
1
176
0
 90
6
176
0
 90
2
176
0
 62
7
176
0
 90
5
176
0
 90
0
176
0
 90
0
176
0
290
0
176
0
 90
1
176
0
 40
0.0
176
0
 90
0
176
0
290
0
176
1
290
1
176
1
290
1
176
1
290
0
176
1
290
0
176
1
290
0
176
1
290
0
176
1
290
0
176
1
290
0
176
1
 90
50
176
1
 40
0.0
176
1
 40
1.0
176
1
 90
0
176
1
 62
18
420
0
176
1
 90
50
176
1
 90
3
176
1
 62
5
420
255
176
1
290
0
176
1
 90
50
176
1
 90
50
176
1
 90
50
176
1
290
0
176
1
 90
50
176
1
 62
256
176
0
 40
1.0
176
0
 90
2
176
1
  1
strokes_ogs.tif
176
1
290
0
176
1
 40
1.0
176
1
 40
1.0
176
1
  0
VISUALSTYLE
  5
FD
102
{ACAD_REACTORS
330
EF
102
}
330
EF
100
AcDbVisualStyle
  2
Linepattern
 70
14
177
3
291
1
 70
58
 90
2
176
1
 90
2
176
1
 90
1
176
1
 90
0
176
1
 40
0.6
176
1
 40
30.0
176
1
 62
7
420
16777215
176
1
 90
1
176
1
 90
4
176
1
 62
7
176
1
 62
257
176
1
 90
7
176
1
 90
7
176
1
 40
1.0
176
1
 90
8
176
1
 62
7
176
1
 40
1.0
176
1
 90
1
176
1
 90
6
176
1
 90
2
176
1
 62
7
176
1
 90
5
176
1
 90
0
176
1
 90
0
176
1
290
0
176
1
 90
1
176
1
 40
0.0
176
1
 90
0
176
1
290
0
176
1
290
1
176
1
290
1
176
1
290
0
176
1
290
0
176
1
290
0
176
1
290
0
176
1
290
0
176
1
290
0
176
1
 90
50
176
1
 40
0.0
176
1
 40
1.0
176
1
 90
0
176
1
 62
18
420
0
176
1
 90
50
176
1
 90
3
176
1
 62
5
420
255
176
1
290
0
176
1
 90
50
176
1
 90
50
176
1
 90
50
176
1
290
0
176
1
 90
50
176
1
 62
256
176
0
 40
1.0
176
0
 90
2
176
1
  1
strokes_ogs.tif
176
1
290
0
176
1
 40
1.0
176
1
 40
1.0
176
1
  0
VISUALSTYLE
  5
1E5
102
{ACAD_REACTORS
330
EF
102
}
330
EF
100
AcDbVisualStyle
  2
OverhangOff
 70
21
177
3
291
1
 70
58
 90
2
176
0
 90
2
176
0
 90
0
176
0
 90
0
176
0
 40
0.6
176
0
 40
30.0
176
0
 62
7
420
16777215
176
0
 90
1
176
0
 90
4
176
0
 62
7
176
0
 62
257
176
0
 90
1
176
0
 90
1
176
0
 40
1.0
176
0
 90
9
176
2
 62
7
176
0
 40
1.0
176
0
 90
1
176
0
 90
6
176
0
 90
2
176
0
 62
7
176
0
 90
5
176
0
 90
0
176
0
 90
0
176
0
290
0
176
0
 90
1
176
0
 40
0.0
176
0
 90
0
176
0
290
0
176
1
290
1
176
1
290
1
176
1
290
0
176
1
290
0
176
1
290
0
176
1
290
0
176
1
290
0
176
1
290
0
176
1
 90
50
176
1
 40
0.0
176
1
 40
1.0
176
1
 90
0
176
1
 62
18
420
0
176
1
 90
50
176
1
 90
3
176
1
 62
5
420
255
176
1
290
0
176
1
 90
50
176
1
 90
50
176
1
 90
50
176
1
290
0
176
1
 90
50
176
1
 62
256
176
0
 40
1.0
176
0
 90
2
176
1
  1
strokes_ogs.tif
176
1
290
0
176
1
 40
1.0
176
1
 40
1.0
176
1
  0
VISUALSTYLE
  5
F9
102
{ACAD_REACTORS
330
EF
102
}
330
EF
100
AcDbVisualStyle
  2
Realistic
 70
8
177
3
291
0
 70
58
 90
2
176
1
 90
3
176
1
 90
0
176
1
 90
2
176
1
 40
0.6
176
1
 40
30.0
176
1
 62
7
420
16777215
176
1
 90
0
176
1
 90
0
176
1
 62
7
176
1
 62
257
176
1
 90
1
176
1
 90
1
176
1
 40
1.0
176
1
 90
8
176
1
 62
257
176
1
 40
1.0
176
1
 90
1
176
1
 90
6
176
1
 90
2
176
1
 62
7
176
1
 90
3
176
1
 90
0
176
1
 90
0
176
1
290
0
176
1
 90
13
176
1
 40
0.0
176
1
 90
0
176
1
290
0
176
1
290
1
176
1
290
1
176
1
290
0
176
1
290
0
176
1
290
0
176
1
290
0
176
1
290
0
176
1
290
0
176
1
 90
50
176
1
 40
0.0
176
1
 40
1.0
176
1
 90
0
176
1
 62
18
420
0
176
1
 90
50
176
1
 90
3
176
1
 62
5
420
255
176
1
290
0
176
1
 90
50
176
1
 90
50
176
1
 90
50
176
1
290
0
176
1
 90
50
176
1
 62
256
176
0
 40
1.0
176
0
 90
2
176
1
  1
strokes_ogs.tif
176
1
290
0
176
1
 40
1.0
176
1
 40
1.0
176
1
  0
VISUALSTYLE
  5
1F3
102
{ACAD_REACTORS
330
EF
102
}
330
EF
100
AcDbVisualStyle
  2
Shaded
 70
27
177
3
291
0
 70
58
 90
2
176
1
 90
2
176
1
 90
1
176
1
 90
2
176
1
 40
0.6
176
1
 40
30.0
176
1
 62
7
420
16777215
176
1
 90
0
176
1
 90
4
176
1
 62
7
176
1
 62
257
176
1
 90
1
176
1
 90
1
176
1
 40
1.0
176
1
 90
8
176
1
 62
257
176
1
 40
1.0
176
1
 90
1
176
1
 90
6
176
1
 90
2
176
1
 62
8
420
7895160
176
1
 90
3
176
1
 90
0
176
1
 90
0
176
1
290
0
176
1
 90
5
176
1
 40
0.0
176
1
 90
0
176
1
290
0
176
1
290
1
176
1
290
1
176
1
290
0
176
1
290
0
176
1
290
0
176
1
290
0
176
1
290
0
176
1
290
0
176
1
 90
50
176
1
 40
0.0
176
1
 40
1.0
176
1
 90
0
176
1
 62
18
420
0
176
1
 90
50
176
1
 90
3
176
1
 62
5
420
255
176
1
290
0
176
1
 90
50
176
1
 90
50
176
1
 90
50
176
1
290
0
176
1
 90
50
176
1
 62
256
176
0
 40
1.0
176
0
 90
2
176
1
  1
strokes_ogs.tif
176
1
290
0
176
1
 40
1.0
176
1
 40
1.0
176
1
  0
VISUALSTYLE
  5
1F2
102
{ACAD_REACTORS
330
EF
102
}
330
EF
100
AcDbVisualStyle
  2
Shaded with edges
 70
26
177
3
291
0
 70
58
 90
2
176
1
 90
2
176
1
 90
1
176
1
 90
2
176
1
 40
0.6
176
1
 40
30.0
176
1
 62
7
420
16777215
176
1
 90
1
176
1
 90
2
176
1
 62
7
176
1
 62
257
176
1
 90
2
176
1
 90
1
176
1
 40
1.0
176
1
 90
8
176
1
 62
257
176
1
 40
1.0
176
1
 90
1
176
1
 90
6
176
1
 90
2
176
1
 62
7
176
1
 90
3
176
1
 90
0
176
1
 90
0
176
1
290
0
176
1
 90
5
176
1
 40
0.0
176
1
 90
0
176
1
290
0
176
1
290
1
176
1
290
1
176
1
290
0
176
1
290
0
176
1
290
0
176
1
290
0
176
1
290
0
176
1
290
0
176
1
 90
50
176
1
 40
0.0
176
1
 40
1.0
176
1
 90
0
176
1
 62
18
420
0
176
1
 90
50
176
1
 90
3
176
1
 62
5
420
255
176
1
290
0
176
1
 90
50
176
1
 90
50
176
1
 90
50
176
1
290
0
176
1
 90
50
176
1
 62
256
176
0
 40
1.0
176
0
 90
2
176
1
  1
strokes_ogs.tif
176
1
290
0
176
1
 40
1.0
176
1
 40
1.0
176
1
  0
VISUALSTYLE
  5
1EF
102
{ACAD_REACTORS
330
EF
102
}
330
EF
100
AcDbVisualStyle
  2
Shades of Gray
 70
23
177
3
291
0
 70
58
 90
2
176
1
 90
2
176
1
 90
3
176
1
 90
0
176
1
 40
0.6
176
1
 40
30.0
176
1
 62
7
420
16777215
176
1
 90
2
176
1
 90
2
176
1
 62
7
176
1
 62
7
176
1
 90
1
176
1
 90
1
176
1
 40
40.0
176
1
 90
8
176
1
 62
7
176
1
 40
1.0
176
1
 90
1
176
1
 90
6
176
1
 90
2
176
1
 62
7
176
1
 90
3
176
1
 90
0
176
1
 90
0
176
1
290
0
176
1
 90
1
176
1
 40
0.0
176
1
 90
0
176
1
290
0
176
1
290
1
176
1
290
1
176
1
290
0
176
1
290
0
176
1
290
0
176
1
290
0
176
1
290
0
176
1
290
0
176
1
 90
50
176
1
 40
0.0
176
1
 40
1.0
176
1
 90
0
176
1
 62
18
420
0
176
1
 90
50
176
1
 90
3
176
1
 62
5
420
255
176
1
290
0
176
1
 90
50
176
1
 90
50
176
1
 90
50
176
1
290
0
176
1
 90
50
176
1
 62
256
176
0
 40
1.0
176
0
 90
2
176
1
  1
strokes_ogs.tif
176
1
290
0
176
1
 40
1.0
176
1
 40
1.0
176
1
  0
VISUALSTYLE
  5
1F0
102
{ACAD_REACTORS
330
EF
102
}
330
EF
100
AcDbVisualStyle
  2
Sketchy
 70
24
177
3
291
0
 70
58
 90
1
176
1
 90
2
176
1
 90
2
176
1
 90
0
176
1
 40
0.6
176
1
 40
30.0
176
1
 62
7
420
16777215
176
1
 90
2
176
1
 90
2
176
1
 62
7
176
1
 62
7
176
1
 90
1
176
1
 90
1
176
1
 40
40.0
176
1
 90
11
176
1
 62
7
176
1
 40
1.0
176
1
 90
1
176
1
 90
6
176
1
 90
2
176
1
 62
7
176
1
 90
6
176
1
 90
0
176
1
 90
0
176
1
290
0
176
1
 90
1
176
1
 40
0.0
176
1
 90
0
176
1
290
0
176
1
290
1
176
1
290
1
176
1
290
0
176
1
290
0
176
1
290
0
176
1
290
0
176
1
290
0
176
1
290
0
176
1
 90
50
176
1
 40
0.0
176
1
 40
1.0
176
1
 90
0
176
1
 62
18
420
0
176
1
 90
50
176
1
 90
3
176
1
 62
5
420
255
176
1
290
0
176
1
 90
50
176
1
 90
50
176
1
 90
50
176
1
290
0
176
1
 90
50
176
1
 62
256
176
0
 40
1.0
176
0
 90
2
176
1
  1
strokes_ogs.tif
176
1
290
0
176
1
 40
1.0
176
1
 40
1.0
176
1
  0
VISUALSTYLE
  5
FC
102
{ACAD_REACTORS
330
EF
102
}
330
EF
100
AcDbVisualStyle
  2
Thicken
 70
13
177
3
291
1
 70
58
 90
2
176
1
 90
2
176
1
 90
1
176
1
 90
0
176
1
 40
0.6
176
1
 40
30.0
176
1
 62
7
420
16777215
176
1
 90
1
176
1
 90
4
176
1
 62
7
176
1
 62
257
176
1
 90
1
176
1
 90
1
176
1
 40
1.0
176
1
 90
12
176
1
 62
7
176
1
 40
1.0
176
1
 90
1
176
1
 90
6
176
1
 90
2
176
1
 62
7
176
1
 90
5
176
1
 90
0
176
1
 90
0
176
1
290
0
176
1
 90
1
176
1
 40
0.0
176
1
 90
0
176
1
290
0
176
1
290
1
176
1
290
1
176
1
290
0
176
1
290
0
176
1
290
0
176
1
290
0
176
1
290
0
176
1
290
0
176
1
 90
50
176
1
 40
0.0
176
1
 40
1.0
176
1
 90
0
176
1
 62
18
420
0
176
1
 90
50
176
1
 90
3
176
1
 62
5
420
255
176
1
290
0
176
1
 90
50
176
1
 90
50
176
1
 90
50
176
1
290
0
176
1
 90
50
176
1
 62
256
176
0
 40
1.0
176
0
 90
2
176
1
  1
strokes_ogs.tif
176
1
290
0
176
1
 40
1.0
176
1
 40
1.0
176
1
  0
VISUALSTYLE
  5
F6
102
{ACAD_REACTORS
330
EF
102
}
330
EF
100
AcDbVisualStyle
  2
Wireframe
 70
5
177
3
291
0
 70
58
 90
0
176
1
 90
2
176
1
 90
0
176
1
 90
0
176
1
 40
0.6
176
1
 40
30.0
176
1
 62
7
420
16777215
176
1
 90
1
176
1
 90
4
176
1
 62
7
176
1
 62
257
176
1
 90
1
176
1
 90
1
176
1
 40
1.0
176
1
 90
0
176
1
 62
257
176
1
 40
1.0
176
1
 90
1
176
1
 90
6
176
1
 90
2
176
1
 62
7
176
1
 90
3
176
1
 90
0
176
1
 90
0
176
1
290
0
176
1
 90
1
176
1
 40
0.0
176
1
 90
0
176
1
290
0
176
1
290
1
176
1
290
1
176
1
290
0
176
1
290
0
176
1
290
0
176
1
290
0
176
1
290
0
176
1
290
0
176
1
 90
50
176
1
 40
0.0
176
1
 40
1.0
176
1
 90
0
176
1
 62
18
420
0
176
1
 90
50
176
1
 90
3
176
1
 62
5
420
255
176
1
290
0
176
1
 90
50
176
1
 90
50
176
1
 90
50
176
1
290
0
176
1
 90
50
176
1
 62
256
176
0
 40
1.0
176
0
 90
2
176
1
  1
strokes_ogs.tif
176
1
290
0
176
1
 40
1.0
176
1
 40
1.0
176
1
  0
VISUALSTYLE
  5
1F1
102
{ACAD_REACTORS
330
EF
102
}
330
EF
100
AcDbVisualStyle
  2
X-Ray
 70
25
177
3
291
0
 70
58
 90
2
176
1
 90
2
176
1
 90
1
176
1
 90
1
176
1
 40
0.5
176
1
 40
30.0
176
1
 62
7
420
16777215
176
1
 90
1
176
1
 90
0
176
1
 62
7
176
1
 62
257
176
1
 90
1
176
1
 90
1
176
1
 40
1.0
176
1
 90
8
176
1
 62
7
176
1
 40
1.0
176
1
 90
1
176
1
 90
6
176
1
 90
2
176
1
 62
7
176
1
 90
3
176
1
 90
0
176
1
 90
0
176
1
290
0
176
1
 90
13
176
1
 40
0.0
176
1
 90
0
176
1
290
0
176
1
290
1
176
1
290
1
176
1
290
0
176
1
290
0
176
1
290
0
176
1
290
0
176
1
290
0
176
1
290
0
176
1
 90
50
176
1
 40
0.0
176
1
 40
1.0
176
1
 90
0
176
1
 62
18
420
0
176
1
 90
50
176
1
 90
3
176
1
 62
5
420
255
176
1
290
0
176
1
 90
50
176
1
 90
50
176
1
 90
50
176
1
290
0
176
1
 90
50
176
1
 62
256
176
0
 40
1.0
176
0
 90
2
176
1
  1
strokes_ogs.tif
176
1
290
0
176
1
 40
1.0
176
1
 40
1.0
176
1
  0
DICTIONARYVAR
  5
307
102
{ACAD_REACTORS
330
306
102
}
330
306
100
DictionaryVariables
280
0
  1
2
  0
DICTIONARYVAR
  5
308
102
{ACAD_REACTORS
330
306
102
}
330
306
100
DictionaryVariables
280
0
  1
50.000000
  0
DICTIONARYVAR
  5
309
102
{ACAD_REACTORS
330
306
102
}
330
306
100
DictionaryVariables
280
0
  1
1
  0
DICTIONARYVAR
  5
30A
102
{ACAD_REACTORS
330
306
102
}
330
306
100
DictionaryVariables
280
0
  1
1:1
  0
DICTIONARYVAR
  5
30B
102
{ACAD_REACTORS
330
306
102
}
330
306
100
DictionaryVariables
280
0
  1
STANDARD
  0
DICTIONARYVAR
  5
30C
102
{ACAD_REACTORS
330
306
102
}
330
306
100
DictionaryVariables
280
0
  1
STANDARD
  0
DICTIONARYVAR
  5
30D
102
{ACAD_REACTORS
330
306
102
}
330
306
100
DictionaryVariables
280
0
  1
Metric50
  0
DICTIONARYVAR
  5
30E
102
{ACAD_REACTORS
330
306
102
}
330
306
100
DictionaryVariables
280
0
  1
Metric50
  0
DICTIONARYVAR
  5
30F
102
{ACAD_REACTORS
330
306
102
}
330
306
100
DictionaryVariables
280
0
  1
0
  0
DICTIONARYVAR
  5
310
102
{ACAD_REACTORS
330
306
102
}
330
306
100
DictionaryVariables
280
0
  1
2
  0
DICTIONARYVAR
  5
311
102
{ACAD_REACTORS
330
306
102
}
330
306
100
DictionaryVariables
280
0
  1
1
  0
DICTIONARYVAR
  5
312
102
{ACAD_REACTORS
330
306
102
}
330
306
100
DictionaryVariables
280
0
  1
100
  0
DICTIONARYVAR
  5
313
102
{ACAD_REACTORS
330
306
102
}
330
306
100
DictionaryVariables
280
0
  1
0
  0
DICTIONARYVAR
  5
314
102
{ACAD_REACTORS
330
306
102
}
330
306
100
DictionaryVariables
280
0
  1
0.000000;0.000000
  0
DICTIONARYVAR
  5
315
102
{ACAD_REACTORS
330
306
102
}
330
306
100
DictionaryVariables
280
0
  1
ByLayer
  0
DICTIONARYVAR
  5
316
102
{ACAD_REACTORS
330
306
102
}
330
306
100
DictionaryVariables
280
0
  1
0
  0
DICTIONARYVAR
  5
317
102
{ACAD_REACTORS
330
306
102
}
330
306
100
DictionaryVariables
280
0
  1
0
  0
DICTIONARYVAR
  5
318
102
{ACAD_REACTORS
330
306
102
}
330
306
100
DictionaryVariables
280
0
  1
0
  0
DICTIONARYVAR
  5
319
102
{ACAD_REACTORS
330
306
102
}
330
306
100
DictionaryVariables
280
0
  1
2
  0
DICTIONARYVAR
  5
31A
102
{ACAD_REACTORS
330
306
102
}
330
306
100
DictionaryVariables
280
0
  1
1.000000
  0
DICTIONARYVAR
  5
31B
102
{ACAD_REACTORS
330
306
102
}
330
306
100
DictionaryVariables
280
0
  1
1
  0
DICTIONARYVAR
  5
31C
102
{ACAD_REACTORS
330
306
102
}
330
306
100
DictionaryVariables
280
0
  1
2
  0
DICTIONARYVAR
  5
31D
102
{ACAD_REACTORS
330
306
102
}
330
306
100
DictionaryVariables
280
0
  1
1
  0
DICTIONARYVAR
  5
31E
102
{ACAD_REACTORS
330
306
102
}
330
306
100
DictionaryVariables
280
0
  1
1
  0
DICTIONARYVAR
  5
31F
102
{ACAD_REACTORS
330
306
102
}
330
306
100
DictionaryVariables
280
0
  1
127
  0
DICTIONARYVAR
  5
320
102
{ACAD_REACTORS
330
306
102
}
330
306
100
DictionaryVariables
280
0
  1
15
  0
DICTIONARY
  5
205
330
22
100
AcDbDictionary
280
1
281
1
  0
DICTIONARY
  5
1F9
330
ED
100
AcDbDictionary
280
1
281
1
  3
FBXASSET
360
1FA
  0
DICTIONARY
  5
1F7
330
EC
100
AcDbDictionary
280
1
281
1
  3
FBXASSET
360
1F8
  0
DICTIONARY
  5
173
330
EE
100
AcDbDictionary
280
1
281
1
  3
BUMPTILE
360
175
  3
DIFFUSETILE
360
174
  3
FBXASSET
360
1FB
  3
OPACITYTILE
360
176
  3
REFLECTIONTILE
360
177
  0
DICTIONARY
  5
162
330
7F
100
AcDbDictionary
280
1
281
1
  3
ACAD_ROUNDTRIP_2008_TABLESTYLE_CELLSTYLEMAP
360
4C2
  0
XRECORD
  5
1FA
102
{ACAD_REACTORS
330
1F9
102
}
330
1F9
100
AcDbXrecord
280
1
 70
1
 90
429727718
  1
D62C5603-E3A1-4AEA-B7FB-FE5D8D0755AF
310
504B03040A0000080000CC70623B3DEE336E79000000790000001B0000006175746F6465736B2D64657369676E2D7061636B6167652E786D6C3C3F786D6C2076657273696F6E3D22312E302220656E636F64696E673D227574662D3822203F3E3C666F726D6174733E3C666F726D61743E687474703A2F2F736368656D612E
310
6175746F6465736B2E636F6D2F64657369676E2D7061636B6167652F323030393C2F666F726D61743E3C2F666F726D6174733E504B0304140006080800CC70623BD486FD9CA0000000F4000000130000005B436F6E74656E745F54797065735D2E786D6C7D8EC10E82300C865F65E91D8A1E8C310C0EEA1BF002731658846E
310
D98AC1B77784ABF1D8FE5FBFBF75BBCE937A534CCEB38643598122B6FEE978D0B0485F9C41B54DDD7D022595594E1A469170414C76A4D9A4D207E29CF43ECE46F218070CC6BECC4078ACAA135ACF422C856C0E68EA1BF5669944DDD7BCDE7B1F8E415D77AECB980613C2E4AC91FC167A2B244592486606FC29C8FD7F045B9A
310
EF7053A7E60B504B0304140006080800CC70623B853B8169EB0000007C01000008000000636F72652E786D6C8D90416EC3201045AF62CDB6C206821CC7C244919D9CA01740401C94182C03558F5F9C3852BBEB6A467FFE9B197D7EFC9E1EC5975982F5AE035262288C535E5B377690E21535501C055FBC8FBF6C503839990E
310
5619041F179FE64D52DE45E362569DD7661365082642A11EB9E920A89B99642953CC8E702F67A9EE7234257977194EC9EAE275C4EABCCF5EAD5940D4AC6F0E35A568B8F43562CD7046CD199FD07E60174276A7BE677B5EADB0E0D14EEFFB6A31321A0D82627C4084204C3F096B71DD52F6819B16635EADF63F509AF53FA164
310
5DDCD1EDDD17164090FCC8732078B56691CB33A85CD7DCC40F504B0304140006080800CC70623B55019EA25F0000007C00000007000000636E782E786D6C4DCB3B0E80201045D1AD90E915ED2CF8AC45050C11660C8261F98AB1B07AC9C97D42D718D865D3E909258CFD00CCE24AC6E326A164D74DC0B4128928FF32603847
310
2BA13128B1252AC747C6BAB984FC68F0B87FE8960A5C09FE86CFB69FBA01504B0304140006080800CC70623BDBABAAF470010000D40300000C0000006662782F636F72652E786D6CC553D16E823014FD95A6AF4B694182CC941A83FA05FB810A9511A125A5257EFE2E82712ECEB8A7F100CD39F7F69E734AF9FADC366850B6
310
AF8DCE7018308C942E4C59EB2AC3DE1D498AD15A706B8CFB56869196ADCAF00863C12B6B7C374385D14E6907A836A59A41D9F7CA615434B0C8705F7CAA5606D23BA8E84F41278B93AC54100640439DE0BDB320004D43C63716C7C399D30917DCFBBA9CD9BA8469F5B156168B24CED3F7248AC8769F27244EB73B92EED8862C
310
B7F13E0C179B3C8F979C8ECD82BBBABDAA2BAC924E9558448CBD9330242CFA08E3154B5651FCC6D215639C8EE5774DBE2B5F6CF2B5768B68963BB5F5588420E442FC700B1139D4CB01F450C1E918227C2E09DF070D8140C84E1E9AAB8F1340832A9CB13130A5F1376A908D57309505ECF2A0DF179C4E9D30F5B239B87E3823
310
7A79C6F31DE1A8A5AEC08474B03C7837EAE4938639B44E5932B833D2C6B6B279CDC613877FA26EE21F4A2A4C63EC7F29A2F301D1F9F7A0E37D145F504B0304140006080800CC70623B9C113CC27E0000009D0000000B0000006662782F636E782E786D6C4DCCDF0A83201C86E15B91DFB94BFB330DD428C8FB886521330DA7
310
6397BF1A1DECE883878F57749FCDA1B7892F1BBC047A23808C7F84D9FA55424E0BE6803A256208E9EF06C84F9B91703228B1C690F78B66B34CD9A5439DF5CF0BFBF65E35BCA1B8D6A5C6F540381E886698B5741C695F9503EBA150A2F8958E3DC3EA0B504B0304140006080800CC70623B7DF2F77C2A010000120200003100
310
00006662782F41393633353835312D344632462D344230382D423046372D3739314545314133324237412F636F72652E786D6C8D51DB8EC22014FC15C2939B0D2DB4B45643319AE817EC0F6041255A68B86CFCFC856D4D76DF7CE190393373060EDB3DC707F856CE6B6B7A480A0C81328395DA5C7B18C3057510EC3873D686
310
3F34088C18550F330C39BB3A1BA7051AAC09CA84841A2BD5020AEF55806078A44B0FFD7053A328440C89E1EFC52486BBB8AA8214A99D789CF9E05200300FC927E4FB4D5B375D43103D5527440FB843077C5AA3F5861C8F645F5787F59E95B390B318B55CE45AA638FAA2957BD7248B390B7A7CC51F9C124149C82B8C378810
310
84AB2F42B7B8DD56F413775B8C5999E9FF4471926F8AA236A1AE96B8B3CC434E5839373893369E1FAF30EA395917409EB7F26AF8801C171837A4A6AC9C89E9F9C9B1A58BA30FD6A5EF5DDDCF894B9AD9B6A59C957943A9FCAE2FD5BC4DFE03504B0304140006080800CC70623BAD7543B64E01000033030000300000006662
310
782F41393633353835312D344632462D344230382D423046372D3739314545314133324237412F636E782E786D6CD593CD6EC32010845F0571AD6CE3D48AD20813A9873E410FBD12D82434182C7EAAE6EDBB2424CD25871E7B41D6EC30B3FA84F9E67BB2E40B4234DE8DB46F1925E094D7C6ED479AD3AE5951B2113C789FEE
310
6C943839C1488B4C05DF079FE72A69D8C96C13AAD6B8631503449F83828872B949AC57D26200B826A308D316B4064D6E46FCDA41C05550DC9E483A00797BFD207EFB092A45DE9514C1BBD22178396BD39D891265658C238DEA00936C654E5E433CB65A26D9F6EDB5EBC14EBF49A45CB856E66048291F6939A9A81BB5C89177
310
38143CA680F4AA299D66A042CEB3354A2684DC9D8D178FE0D9B8B41CAAD720F880EE7EF93C0C18769E099ECC04D5A102C8049A8A05632F4DDF376CF1DE0F6BB65C2F8627B65A33C6BB62177CEBBDAD973006829F89F22E814B54F4BC2BE347F8AA8F681390B50FA73F804400B5F542E796F19FF974E7F78DB802FE05E20750
310
4B0304140006080800CC70623BE75B7789680500003C100000340000006662782F41393633353835312D344632462D344230382D423046372D3739314545314133324237412F6F626A656374732E786D6CAD575B8F9B3818FD2B887D06C22499CB8AA1CA655245D5B455A356FB305264C061D8018C6C3393D95FBFC7600890
310
A4CD5EF210B0B1BFEBF98E3F7B1FF6596ABC522E1296DF9BAE3D320D9A872C4AF2F8DE2CE5CEBA358D0FBEC719939D65A691938CDE9B6ADAF4BD98B3B2D05311DD91329583D9D5FC0F438434A7A611A644887B5384CF34233629258BA878B12322891DEFF6B66BD70BFB62634E8AE781D082709A4B588AF91C528CDA28B73F
310
1C998EEF39EABBEFA97FBD6A7C7E9553F9D3D79FE442923C3C523610337627CB87ABE99D359D4CC6D6E4FACAB5E6ABF9D2726FC6A3C5F56271377BB88362213924694B38DD99FE47C48627A1E7D49F5A8BB5E1A74C0A599ED3B0F21F1E56366B89112D681E218F0915D0D6F17AD41FBA2A369DCF6335D62ABBD39779D5DDD1
310
11D4D8DE3CBB96B2E04FB8202E41051754A1AA8E8F76B4C6DFE810B580B1547F4B84911149794252234D024EF8BBE963A95AE27B3D310A9D5C215C7960FAEE415ED75694C6AFB17BCACA5D99A60A9AA65F217B0BFC53292ACB92BF283FAD0D3621576592CB5BED907C2FA8E9DF794E35E97BEA31BED21FEB401ABB94C44839
310
DCACBF0E1C5DA8DA5B2F4DFFD32AD86F543D9E565E7056502E157C00AD2671CD534549AB752FCA9CDA00677A313F04E51B22FF19E57B300579E3C97EB29F682D92935CEC18CF901B7B54FD8C51F362B56FC72FE0B3C1EAE335EDCCBF5AEC39ADB17DC238973F804BA5E6F6BFE7AF1FB32E523BE9F3BD571418E3631DCA4D48
310
5250CF639223210A9446CA30052EDF057BD35F8329C1ECD84552BF0DC8D18BE7BCE23BFE6BD960AB4A7DE79923A103BEBD80F911CBAA2C60DB19B01CF164A5583B772EE6D3FFA56666CBCDA74DC97724A48F9A58967497E489C4D979006FD7A05E227A1EBDD0F737C623387A9C844D3709995625106D157315F8B8392CD4E0
310
A0B9A720C4BE9829CEF37EA1E13111214D53925356365ADA634861B52519DD27A00AEB808EAF0628E6F435519D446F45CF2C9CF5214F0A15B2F6D06B79DA3EE3CBF7F56780D2F4E7EF73A0F5E5B02A38D07DC852C6B7C1FBB6664213E0C39E3EBA7FF4E1AD23EA2829407C85E586727488B751B2DB9502BC7B228A3FD68B6E
310
A65A22397E690AA8D158D7E404EC8CDA235CC3B7D1898680131CEC2CDF2638C65196279577750F15884AEE19F94199155B92B13297978469D4F8D358DF0AEF7631E28DC8F0D9F437D5D39A83B2231A1D52D543813A824EF8D44BCFF2FA6A31BD1E8DAD87F1CCB526B3879935BF59CDADD5C37479BB1CDD4CA7B3556B516589
310
EF352754B706114D9C885EC9131DE6EFEB43D99AFE2391C2F958179413D7CFEF6B1B6DB1E7600F00DE6E5C67454A339A4BA2E0FBA85ED26F045D454F463DBFCE484C2F90F2E5E3666003662ED8F755951A7D1BECD5B30B550B2785C8E7320B7292A4838DDA71BBC863ED7613CAF659337A3354231D4FF4A182A54904C2898C
310
98B28C4AD0CE056CCF332A80986E571EE9DBC305BB5FEB7E509220A58D25CF042D712A806AC0AD0C657FDEF80D2D9CEAA2EE4D1C76F60BFE74219A06527D6F82DF6412526107381E55E353090704D085B52408A8913C4ED159D79BDA71BB4BC506F4831350EB6F975CD22D69BF7AC49B91A2C0A9DDA3D5CA36AD20FC478E37
310
E61844E2352865EBCB61A275A65283CAAA9DD27703B4102F5AF51EF5F573B75CBB5AD38BC845F7A49F82A0966A49C2E3EA5EA0ECD326CD965F1DB402C6FA8B51A4658C5C5E2EC9E214602E55810345408596591009A82E7E7FFACA19EEA299B14A0081A705CB3296EBC14CDF658DCD336EA6D1136881AAEB87B81AB9EE53D5
310
F5EB8BC8362082DA24122F98680A4E7930C01A0079749CEA14382A0783E5EBA5A10F8C098456A03D6A4AEB6BB881E2513747552A5DB22C7EDAF83BD5528081A365F7FF06504B0304140006080000CC70623B000000000000000000000000350000006662782F41393633353835312D344632462D344230382D423046372D37
310
39314545314133324237412F76657274696365732E62696E504B0304140006080800CC70623BF270F1330600000004000000360000006662782F41393633353835312D344632462D344230382D423046372D3739314545314133324237412F747269616E676C65732E62696E636660600000504B0304140006080000CC7062
310
3B000000000000000000000000370000006662782F41393633353835312D344632462D344230382D423046372D3739314545314133324237412F617474726962757465732E62696E504B0304140006080800CC70623B08DA0BD19000000041010000360000006662782F41393633353835312D344632462D344230382D4230
310
46372D3739314545314133324237412F6469726563746F72792E786D6C858F410AC3201045AF22B36F53E9A60B35CBEEBAE80D244E44489C6234F4F835464A48035D0DF398FF9F8AF63D0E6CC63039F212F8F9020C7D47C6792B21C5FE7403D62A1188E2E60C98D7234A5830286103A55745067B9D86B8A3CF9C7F90C11DE6
310
07FB144396D7B6A82D282E9A152AD114D5EF2CB866EEE831B8EEA07A7BB5A8D7D61A2BAAEB7FD5F70921FF497D00504B0304140006080800CC70623BEDD1DC58FD000000A00100003B0000006662782F41393633353835312D344632462D344230382D423046372D3739314545314133324237412F7265736F75726365732F
310
636F72652E786D6C8D504B6E833010BD0A9A6D65B00922041947112427E8052C33A156828DFCA97AFC9A40A576D7CDCCE87D344F8F9FBFE667F689CE6B6B3A6039850C8DB2A336530731DC4903D95970676DF82583CCC8193B5861107C72362E3BA4AC096842428D1D7107A5F7182053CF7474E0D507CE32973124857FE48B
310
540F3961CEF244279DE03EB81420DB9EAC1384436FA353E879B1B182C7A8C75DA3C7F453DF353A1075D537A7BA6464B8F535A99AE14A9A2BBD90E350DD183B5CFABE3AF262350B1EF4FC9351399401471025A527C218A1E53BAB5A5AB765F5469B96525EACF23FA6B88CFF34456DC2A1DCE36E360F82A5202F42F062ED2BAD
310
579969AFDD8A6F504B010214000A0000080000CC70623B3DEE336E79000000790000001B00000000000000000000000000000000006175746F6465736B2D64657369676E2D7061636B6167652E786D6C504B01021400140006080800CC70623BD486FD9CA0000000F40000001300000000000000000000000000B20000005B
310
436F6E74656E745F54797065735D2E786D6C504B01021400140006080800CC70623B853B8169EB0000007C010000080000000000000000000000000083010000636F72652E786D6C504B01021400140006080800CC70623B55019EA25F0000007C000000070000000000000000000000000094020000636E782E786D6C504B
310
01021400140006080800CC70623BDBABAAF470010000D40300000C00000000000000000000000000180300006662782F636F72652E786D6C504B01021400140006080800CC70623B9C113CC27E0000009D0000000B00000000000000000000000000B20400006662782F636E782E786D6C504B01021400140006080800CC70
310
623B7DF2F77C2A010000120200003100000000000000000000000000590500006662782F41393633353835312D344632462D344230382D423046372D3739314545314133324237412F636F72652E786D6C504B01021400140006080800CC70623BAD7543B64E010000330300003000000000000000000000000000D2060000
310
6662782F41393633353835312D344632462D344230382D423046372D3739314545314133324237412F636E782E786D6C504B01021400140006080800CC70623BE75B7789680500003C10000034000000000000000000000000006E0800006662782F41393633353835312D344632462D344230382D423046372D3739314545
310
314133324237412F6F626A656374732E786D6C504B01021400140006080000CC70623B0000000000000000000000003500000000000000000000000000280E00006662782F41393633353835312D344632462D344230382D423046372D3739314545314133324237412F76657274696365732E62696E504B01021400140006
310
080800CC70623BF270F133060000000400000036000000000000000000000000007B0E00006662782F41393633353835312D344632462D344230382D423046372D3739314545314133324237412F747269616E676C65732E62696E504B01021400140006080000CC70623B0000000000000000000000003700000000000000
310
000000000000D50E00006662782F41393633353835312D344632462D344230382D423046372D3739314545314133324237412F617474726962757465732E62696E504B01021400140006080800CC70623B08DA0BD1900000004101000036000000000000000000000000002A0F00006662782F41393633353835312D344632
310
462D344230382D423046372D3739314545314133324237412F6469726563746F72792E786D6C504B01021400140006080800CC70623BEDD1DC58FD000000A00100003B000000000000000000000000000E1000006662782F41393633353835312D344632462D344230382D423046372D3739314545314133324237412F7265
310
736F75726365732F636F72652E786D6C504B0506000000000E000E0080040000641100000000
  0
XRECORD
  5
1F8
102
{ACAD_REACTORS
330
1F7
102
}
330
1F7
100
AcDbXrecord
280
1
 70
1
 90
429727718
  1
30362254-06B7-45E0-A893-8CFA70E3D6BC
310
504B03040A0000080000CC70623B3DEE336E79000000790000001B0000006175746F6465736B2D64657369676E2D7061636B6167652E786D6C3C3F786D6C2076657273696F6E3D22312E302220656E636F64696E673D227574662D3822203F3E3C666F726D6174733E3C666F726D61743E687474703A2F2F736368656D612E
310
6175746F6465736B2E636F6D2F64657369676E2D7061636B6167652F323030393C2F666F726D61743E3C2F666F726D6174733E504B0304140006080800CC70623BD486FD9CA0000000F4000000130000005B436F6E74656E745F54797065735D2E786D6C7D8EC10E82300C865F65E91D8A1E8C310C0EEA1BF002731658846E
310
D98AC1B77784ABF1D8FE5FBFBF75BBCE937A534CCEB38643598122B6FEE978D0B0485F9C41B54DDD7D022595594E1A469170414C76A4D9A4D207E29CF43ECE46F218070CC6BECC4078ACAA135ACF422C856C0E68EA1BF5669944DDD7BCDE7B1F8E415D77AECB980613C2E4AC91FC167A2B244592486606FC29C8FD7F045B9A
310
EF7053A7E60B504B0304140006080800CC70623B1EC5D7A3EB0000007C01000008000000636F72652E786D6C8D90416EC3201045AF82665B6103C6756C6122AB4D4ED00B204C5C94182C03558F5F9C3852BBEB6A467FFE9B197D71FC9E6FE8CBACC17AD7032D0820E3B41FAD9B7A48F1820F808E52ACDEC75F36404ECDA687
310
4D0629A6D5A76597B477D1B89855E747B38B2A041301E95B6E7A08FAD3CCAA50296647B8168BD2573599823EBB0CA76447F43862C7BCCF5EAC59410E4DDD9C7973C2755553CCCFA4C603E3040F1565ED3B1FDE4E432BCA0D9622DAF9795FAF464533826484B498524CD807E51D79ED187F21878E10516EF63F505AC67F42C9
310
BA58B1FDDD071640D2FCC87D2045B96591CB3DA85CB7DCE40F504B0304140006080800CC70623B55019EA25F0000007C00000007000000636E782E786D6C4DCB3B0E80201045D1AD90E915ED2CF8AC45050C11660C8261F98AB1B07AC9C97D42D718D865D3E909258CFD00CCE24AC6E326A164D74DC0B4128928FF32603847
310
2BA13128B1252AC747C6BAB984FC68F0B87FE8960A5C09FE86CFB69FBA01504B0304140006080800CC70623B8C9102E971010000D40300000C0000006662782F636F72652E786D6CC5535B6E833010BC8AE5DF0A6C08340F1947A84D4ED00B38C6A128602363A31CBFCB234A53A551FA553EC09AD9F5CE8C31DB9E9B1AF5CA
310
7695D1198E428A91D2D214952E33ECDD315861B4E5CC1AE3BE9561A445A3323CC098B3D21ADFCE9034DA29ED00D5A6503328BA4E398C640D8B0C77F253352214DE4145770A5B214FA2546114020D759C75CE8200340D19DE981F0F6746269C33EFAB6266AB02A655C74A59CCF365BADC27CB5D902ED22848F6340DF238A141
310
BE88E2F57B92BFEDF23523433367AE6A2EEAA455C2A902F398D2751045018D3FA264435F3771F242571B4A1919CA6F9A7C5B3CD9E42BED16F12C776AEB308F40C848FC700B1139D4891EF410CEC810227CC6846F8386402064270EF5C5C709A05E49676C024C61FC95EA45ED154CA5211D1FF4FB8291A913A68E9B83EBBB33
310
E2A7673CDE118E5AE8124C0807CB8377834E366998436B950D7A7746DAD846D4CFD978E0F04FD455FC5D49D2D4C6FE9722321F10997F0F32DC47FE05504B0304140006080800CC70623BFFEA85907E0000009D0000000B0000006662782F636E782E786D6C4DCCD10A83201886E15B91FFDC95D95A811AB6F23E625948A6C3
310
E9D8E5AF46073BFAE0E1E365ED67B3E8ADC3CB78C7815C7240DA3DFC64DCC221C519D7805AC182F7F1EF06C88D9BE6703008B6049F9E274D7A1E938DBB5AE3D6131B2589BA0D3D965551E0B2EA732C9B9A624AAEB41E3A557677029960D9AFB4EF11165F504B0304140006080800CC70623B4FEEA4082C0100001202000031
310
0000006662782F39464131463745442D413632322D343644302D413938332D3331353338454246344243312F636F72652E786D6C8D515B6EC32010BC0AE2AB55850DD871ED0813254D72825EC00192A2C460F1A872FC42ED48ED5F7E00CDCECCCEB26C731F6FE05B39AFADE921293004CA082BB5B9F43086336A21D870E6AC
310
0D7F68109861543DCC30E4ECE26C9C164858139409093556AA051CBC570102714B8F1E7AF1A5C6A11862480C7F2DA6415C878B2A4891CA89C7990F2E050073937C42DE1DB7E4F87ED8A36D4329AA9B3D46DBAEAD504556557BD81DEBDD0761E52CE42C462D17B996298E3E6BE59E35C962CE821E1FF18553435012728A7187
310
0841987E927A8D9B35ADDF70BBC6989599FE4F1427F9A4286A132ABAC49D651EF234CD5CE04CDA78BA3DC2A8FB645D00B9DF8B57E215725C60BCA2A463E54C4CE327C7A65E1C7DB02E7DEFCBF594B864C5CA6CDBD49C957943E9FA5D5FBAF336F90F504B0304140006080800CC70623BAD7543B64E01000033030000300000
310
006662782F39464131463745442D413632322D343644302D413938332D3331353338454246344243312F636E782E786D6CD593CD6EC32010845F0571AD6CE3D48AD20813A9873E410FBD12D82434182C7EAAE6EDBB2424CD25871E7B41D6EC30B3FA84F9E67BB2E40B4234DE8DB46F1925E094D7C6ED479AD3AE5951B2113C
310
789FEE6C943839C1488B4C05DF079FE72A69D8C96C13AAD6B8631503449F83828872B949AC57D26200B826A308D316B4064D6E46FCDA41C05550DC9E483A00797BFD207EFB092A45DE9514C1BBD22178396BD39D891265658C238DEA00936C654E5E433CB65A26D9F6EDB5EBC14EBF49A45CB856E66048291F6939A9A81BB5
310
C8917738143CA680F4AA299D66A042CEB3354A2684DC9D8D178FE0D9B8B41CAAD720F880EE7EF93C0C18769E099ECC04D5A102C8049A8A05632F4DDF376CF1DE0F6BB65C2F8627B65A33C6BB62177CEBBDAD973006829F89F22E814B54F4BC2BE347F8AA8F681390B50FA73F804400B5F542E796F19FF974E7F78DB802FE05
310
E207504B0304140006080800CC70623B16AB87BA640500003C100000340000006662782F39464131463745442D413632322D343644302D413938332D3331353338454246344243312F6F626A656374732E786D6CAD575B6FA33818FD2B887DE6924B3BED8A326A92B68A663B534DD4D13E548A0C38942D60649B369D5FBFC7
310
600890A493BDE42160637FD7F31D7FF63E6FB3D478A55C242CBF3247B66B1A340F5994E4F19559CA8D75611A9F7D8F33263BCB4C232719BD32D5B4E97B316765A1A722BA21652A07B3B7B33F0D11D29C9A46981221AE4C113ED38CD8A4942CA2E2C58E882476BCD9DA23BB5ED8171B73523C0F841684D35CC252CCE79062D4
310
468DFA43D7747CCF51DF7D4FFDEB5593E3AB9CCA9FBEFE241792E4E19EB28198C968BAB8199F5D5A67D3E9C49A9E8F47D6EC76B6B0469F26EEFC7C3EBFBCBEB98462213924694B38DD98FE1D62C393D073EA4FADC5DAF04326852CCF6958F90F0F2B9BB5C48816348F90C7840A68EB78EDF68723159BCEE7891A6B95DDE9D3
310
BCEAEEE8086A6C6F9E5D4B59F0175C10A7A0820BAA5055C7473B5AE3CFDD452D602CD5DF12616444529E90D448938013FE6EFA58AA96F85E4F8C42275708571E98FE6827AF6B2B4AE3D7D83D64E5A64C53054DD3AF90BD06FEA9149565C94FCA0F6B834DC85599E4F2423B24DF0B6AFA979E534DFA9E7A4CC6FA631D486393
310
921829879BF5D781A373557BCB85E97FB90DB62B558F8795179C15944B051F40AB495CF35451D26A4727654E6D8033BD98EF82F21D91FF8AF2DD9982BCF1643BDD4EB516C9492E368C67C88DED563FC36D5EACF66DFF057C3658BDBFA69DF9578B3DA735B64F18C7F20770A9D45CFCF7FCF563D6456A277DBEF78A02637CA2
310
43B90A490AEAB94F72244481D24819A6C0E59B606BFA4B3025981DBB48EAB701D97BF19C577CC77F2D1B6C55A9EF3C732474C0B727303F625995056C3B02963D9EAC146BE78EC5FCEC7FA999EBC5EACBAAE41B12D27B4D2C0BBA49F244E2ECDC81B76B502F113D8F5EE8FB1BE3111CDD4FC2AA9B844CAB1288B68AB90A7CDC
310
1C166AB0D3DC5310625FCC14E779BFD0709F8890A629C9292B1B2DED31A4B0DA928CEE135085754027E3018A397D4D5427D15BD1330B677DC8934285AC3DF45A9EB68FF8F2B8FC0A509AFEECFD0FF2DE25CC6047F7214B195F07EFEB9A094D800F7BFAE8FED187B78EA8A3A400F115961BCAD1215E47C966530AF0EE8128FE
310
58CEBB996A8964FFA529A046635D9353B0336A8F700DDF46271A024E70B0B37C9DE01847591E54DED53D54202AB947E4076556AC49C6CA5C9E1226B7F1A7B1BE15DEED62C41B91E1B3E9AFAAA735036547343A925075041DF0A9979E893B391F8FCFA6967B3EFB644DCF6E5CEBFAE272625DCC6FAF3FB93793C5F90CE1EF57
310
407342756B10D1C489E8953CD1617E5CEECAD6F4EF8914CE5D5D504E5C3F1F9736DA62CFC11E00BCDDB8CC8A9466349744C1F75EBDA4DF09BA8A9E8C7A7E9991989E20E5DBDD6A6003664ED8F7A04A8DBE0DF6EAD9B9AA858342E47399053949D2C146EDB85DE4B176BB0965FBAC19BD19AA918E27FA50C1D22402E144464C
310
59462568E704B6E71915404CB72B8FF4EDE184DDAF753F284990D2C6926782963815403548A70C657FDEF80D2D9CEAA2AE4C1C76F60BFE74219A06527D6582DF6412526107381E55E353090704D085B52408D0933C4ED159D79BDA71BB4BC506F4831350EB6F979CD22D69BF7AC49B91A2C0A9DDA3D5CA36AD20FC478E37E6
310
1844E2352865EBCB6EA275A652E3836BE04EFB400BF1A2556F515F1FBB35B2AB35BD889C744FFA1004B5544B121E57F70215746DD2F5E2C1412B602CBF19455AC6C8E5E9922C4E01E65215385004546899059180EAFCF7A707CE7017CD8CDB0410789AB32C63B91E5CEBBBACB17AC6CD347A022D5075FD106377347AAABA7E
310
7D11590744509B44E205134DC1290F06580320F78E537D3D73540E06CB970B431F185308AD40BBD794D6D77003C5A36E8EAA54BA64597CD8F83BD552A080A365F7FF06504B0304140006080000CC70623B000000000000000000000000350000006662782F39464131463745442D413632322D343644302D413938332D3331
310
353338454246344243312F76657274696365732E62696E504B0304140006080800CC70623BF270F1330600000004000000360000006662782F39464131463745442D413632322D343644302D413938332D3331353338454246344243312F747269616E676C65732E62696E636660600000504B0304140006080000CC70623B
310
000000000000000000000000370000006662782F39464131463745442D413632322D343644302D413938332D3331353338454246344243312F617474726962757465732E62696E504B0304140006080800CC70623B08DA0BD19000000041010000360000006662782F39464131463745442D413632322D343644302D413938
310
332D3331353338454246344243312F6469726563746F72792E786D6C858F410AC3201045AF22B36F53E9A60B35CBEEBAE80D244E44489C6234F4F835464A48035D0DF398FF9F8AF63D0E6CC63039F212F8F9020C7D47C6792B21C5FE7403D62A1188E2E60C98D7234A5830286103A55745067B9D86B8A3CF9C7F90C11DE607
310
FB144396D7B6A82D282E9A152AD114D5EF2CB866EEE831B8EEA07A7BB5A8D7D61A2BAAEB7FD5F70921FF497D00504B0304140006080800CC70623B0D6EF93BFE000000A00100003B0000006662782F39464131463745442D413632322D343644302D413938332D3331353338454246344243312F7265736F75726365732F63
310
6F72652E786D6C8D50596E833010BD0A9ADFCA60B334011947A8694ED00B586642AC041B79A97AFC9A40A5F6AF3F33A3B7689E1E3F7DCD8FEC139DD7D6F4C0720A191A65476DA61E62B892236427C19DB5E1970C322367EC618541F0C9D9B8EC90B226A009093576C41D94DE63804C3DD2D18357379C652E63480A7FCF17A9
310
EE72C29CE5894E3AC17D702940B63D59270887DE46A7D0F36263058F518FBB468FE9A7BE6A7420864373B8D4873369AA8691FA421B3294352543C5CAF65C0F6FEF43CB8BD52C78D0F34F46E550061C419494B6843142CB0F5677F4B52BEB177AEC28E5C52AFF638ACBF84F53D42654E51E77B379102C05791282176B5F693D
310
CB4C7BED567C03504B010214000A0000080000CC70623B3DEE336E79000000790000001B00000000000000000000000000000000006175746F6465736B2D64657369676E2D7061636B6167652E786D6C504B01021400140006080800CC70623BD486FD9CA0000000F40000001300000000000000000000000000B20000005B
310
436F6E74656E745F54797065735D2E786D6C504B01021400140006080800CC70623B1EC5D7A3EB0000007C010000080000000000000000000000000083010000636F72652E786D6C504B01021400140006080800CC70623B55019EA25F0000007C000000070000000000000000000000000094020000636E782E786D6C504B
310
01021400140006080800CC70623B8C9102E971010000D40300000C00000000000000000000000000180300006662782F636F72652E786D6C504B01021400140006080800CC70623BFFEA85907E0000009D0000000B00000000000000000000000000B30400006662782F636E782E786D6C504B01021400140006080800CC70
310
623B4FEEA4082C0100001202000031000000000000000000000000005A0500006662782F39464131463745442D413632322D343644302D413938332D3331353338454246344243312F636F72652E786D6C504B01021400140006080800CC70623BAD7543B64E010000330300003000000000000000000000000000D5060000
310
6662782F39464131463745442D413632322D343644302D413938332D3331353338454246344243312F636E782E786D6C504B01021400140006080800CC70623B16AB87BA640500003C1000003400000000000000000000000000710800006662782F39464131463745442D413632322D343644302D413938332D3331353338
310
454246344243312F6F626A656374732E786D6C504B01021400140006080000CC70623B0000000000000000000000003500000000000000000000000000270E00006662782F39464131463745442D413632322D343644302D413938332D3331353338454246344243312F76657274696365732E62696E504B01021400140006
310
080800CC70623BF270F133060000000400000036000000000000000000000000007A0E00006662782F39464131463745442D413632322D343644302D413938332D3331353338454246344243312F747269616E676C65732E62696E504B01021400140006080000CC70623B0000000000000000000000003700000000000000
310
000000000000D40E00006662782F39464131463745442D413632322D343644302D413938332D3331353338454246344243312F617474726962757465732E62696E504B01021400140006080800CC70623B08DA0BD190000000410100003600000000000000000000000000290F00006662782F39464131463745442D413632
310
322D343644302D413938332D3331353338454246344243312F6469726563746F72792E786D6C504B01021400140006080800CC70623B0D6EF93BFE000000A00100003B000000000000000000000000000D1000006662782F39464131463745442D413632322D343644302D413938332D3331353338454246344243312F7265
310
736F75726365732F636F72652E786D6C504B0506000000000E000E0080040000641100000000
  0
XRECORD
  5
175
102
{ACAD_REACTORS
330
173
102
}
330
173
100
AcDbXrecord
280
1
270
1
271
1
  0
XRECORD
  5
174
102
{ACAD_REACTORS
330
173
102
}
330
173
100
AcDbXrecord
280
1
270
1
271
1
  0
XRECORD
  5
1FB
102
{ACAD_REACTORS
330
173
102
}
330
173
100
AcDbXrecord
280
1
 70
0
 90
1673772943
  1
ECE7A1D2-D628-4531-984C-D00F80459256
310
504B03040A0000080000CC70623B3DEE336E79000000790000001B0000006175746F6465736B2D64657369676E2D7061636B6167652E786D6C3C3F786D6C2076657273696F6E3D22312E302220656E636F64696E673D227574662D3822203F3E3C666F726D6174733E3C666F726D61743E687474703A2F2F736368656D612E
310
6175746F6465736B2E636F6D2F64657369676E2D7061636B6167652F323030393C2F666F726D61743E3C2F666F726D6174733E504B0304140006080800CC70623BD486FD9CA0000000F4000000130000005B436F6E74656E745F54797065735D2E786D6C7D8EC10E82300C865F65E91D8A1E8C310C0EEA1BF002731658846E
310
D98AC1B77784ABF1D8FE5FBFBF75BBCE937A534CCEB38643598122B6FEE978D0B0485F9C41B54DDD7D022595594E1A469170414C76A4D9A4D207E29CF43ECE46F218070CC6BECC4078ACAA135ACF422C856C0E68EA1BF5669944DDD7BCDE7B1F8E415D77AECB980613C2E4AC91FC167A2B244592486606FC29C8FD7F045B9A
310
EF7053A7E60B504B0304140006080800CC70623BD9DDAED0EC0000007C01000008000000636F72652E786D6C8D90416EC3201045AF82665B61836D9CD8C2444DD39CA01740405C94182C03558F5F9C3852BBEB6A467FFE9B197D7EF89E6EE8CB2CC17A37002D0820E394D7D68D03A478C17B4007C117EFE32F1B20272733C0
310
2A83E0E3E2D3BC49CABB685CCCAAF3DA6CA20CC14440EA969B0182FA34932C648AD911AEC52CD5558EA6A0CF2EC329598D1E47ACCEFBECC59A050463A7EA5833865FEBDD0E37353BE3EE8DBDE3F6786A48D375FBF6CC78B9C282473B3DEFABC5C86834888A900E538A49F5419B9EB47DD5BC907D4F082F57FB1F28CDFA9F50
310
B22ED6D5F6EE030B20687EE43E10BC5CB3C8E51E54AE6B6EE207504B0304140006080800CC70623B55019EA25F0000007C00000007000000636E782E786D6C4DCB3B0E80201045D1AD90E915ED2CF8AC45050C11660C8261F98AB1B07AC9C97D42D718D865D3E909258CFD00CCE24AC6E326A164D74DC0B4128928FF326038
310
472BA13128B1252AC747C6BAB984FC68F0B87FE8960A5C09FE86CFB69FBA01504B0304140006080800CC70623BA24EB22D72010000D40300000C0000006662782F636F72652E786D6CC5535B6E833010BC8AE5DF0A6C5E49888CA3A6694ED00B38E05014B091B1518EDFE511A5A9D228FD2A1F60CDEC7A67C6986DCE4D8D7A
310
69BA4AAB0C073EC548AA5C17952A33ECECD15B61B4E1CC686DBF9561A44423333CC098B3D268D7CE50AE9595CA02AA74216750749DB418E5352C32DCE59FB211BE70162ABA93DF8AFC244AE9073ED050C759670D0840D390E18DF9F1706664C23973AE2A66B62A605A75ACA4C13C4976E1364A12EF355A2EBD384AF65EFA96
310
BC7B8BED2EA6719AAE16FB8491A199335B351775B991C2CA02F390D2D40B028F861F41BCA68B7518BFD0D59A524686F29B26D7164F36B94AD9289CE54E6D1DE6010819891F6E21228B3AD1831EC219194284CF98F06DD01008846CC5A1BEF83801D4CBDC6A1303536877A57A513B0953A94FC707FDBE6064EA84A9E3E6E0FA
310
EE8CF0E9198F7784A316AA0413C2C2F2E0ECA0934D1AE6D05A69BCDE9E91D2A611F573361E38FC1375157F5752AE6B6DFE4B11990F88CCBF0719EE23FF02504B0304140006080800CC70623B408A7D3B7C0000009D0000000B0000006662782F636E782E786D6C4DCCD10A83201886E15B91FFDC552A92A0064DBC8F581632
310
D3703A76F9ABD1C18E3E78F878E5F0D9027ABBFCF2292AE86E2D20171F69F6715550CB827B40839639A5F2770314A7CD293819B45C73AAFB45B35BA61ACAA1C1C7E7855C58C15BC331339661262CC762340413D68D77DA5B42298546CBE6573AF60CEB2F504B0304140006080800CC70623B449FB9BD290100001202000031
310
0000006662782F36394639363044362D344446342D343946362D394244322D3234314243333846323333332F636F72652E786D6C8D515B6EC32010BC0AE22B55850D98B871848994463E412FE002495162B07854397EA176A4F62F3F2C9A9D991D587EB84F37F0AD7D30CEF6905418026DA553C65E7A98E219ED203808EE9D
310
8B7F6810D871D23D2C3014FCE25D9A57483A1BB58D19B54EE9151C43D0110279CB971E06F9A5A7B11A53CC8C70ADE6515EC78BAE4895DB992778883E0700CB907242D17643D7E2538BD869608875438BBAE38922CAC8F1BDD90DB4691A5E2F42C153326A951B95E398B3D1FE599322163C9AE9115F7A3D46ADA0A018778810
310
84E907617BDCEE297BC5BB3DC6BC2EF47FA234AB2745C9D8D8D035EE220B50105E2F0DC1954B9FB747187D9F9D8FA0CCDB042D5FA0C015C65B42DF78BD10F3F3B363CB56C7109DCFDFBBB97E662ED92EB62D13BC2E1BCAE5777DB9966D8A1F504B0304140006080800CC70623BAD7543B64E01000033030000300000006662
310
782F36394639363044362D344446342D343946362D394244322D3234314243333846323333332F636E782E786D6CD593CD6EC32010845F0571AD6CE3D48AD20813A9873E410FBD12D82434182C7EAAE6EDBB2424CD25871E7B41D6EC30B3FA84F9E67BB2E40B4234DE8DB46F1925E094D7C6ED479AD3AE5951B2113C789FEE
310
6C943839C1488B4C05DF079FE72A69D8C96C13AAD6B8631503449F83828872B949AC57D26200B826A308D316B4064D6E46FCDA41C05550DC9E483A00797BFD207EFB092A45DE9514C1BBD22178396BD39D891265658C238DEA00936C654E5E433CB65A26D9F6EDB5EBC14EBF49A45CB856E66048291F6939A9A81BB5C89177
310
38143CA680F4AA299D66A042CEB3354A2684DC9D8D178FE0D9B8B41CAAD720F880EE7EF93C0C18769E099ECC04D5A102C8049A8A05632F4DDF376CF1DE0F6BB65C2F8627B65A33C6BB62177CEBBDAD973006829F89F22E814B54F4BC2BE347F8AA8F681390B50FA73F804400B5F542E796F19FF974E7F78DB802FE05E20750
310
4B0304140006080800CC70623B8D05915C650500003B100000340000006662782F36394639363044362D344446342D343946362D394244322D3234314243333846323333332F6F626A656374732E786D6CAD575B6FA33814FE2B887D06429276DA1565D4266D158D3A339A6846FB502932E050B66023DB74D2FDF5FB190C01
310
9276B2973C046C8ECFF53B17071F77456EBD502133CEAE6CDF9DD81665314F32965ED995DA3A17B6F5310C04E7AA47665B8C14F4CAD6DB7618A48257A5D94AE89654B91AEDDEDDFC61C998326A5B714EA4BCB265FC440BE2924AF184CA6737218AB8E976E7FA6E4338649B0A523E8D98964450A6A029F619B8588D52FE7039
310
B1BD30F0F4F730D0FF866AF6369557DB33949F31A9088B0F848DD8CCFCF9F2767A76E99CCDE733677E3EF59D9BBB9BA5E37F984D16E78BC5E5F5ED25044B25C0C96822E8D60EEFE11B91C581D77CEA34368A1F5329E68CD1B8B61F16D63A1B8E092D294B10C78C4A48EB593D192E7DED9BDEE7995E1B91FDEDD3ACEA9FE831
310
6A756F9F7D4D79F4274C90A7A04248AA51D5F8C718DAE06FB2F75AC4796EBE65D22A88A22223B995679120E2D50E41AA49C260C046A35368846B0BECD0DFF3EBEB8AD4F835768F69B9ADF25C43D30E6B646F807FAA64AD59F61715C7A54127C4AACA98BA3006A9D792DAE165E0D59B61A01FB3A9F9D838D2DAE62445C86166
310
F37564E842E7DE6A69879FEEA2DD5AE7E371E1A5E025154AC307D06A03D73EB5978C58FFA4C8E9033066E0F3BD53BEC1F39F91BE7B55103791EDE6BBB991A2046172CB4581D8B893FA674DDA17A77B3B7C413D1B511FD2743BFF8A38F03A658705E3ADF8015C3A3417FF3D7E439FF591DA0B5F18BC20C1B8981957AE6392A3
310
F43C640C01D1A0B4728E2DD4F26DB4B3C3152A252A3B4E913CEC1C72F012782FF88EFF8637AA552DBEF76408E8A8DE9E50F9E1CB3A2DA0DB1B6039A893B56063DC5B3E3FFB5F72E67AB9FEB4AEC496C4F4C1149625DD662C53E89D7BF0F6151A046260D1337DFDC94502430F83B0EE07A130A224BCAD7DAE1D9FB6CD422FF6
310
920702629C4BB9AE79C12F243C6432A6794E18E5552BA56B431AAB5D91317302B2B071E86C3A42B1A02F999E24061403B5D0EB639195DA655DD3EBEAB4FB862DDF579F014AD0E73C22F99E28DA57FB98E75C6CA2D74D53086D600F4786E0FE3144B771A8A7B900F03594DB8A633CBC49B2EDB69228BB479CF863B5E807AAAB
310
23872F6DFEB4129B949CA33823F58830E86D65621E10047D9DB34D862E8EAC3C2ABC2F7B2C40D67CDFE01F5545B92105AF983AC54D93D69E56FB8E797F88913F898A9FEC705D3F9D1B54EC8426FB500D40A03BD0119B06E1B95DDC7EB8F6975367793EBD70E66733DFB9BC982F9CE564727731999F5D4ECFCE3B8D6A4DC2A0
310
6D50FD148437D110834A64C6CDDF57FBACB5C307A2A477DFE4939736CFEF2B175371E0E10CF0DD1D5C15654E0BCA14D1E87DD02FF93782A162C0A3D95F1524A52770F972BF1EE9809D13CE7DD599467F8ECE9ADD85CE85A34CD45355448C64F9E8A031DC2D596ACC6E5DD93D9B82DE2EF5CAF81363A8E47996A0DE24564A79
310
4115AACE09C55E14540231FDA13C319787134EBF34E3A022514E5B4D9E0826E25C02D5805B15ABE1BEF51B26383D445DD9E875EE33FE4C22DA16427D65A3BCA92CA6D28DD01DF5DC53330704308475351050232CCD31583787BA75774AFB06E5070DD0C8EF484E19968C5D83BA5B90B244D31E54D55A372320FE4786B7EA58
310
44E135AA5467CB7EA333A61683CC6A8C3257034C10CF46F40EF9F5BE59BE5BD30C3C72D235E95D10345C1D45445A5F0BB47E46A5EBE5570F9380B5FA629579952296A773720405982B9DE04011506178964401AA8BDF1FBF0A8EAB6861DD6580C0E38217056766716DAEB2D6FA0917D3E4116581EADB879C4E7CFFB11EFACD
310
3D641311495D92C8676CB409A72D18610D803CE8A626049E8EC1887CB5B44CC39883690DDA8399B4B9855B481E7D71D4A9D22F96E5BB73BF5793020C02137BF837504B0304140006080000CC70623B000000000000000000000000350000006662782F36394639363044362D344446342D343946362D394244322D32343142
310
43333846323333332F76657274696365732E62696E504B0304140006080800CC70623BF270F1330600000004000000360000006662782F36394639363044362D344446342D343946362D394244322D3234314243333846323333332F747269616E676C65732E62696E636660600000504B0304140006080000CC70623B0000
310
00000000000000000000370000006662782F36394639363044362D344446342D343946362D394244322D3234314243333846323333332F617474726962757465732E62696E504B0304140006080800CC70623B08DA0BD19000000041010000360000006662782F36394639363044362D344446342D343946362D394244322D
310
3234314243333846323333332F6469726563746F72792E786D6C858F410AC3201045AF22B36F53E9A60B35CBEEBAE80D244E44489C6234F4F835464A48035D0DF398FF9F8AF63D0E6CC63039F212F8F9020C7D47C6792B21C5FE7403D62A1188E2E60C98D7234A5830286103A55745067B9D86B8A3CF9C7F90C11DE607FB14
310
4396D7B6A82D282E9A152AD114D5EF2CB866EEE831B8EEA07A7BB5A8D7D61A2BAAEB7FD5F70921FF497D00504B0304140006080800CC70623BCA768048FE000000A00100003B0000006662782F36394639363044362D344446342D343946362D394244322D3234314243333846323333332F7265736F75726365732F636F72
310
652E786D6C8D50596E833010BD0A9ADFCA60D600328E9AA639412F609909B1126CE4A5EAF16B0295DABFFECC8CDEA2797AECF8353F924FB44E193D409E5248504B332A3D0D10FC95B4901C39B3C6F85F3248B49871801506CE266BC2B243D2688FDA47549B11775038871E12F988C7004EDE7016A9083E2ADC3D5D84BC8B09
310
D33C8D74D471E6BC8D0192EDC93A815B742658898E651BCB59086ADC356A8C3FD555A1055ED7E7E254D615792D0F075295F585746FF53B694EE78A565DD736979A65AB9933AFE69F8CD2A2F038022F28ED489E135A7CE4554F9BBEA85E68DB53CAB255FEC71496F19FA6A0B42F8B3DEE6673C0F318E4497096AD7DC5F52C33
310
EEB55BFE0D504B010214000A0000080000CC70623B3DEE336E79000000790000001B00000000000000000000000000000000006175746F6465736B2D64657369676E2D7061636B6167652E786D6C504B01021400140006080800CC70623BD486FD9CA0000000F40000001300000000000000000000000000B20000005B436F
310
6E74656E745F54797065735D2E786D6C504B01021400140006080800CC70623BD9DDAED0EC0000007C010000080000000000000000000000000083010000636F72652E786D6C504B01021400140006080800CC70623B55019EA25F0000007C000000070000000000000000000000000095020000636E782E786D6C504B0102
310
1400140006080800CC70623BA24EB22D72010000D40300000C00000000000000000000000000190300006662782F636F72652E786D6C504B01021400140006080800CC70623B408A7D3B7C0000009D0000000B00000000000000000000000000B50400006662782F636E782E786D6C504B01021400140006080800CC70623B
310
449FB9BD290100001202000031000000000000000000000000005A0500006662782F36394639363044362D344446342D343946362D394244322D3234314243333846323333332F636F72652E786D6C504B01021400140006080800CC70623BAD7543B64E010000330300003000000000000000000000000000D20600006662
310
782F36394639363044362D344446342D343946362D394244322D3234314243333846323333332F636E782E786D6C504B01021400140006080800CC70623B8D05915C650500003B10000034000000000000000000000000006E0800006662782F36394639363044362D344446342D343946362D394244322D32343142433338
310
46323333332F6F626A656374732E786D6C504B01021400140006080000CC70623B0000000000000000000000003500000000000000000000000000250E00006662782F36394639363044362D344446342D343946362D394244322D3234314243333846323333332F76657274696365732E62696E504B010214001400060808
310
00CC70623BF270F13306000000040000003600000000000000000000000000780E00006662782F36394639363044362D344446342D343946362D394244322D3234314243333846323333332F747269616E676C65732E62696E504B01021400140006080000CC70623B00000000000000000000000037000000000000000000
310
00000000D20E00006662782F36394639363044362D344446342D343946362D394244322D3234314243333846323333332F617474726962757465732E62696E504B01021400140006080800CC70623B08DA0BD190000000410100003600000000000000000000000000270F00006662782F36394639363044362D344446342D
310
343946362D394244322D3234314243333846323333332F6469726563746F72792E786D6C504B01021400140006080800CC70623BCA768048FE000000A00100003B000000000000000000000000000B1000006662782F36394639363044362D344446342D343946362D394244322D3234314243333846323333332F7265736F
310
75726365732F636F72652E786D6C504B0506000000000E000E0080040000621100000000
  0
XRECORD
  5
176
102
{ACAD_REACTORS
330
173
102
}
330
173
100
AcDbXrecord
280
1
270
1
271
1
  0
XRECORD
  5
177
102
{ACAD_REACTORS
330
173
102
}
330
173
100
AcDbXrecord
280
1
270
1
271
1
  0
CELLSTYLEMAP
  5
4C2
102
{ACAD_REACTORS
330
162
102
}
330
162
100
AcDbCellStyleMap
 90
3
300
CELLSTYLE
  1
TABLEFORMAT_BEGIN
 90
5
170
1
 91
0
 92
32768
 62
257
 93
1
300
CONTENTFORMAT
  1
CONTENTFORMAT_BEGIN
 90
0
 91
0
 92
512
 93
0
300

 40
0.0
140
1.0
 94
5
 62
0
340
11
144
6.0
309
CONTENTFORMAT_END
171
1
301
MARGIN
  1
CELLMARGIN_BEGIN
 40
1.5
 40
1.5
 40
1.5
 40
1.5
 40
4.5
 40
4.5
309
CELLMARGIN_END
 94
6
 95
1
302
GRIDFORMAT
  1
GRIDFORMAT_BEGIN
 90
0
 91
1
 62
0
 92
-2
340
14
 93
0
 40
1.125
309
GRIDFORMAT_END
 95
2
302
GRIDFORMAT
  1
GRIDFORMAT_BEGIN
 90
0
 91
1
 62
0
 92
-2
340
14
 93
0
 40
1.125
309
GRIDFORMAT_END
 95
4
302
GRIDFORMAT
  1
GRIDFORMAT_BEGIN
 90
0
 91
1
 62
0
 92
-2
340
14
 93
0
 40
1.125
309
GRIDFORMAT_END
 95
8
302
GRIDFORMAT
  1
GRIDFORMAT_BEGIN
 90
0
 91
1
 62
0
 92
-2
340
14
 93
0
 40
1.125
309
GRIDFORMAT_END
 95
16
302
GRIDFORMAT
  1
GRIDFORMAT_BEGIN
 90
0
 91
1
 62
0
 92
-2
340
14
 93
0
 40
1.125
309
GRIDFORMAT_END
 95
32
302
GRIDFORMAT
  1
GRIDFORMAT_BEGIN
 90
0
 91
1
 62
0
 92
-2
340
14
 93
0
 40
1.125
309
GRIDFORMAT_END
309
TABLEFORMAT_END
  1
CELLSTYLE_BEGIN
 90
1
 91
1
300
_TITLE
309
CELLSTYLE_END
300
CELLSTYLE
  1
TABLEFORMAT_BEGIN
 90
5
170
1
 91
0
 92
0
 62
257
 93
1
300
CONTENTFORMAT
  1
CONTENTFORMAT_BEGIN
 90
0
 91
0
 92
512
 93
0
300

 40
0.0
140
1.0
 94
5
 62
0
340
11
144
4.5
309
CONTENTFORMAT_END
171
1
301
MARGIN
  1
CELLMARGIN_BEGIN
 40
1.5
 40
1.5
 40
1.5
 40
1.5
 40
4.5
 40
4.5
309
CELLMARGIN_END
 94
6
 95
1
302
GRIDFORMAT
  1
GRIDFORMAT_BEGIN
 90
0
 91
1
 62
0
 92
-2
340
14
 93
0
 40
1.125
309
GRIDFORMAT_END
 95
2
302
GRIDFORMAT
  1
GRIDFORMAT_BEGIN
 90
0
 91
1
 62
0
 92
-2
340
14
 93
0
 40
1.125
309
GRIDFORMAT_END
 95
4
302
GRIDFORMAT
  1
GRIDFORMAT_BEGIN
 90
0
 91
1
 62
0
 92
-2
340
14
 93
0
 40
1.125
309
GRIDFORMAT_END
 95
8
302
GRIDFORMAT
  1
GRIDFORMAT_BEGIN
 90
0
 91
1
 62
0
 92
-2
340
14
 93
0
 40
1.125
309
GRIDFORMAT_END
 95
16
302
GRIDFORMAT
  1
GRIDFORMAT_BEGIN
 90
0
 91
1
 62
0
 92
-2
340
14
 93
0
 40
1.125
309
GRIDFORMAT_END
 95
32
302
GRIDFORMAT
  1
GRIDFORMAT_BEGIN
 90
0
 91
1
 62
0
 92
-2
340
14
 93
0
 40
1.125
309
GRIDFORMAT_END
309
TABLEFORMAT_END
  1
CELLSTYLE_BEGIN
 90
2
 91
1
300
_HEADER
309
CELLSTYLE_END
300
CELLSTYLE
  1
TABLEFORMAT_BEGIN
 90
5
170
1
 91
0
 92
0
 62
257
 93
1
300
CONTENTFORMAT
  1
CONTENTFORMAT_BEGIN
 90
0
 91
0
 92
512
 93
0
300

 40
0.0
140
1.0
 94
2
 62
0
340
11
144
4.5
309
CONTENTFORMAT_END
171
1
301
MARGIN
  1
CELLMARGIN_BEGIN
 40
1.5
 40
1.5
 40
1.5
 40
1.5
 40
4.5
 40
4.5
309
CELLMARGIN_END
 94
6
 95
1
302
GRIDFORMAT
  1
GRIDFORMAT_BEGIN
 90
0
 91
1
 62
0
 92
-2
340
14
 93
0
 40
1.125
309
GRIDFORMAT_END
 95
2
302
GRIDFORMAT
  1
GRIDFORMAT_BEGIN
 90
0
 91
1
 62
0
 92
-2
340
14
 93
0
 40
1.125
309
GRIDFORMAT_END
 95
4
302
GRIDFORMAT
  1
GRIDFORMAT_BEGIN
 90
0
 91
1
 62
0
 92
-2
340
14
 93
0
 40
1.125
309
GRIDFORMAT_END
 95
8
302
GRIDFORMAT
  1
GRIDFORMAT_BEGIN
 90
0
 91
1
 62
0
 92
-2
340
14
 93
0
 40
1.125
309
GRIDFORMAT_END
 95
16
302
GRIDFORMAT
  1
GRIDFORMAT_BEGIN
 90
0
 91
1
 62
0
 92
-2
340
14
 93
0
 40
1.125
309
GRIDFORMAT_END
 95
32
302
GRIDFORMAT
  1
GRIDFORMAT_BEGIN
 90
0
 91
1
 62
0
 92
-2
340
14
 93
0
 40
1.125
309
GRIDFORMAT_END
309
TABLEFORMAT_END
  1
CELLSTYLE_BEGIN
 90
3
 91
2
300
_DATA
309
CELLSTYLE_END
  0
DICTIONARY
  5
4D6
330
C
100
AcDbDictionary
280
1
281
1
  3
WRITTEN_BY_EZDXF
350
4D7
  0
DICTIONARYVAR
  5
4D7
330
4D6
100
DictionaryVariables
280
0
  1
1.4.4 @ 2026-09-20T19:45:09.359397+00:00
  0
ENDSEC
  0
SECTION
  2
ACDSDATA
 70
2
 71
8
  0
ACDSSCHEMA
 90
0
  1
AcDb_Thumbnail_Schema
  2
AcDbDs::ID
280
10
 91
8
  2
Thumbnail_Data
280
15
 91
0
101
ACDSRECORD
 95
0
 90
1
  2
AcDbDs::TreatedAsObjectData
280
1
291
1
101
ACDSRECORD
 95
0
 90
2
  2
AcDbDs::Legacy
280
1
291
1
101
ACDSRECORD
  1
AcDbDs::ID
 90
3
  2
AcDs:Indexable
280
1
291
1
101
ACDSRECORD
  1
AcDbDs::ID
 90
4
  2
AcDbDs::HandleAttribute
280
7
282
1
  0
ACDSSCHEMA
 90
1
  1
AcDbDs::TreatedAsObjectDataSchema
  2
AcDbDs::TreatedAsObjectData
280
1
 91
0
  0
ACDSSCHEMA
 90
2
  1
AcDbDs::LegacySchema
  2
AcDbDs::Legacy
280
1
 91
0
  0
ACDSSCHEMA
 90
3
  1
AcDbDs::IndexedPropertySchema
  2
AcDs:Indexable
280
1
 91
0
  0
ACDSSCHEMA
 90
4
  1
AcDbDs::HandleAttributeSchema
  2
AcDbDs::HandleAttribute
280
7
 91
1
284
1
  0
ACDSRECORD
 90
0
  2
AcDbDs::ID
280
10
320
22
  2
Thumbnail_Data
280
15
 94
896
310
89504E470D0A1A0A0000000D49484452000001000000009108030000001BE1960600000300504C5445212830FFFFFF2128300000000000000000000000000000000000000000000000000000330000660000990000CC0000FF0033000033330033660033990033CC0033FF0066000066330066660066990066CC0066FF0099
310
000099330099660099990099CC0099FF00CC0000CC3300CC6600CC9900CCCC00CCFF00FF0000FF3300FF6600FF9900FFCC00FFFF3300003300333300663300993300CC3300FF3333003333333333663333993333CC3333FF3366003366333366663366993366CC3366FF3399003399333399663399993399CC3399FF33CC00
310
33CC3333CC6633CC9933CCCC33CCFF33FF0033FF3333FF6633FF9933FFCC33FFFF6600006600336600666600996600CC6600FF6633006633336633666633996633CC6633FF6666006666336666666666996666CC6666FF6699006699336699666699996699CC6699FF66CC0066CC3366CC6666CC9966CCCC66CCFF66FF0066
310
FF3366FF6666FF9966FFCC66FFFF9900009900339900669900999900CC9900FF9933009933339933669933999933CC9933FF9966009966339966669966999966CC9966FF9999009999339999669999999999CC9999FF99CC0099CC3399CC6699CC9999CCCC99CCFF99FF0099FF3399FF6699FF9999FFCC99FFFFCC0000CC00
310
33CC0066CC0099CC00CCCC00FFCC3300CC3333CC3366CC3399CC33CCCC33FFCC6600CC6633CC6666CC6699CC66CCCC66FFCC9900CC9933CC9966CC9999CC99CCCC99FFCCCC00CCCC33CCCC66CCCC99CCCCCCCCCCFFCCFF00CCFF33CCFF66CCFF99CCFFCCCCFFFFFF0000FF0033FF0066FF0099FF00CCFF00FFFF3300FF3333
310
FF3366FF3399FF33CCFF33FFFF6600FF6633FF6666FF6699FF66CCFF66FFFF9900FF9933FF9966FF9999FF99CCFF99FFFFCC00FFCC33FFCC66FFCC99FFCCCCFFCCFFFFFF00FFFF33FFFF66FFFF99FFFFCCFFFFFF0000000D0D0D1A1A1A2828283535354343435050505D5D5D6B6B6B787878868686939393A1A1A1AEAEAEBB
310
BBBBC9C9C9D6D6D6E4E4E4F1F1F1FFFFFF0000000000000000000000000000000000000000000000000000000000002E4550F10000003B4944415478DAEDC13101000000C2A0F54F6D0B2FA0000000000000000000000000000000000000000000000000000000000000000000000000CE06919100016C9A5B1B0000000049
310
454E44AE426082
  0
ENDSEC
  0
EOF
